%TF.GenerationSoftware,KiCad,Pcbnew,10.0.0*%
%TF.CreationDate,2026-05-07T12:36:50-07:00*%
%TF.ProjectId,input_conditioning_r2,696e7075-745f-4636-9f6e-646974696f6e,1*%
%TF.SameCoordinates,Original*%
%TF.FileFunction,Paste,Top*%
%TF.FilePolarity,Positive*%
%FSLAX46Y46*%
G04 Gerber Fmt 4.6, Leading zero omitted, Abs format (unit mm)*
G04 Created by KiCad (PCBNEW 10.0.0) date 2026-05-07 12:36:50*
%MOMM*%
%LPD*%
G01*
G04 APERTURE LIST*
G04 Aperture macros list*
%AMRoundRect*
0 Rectangle with rounded corners*
0 $1 Rounding radius*
0 $2 $3 $4 $5 $6 $7 $8 $9 X,Y pos of 4 corners*
0 Add a 4 corners polygon primitive as box body*
4,1,4,$2,$3,$4,$5,$6,$7,$8,$9,$2,$3,0*
0 Add four circle primitives for the rounded corners*
1,1,$1+$1,$2,$3*
1,1,$1+$1,$4,$5*
1,1,$1+$1,$6,$7*
1,1,$1+$1,$8,$9*
0 Add four rect primitives between the rounded corners*
20,1,$1+$1,$2,$3,$4,$5,0*
20,1,$1+$1,$4,$5,$6,$7,0*
20,1,$1+$1,$6,$7,$8,$9,0*
20,1,$1+$1,$8,$9,$2,$3,0*%
G04 Aperture macros list end*
%ADD10R,1.981200X0.558800*%
%ADD11RoundRect,0.237500X-0.237500X0.250000X-0.237500X-0.250000X0.237500X-0.250000X0.237500X0.250000X0*%
%ADD12RoundRect,0.237500X-0.250000X-0.237500X0.250000X-0.237500X0.250000X0.237500X-0.250000X0.237500X0*%
%ADD13RoundRect,0.237500X0.300000X0.237500X-0.300000X0.237500X-0.300000X-0.237500X0.300000X-0.237500X0*%
%ADD14RoundRect,0.250000X0.450000X-0.350000X0.450000X0.350000X-0.450000X0.350000X-0.450000X-0.350000X0*%
%ADD15RoundRect,0.237500X0.237500X-0.250000X0.237500X0.250000X-0.237500X0.250000X-0.237500X-0.250000X0*%
%ADD16RoundRect,0.237500X-0.237500X0.300000X-0.237500X-0.300000X0.237500X-0.300000X0.237500X0.300000X0*%
%ADD17RoundRect,0.237500X0.237500X-0.300000X0.237500X0.300000X-0.237500X0.300000X-0.237500X-0.300000X0*%
%ADD18RoundRect,0.237500X-0.300000X-0.237500X0.300000X-0.237500X0.300000X0.237500X-0.300000X0.237500X0*%
%ADD19RoundRect,0.237500X0.250000X0.237500X-0.250000X0.237500X-0.250000X-0.237500X0.250000X-0.237500X0*%
G04 APERTURE END LIST*
D10*
%TO.C,U2*%
X117927600Y-140730000D03*
X117927600Y-142000000D03*
X117927600Y-143270000D03*
X117927600Y-144540000D03*
X113000000Y-144540000D03*
X113000000Y-143270000D03*
X113000000Y-142000000D03*
X113000000Y-140730000D03*
%TD*%
D11*
%TO.C,R26*%
X111000000Y-126000000D03*
X111000000Y-124175000D03*
%TD*%
D12*
%TO.C,R22*%
X99000000Y-142000000D03*
X100825000Y-142000000D03*
%TD*%
D10*
%TO.C,U1*%
X98122400Y-116999250D03*
X98122400Y-118269250D03*
X98122400Y-119539250D03*
X98122400Y-120809250D03*
X103050000Y-120809250D03*
X103050000Y-119539250D03*
X103050000Y-118269250D03*
X103050000Y-116999250D03*
%TD*%
D13*
%TO.C,C31*%
X133480000Y-138934000D03*
X131755000Y-138934000D03*
%TD*%
D12*
%TO.C,R20*%
X84175000Y-142000000D03*
X86000000Y-142000000D03*
%TD*%
D14*
%TO.C,R35*%
X76000000Y-111000000D03*
X76000000Y-109000000D03*
%TD*%
D15*
%TO.C,R18*%
X76000000Y-131912500D03*
X76000000Y-130087500D03*
%TD*%
D16*
%TO.C,C29*%
X117000000Y-124175000D03*
X117000000Y-125900000D03*
%TD*%
D14*
%TO.C,R31*%
X110000000Y-111000000D03*
X110000000Y-109000000D03*
%TD*%
%TO.C,R30*%
X105000000Y-111000000D03*
X105000000Y-109000000D03*
%TD*%
D12*
%TO.C,R27*%
X116000000Y-134000000D03*
X117825000Y-134000000D03*
%TD*%
D15*
%TO.C,R24*%
X94000000Y-114825000D03*
X94000000Y-113000000D03*
%TD*%
D11*
%TO.C,R28*%
X122000000Y-142000000D03*
X122000000Y-143825000D03*
%TD*%
D15*
%TO.C,R1*%
X132480000Y-115934000D03*
X132480000Y-114109000D03*
%TD*%
%TO.C,R2*%
X132480000Y-109934000D03*
X132480000Y-108109000D03*
%TD*%
D17*
%TO.C,C27*%
X89000000Y-114825000D03*
X89000000Y-113100000D03*
%TD*%
D15*
%TO.C,R3*%
X132480000Y-103934000D03*
X132480000Y-102109000D03*
%TD*%
D14*
%TO.C,R32*%
X88000000Y-111000000D03*
X88000000Y-109000000D03*
%TD*%
%TO.C,R33*%
X93000000Y-111000000D03*
X93000000Y-109000000D03*
%TD*%
D18*
%TO.C,C23*%
X99000000Y-137000000D03*
X100725000Y-137000000D03*
%TD*%
D16*
%TO.C,C30*%
X129000000Y-142000000D03*
X129000000Y-143725000D03*
%TD*%
D12*
%TO.C,R19*%
X84175000Y-118000000D03*
X86000000Y-118000000D03*
%TD*%
D16*
%TO.C,C26*%
X126000000Y-134000000D03*
X126000000Y-135725000D03*
%TD*%
D19*
%TO.C,R25*%
X112912500Y-120000000D03*
X111087500Y-120000000D03*
%TD*%
D12*
%TO.C,R21*%
X93000000Y-142000000D03*
X94825000Y-142000000D03*
%TD*%
D14*
%TO.C,R34*%
X71000000Y-111000000D03*
X71000000Y-109000000D03*
%TD*%
M02*
