%TF.GenerationSoftware,KiCad,Pcbnew,10.0.0*%
%TF.CreationDate,2026-05-07T12:36:50-07:00*%
%TF.ProjectId,input_conditioning_r2,696e7075-745f-4636-9f6e-646974696f6e,1*%
%TF.SameCoordinates,Original*%
%TF.FileFunction,Copper,L1,Top*%
%TF.FilePolarity,Positive*%
%FSLAX46Y46*%
G04 Gerber Fmt 4.6, Leading zero omitted, Abs format (unit mm)*
G04 Created by KiCad (PCBNEW 10.0.0) date 2026-05-07 12:36:50*
%MOMM*%
%LPD*%
G01*
G04 APERTURE LIST*
G04 Aperture macros list*
%AMRoundRect*
0 Rectangle with rounded corners*
0 $1 Rounding radius*
0 $2 $3 $4 $5 $6 $7 $8 $9 X,Y pos of 4 corners*
0 Add a 4 corners polygon primitive as box body*
4,1,4,$2,$3,$4,$5,$6,$7,$8,$9,$2,$3,0*
0 Add four circle primitives for the rounded corners*
1,1,$1+$1,$2,$3*
1,1,$1+$1,$4,$5*
1,1,$1+$1,$6,$7*
1,1,$1+$1,$8,$9*
0 Add four rect primitives between the rounded corners*
20,1,$1+$1,$2,$3,$4,$5,0*
20,1,$1+$1,$4,$5,$6,$7,0*
20,1,$1+$1,$6,$7,$8,$9,0*
20,1,$1+$1,$8,$9,$2,$3,0*%
G04 Aperture macros list end*
%TA.AperFunction,SMDPad,CuDef*%
%ADD10R,1.981200X0.558800*%
%TD*%
%TA.AperFunction,SMDPad,CuDef*%
%ADD11RoundRect,0.237500X-0.237500X0.250000X-0.237500X-0.250000X0.237500X-0.250000X0.237500X0.250000X0*%
%TD*%
%TA.AperFunction,ComponentPad*%
%ADD12R,1.270000X1.270000*%
%TD*%
%TA.AperFunction,ComponentPad*%
%ADD13C,1.270000*%
%TD*%
%TA.AperFunction,SMDPad,CuDef*%
%ADD14RoundRect,0.237500X-0.250000X-0.237500X0.250000X-0.237500X0.250000X0.237500X-0.250000X0.237500X0*%
%TD*%
%TA.AperFunction,ComponentPad*%
%ADD15R,1.700000X1.700000*%
%TD*%
%TA.AperFunction,ComponentPad*%
%ADD16C,1.700000*%
%TD*%
%TA.AperFunction,ComponentPad*%
%ADD17C,1.600000*%
%TD*%
%TA.AperFunction,SMDPad,CuDef*%
%ADD18RoundRect,0.237500X0.300000X0.237500X-0.300000X0.237500X-0.300000X-0.237500X0.300000X-0.237500X0*%
%TD*%
%TA.AperFunction,ComponentPad*%
%ADD19C,1.400000*%
%TD*%
%TA.AperFunction,ComponentPad*%
%ADD20R,2.000000X2.000000*%
%TD*%
%TA.AperFunction,ComponentPad*%
%ADD21C,2.000000*%
%TD*%
%TA.AperFunction,ComponentPad*%
%ADD22R,2.000000X3.200000*%
%TD*%
%TA.AperFunction,ComponentPad*%
%ADD23R,1.408000X1.408000*%
%TD*%
%TA.AperFunction,ComponentPad*%
%ADD24C,1.408000*%
%TD*%
%TA.AperFunction,SMDPad,CuDef*%
%ADD25RoundRect,0.250000X0.450000X-0.350000X0.450000X0.350000X-0.450000X0.350000X-0.450000X-0.350000X0*%
%TD*%
%TA.AperFunction,SMDPad,CuDef*%
%ADD26RoundRect,0.237500X0.237500X-0.250000X0.237500X0.250000X-0.237500X0.250000X-0.237500X-0.250000X0*%
%TD*%
%TA.AperFunction,SMDPad,CuDef*%
%ADD27RoundRect,0.237500X-0.237500X0.300000X-0.237500X-0.300000X0.237500X-0.300000X0.237500X0.300000X0*%
%TD*%
%TA.AperFunction,ComponentPad*%
%ADD28RoundRect,0.250000X0.550000X0.550000X-0.550000X0.550000X-0.550000X-0.550000X0.550000X-0.550000X0*%
%TD*%
%TA.AperFunction,SMDPad,CuDef*%
%ADD29RoundRect,0.237500X0.237500X-0.300000X0.237500X0.300000X-0.237500X0.300000X-0.237500X-0.300000X0*%
%TD*%
%TA.AperFunction,SMDPad,CuDef*%
%ADD30RoundRect,0.237500X-0.300000X-0.237500X0.300000X-0.237500X0.300000X0.237500X-0.300000X0.237500X0*%
%TD*%
%TA.AperFunction,ComponentPad*%
%ADD31R,1.350000X1.350000*%
%TD*%
%TA.AperFunction,ComponentPad*%
%ADD32C,1.350000*%
%TD*%
%TA.AperFunction,ComponentPad*%
%ADD33RoundRect,0.250000X0.550000X-0.550000X0.550000X0.550000X-0.550000X0.550000X-0.550000X-0.550000X0*%
%TD*%
%TA.AperFunction,ComponentPad*%
%ADD34C,1.397000*%
%TD*%
%TA.AperFunction,ComponentPad*%
%ADD35C,2.514600*%
%TD*%
%TA.AperFunction,SMDPad,CuDef*%
%ADD36RoundRect,0.237500X0.250000X0.237500X-0.250000X0.237500X-0.250000X-0.237500X0.250000X-0.237500X0*%
%TD*%
%TA.AperFunction,ComponentPad*%
%ADD37RoundRect,0.250000X-0.550000X0.550000X-0.550000X-0.550000X0.550000X-0.550000X0.550000X0.550000X0*%
%TD*%
%TA.AperFunction,ViaPad*%
%ADD38C,0.600000*%
%TD*%
%TA.AperFunction,Conductor*%
%ADD39C,0.500000*%
%TD*%
%TA.AperFunction,Conductor*%
%ADD40C,1.000000*%
%TD*%
G04 APERTURE END LIST*
D10*
%TO.P,U2,8,V+_8*%
%TO.N,+5V*%
X117927600Y-140730000D03*
%TO.P,U2,7,VOUTB_7*%
%TO.N,/Real Signal Processing 2/s2_out*%
X117927600Y-142000000D03*
%TO.P,U2,6,INB-_6*%
%TO.N,/Real Signal Processing 2/s2_in*%
X117927600Y-143270000D03*
%TO.P,U2,5,INB+_5*%
%TO.N,/+1V25*%
X117927600Y-144540000D03*
%TO.P,U2,4,V-_4*%
%TO.N,GND*%
X113000000Y-144540000D03*
%TO.P,U2,3,INA+_3*%
%TO.N,+2V5*%
X113000000Y-143270000D03*
%TO.P,U2,2,INA-_2*%
%TO.N,/Real Signal Processing 2/s1_in*%
X113000000Y-142000000D03*
%TO.P,U2,1,VOUTA_1*%
%TO.N,/Real Signal Processing 2/s1_out*%
X113000000Y-140730000D03*
%TD*%
D11*
%TO.P,R26,2*%
%TO.N,/Real Signal Processing 1/s2_in*%
X111000000Y-126000000D03*
%TO.P,R26,1*%
%TO.N,/Real Signal Processing 1/s2_out*%
X111000000Y-124175000D03*
%TD*%
D12*
%TO.P,C39,1*%
%TO.N,GND*%
X98050000Y-125175000D03*
D13*
%TO.P,C39,2*%
X98050000Y-127715000D03*
%TD*%
D14*
%TO.P,R22,1*%
%TO.N,/Real Signal Processing 2/s1_in*%
X99000000Y-142000000D03*
%TO.P,R22,2*%
%TO.N,/Real Signal Processing 2/s1_out*%
X100825000Y-142000000D03*
%TD*%
D15*
%TO.P,J1,1,Pin_1_1*%
%TO.N,unconnected-(J1-Pin_1-Pad1)*%
X138000000Y-147860000D03*
D16*
%TO.P,J1,2,Pin_2_2*%
%TO.N,+5V*%
X138000000Y-145320000D03*
%TO.P,J1,3,Pin_3_3*%
%TO.N,GND*%
X138000000Y-142780000D03*
%TO.P,J1,4,Pin_4_4*%
%TO.N,unconnected-(J1-Pin_4-Pad4)*%
X138000000Y-140240000D03*
%TO.P,J1,5,Pin_5_5*%
%TO.N,+3V3*%
X138000000Y-137700000D03*
%TO.P,J1,6,Pin_6_6*%
%TO.N,unconnected-(J1-Pin_6-Pad6)*%
X138000000Y-135160000D03*
%TO.P,J1,7,Pin_7_7*%
%TO.N,unconnected-(J1-Pin_7-Pad7)*%
X138000000Y-132620000D03*
%TO.P,J1,8,Pin_8_8*%
%TO.N,unconnected-(J1-Pin_8-Pad8)*%
X138000000Y-130080000D03*
%TO.P,J1,9,Pin_9_9*%
%TO.N,/output_2*%
X138000000Y-127540000D03*
%TO.P,J1,10,Pin_10_10*%
%TO.N,/output_1*%
X138000000Y-125000000D03*
%TO.P,J1,11*%
%TO.N,N/C*%
X138000000Y-122460000D03*
%TO.P,J1,12*%
X138000000Y-119920000D03*
%TO.P,J1,13*%
X138000000Y-117380000D03*
%TO.P,J1,14*%
X138000000Y-114840000D03*
%TO.P,J1,15*%
X138000000Y-112300000D03*
%TO.P,J1,16*%
X138000000Y-109760000D03*
%TO.P,J1,17*%
X138000000Y-107220000D03*
%TO.P,J1,18*%
X138000000Y-104680000D03*
%TO.P,J1,19*%
X138000000Y-102140000D03*
%TO.P,J1,20*%
X138000000Y-99600000D03*
%TD*%
D10*
%TO.P,U1,1,VOUTA_1*%
%TO.N,/Real Signal Processing 1/s1_out*%
X98122400Y-116999250D03*
%TO.P,U1,2,INA-_2*%
%TO.N,/Real Signal Processing 1/s1_in*%
X98122400Y-118269250D03*
%TO.P,U1,3,INA+_3*%
%TO.N,+2V5*%
X98122400Y-119539250D03*
%TO.P,U1,4,V-_4*%
%TO.N,GND*%
X98122400Y-120809250D03*
%TO.P,U1,5,INB+_5*%
%TO.N,/+1V25*%
X103050000Y-120809250D03*
%TO.P,U1,6,INB-_6*%
%TO.N,/Real Signal Processing 1/s2_in*%
X103050000Y-119539250D03*
%TO.P,U1,7,VOUTB_7*%
%TO.N,/Real Signal Processing 1/s2_out*%
X103050000Y-118269250D03*
%TO.P,U1,8,V+_8*%
%TO.N,+5V*%
X103050000Y-116999250D03*
%TD*%
D12*
%TO.P,C38,1*%
%TO.N,GND*%
X113000000Y-148000000D03*
D13*
%TO.P,C38,2*%
X115540000Y-148000000D03*
%TD*%
D17*
%TO.P,C3,1*%
%TO.N,/+1V25*%
X128480000Y-103934000D03*
%TO.P,C3,2*%
%TO.N,GND*%
X126480000Y-103934000D03*
%TD*%
D18*
%TO.P,C31,1*%
%TO.N,/output_2*%
X133480000Y-138934000D03*
%TO.P,C31,2*%
%TO.N,GND*%
X131755000Y-138934000D03*
%TD*%
D19*
%TO.P,R23,1*%
%TO.N,/Real Signal Processing 1/s2_out*%
X122940000Y-131934000D03*
%TO.P,R23,2*%
%TO.N,/output_1*%
X128020000Y-131934000D03*
%TD*%
D20*
%TO.P,SW2,A,A_A*%
%TO.N,Net-(J7-Pin_4)*%
X88000000Y-106500000D03*
D21*
%TO.P,SW2,B,B_B*%
%TO.N,Net-(J7-Pin_3)*%
X93000000Y-106500000D03*
%TO.P,SW2,C,C_C*%
%TO.N,GND*%
X90500000Y-106500000D03*
D22*
%TO.P,SW2,MP*%
%TO.N,N/C*%
X84900000Y-99000000D03*
X96100000Y-99000000D03*
D21*
%TO.P,SW2,S1,S1_S1*%
%TO.N,unconnected-(SW2-PadS1)*%
X93000000Y-92000000D03*
%TO.P,SW2,S2,S2_S2*%
%TO.N,unconnected-(SW2-PadS2)*%
X88000000Y-92000000D03*
%TD*%
D23*
%TO.P,S1,1*%
%TO.N,+3V3*%
X54000000Y-104000000D03*
D24*
%TO.P,S1,2*%
%TO.N,Net-(J7-Pin_8)*%
X56500000Y-104000000D03*
%TO.P,S1,3*%
%TO.N,GND*%
X59000000Y-104000000D03*
%TD*%
D14*
%TO.P,R20,1*%
%TO.N,Net-(C22-Pad2)*%
X84175000Y-142000000D03*
%TO.P,R20,2*%
%TO.N,/Real Signal Processing 2/ac_coupled*%
X86000000Y-142000000D03*
%TD*%
D19*
%TO.P,R29,1*%
%TO.N,/Real Signal Processing 2/s2_out*%
X129000000Y-135540000D03*
%TO.P,R29,2*%
%TO.N,/output_2*%
X134080000Y-135540000D03*
%TD*%
D20*
%TO.P,SW1,A,A_A*%
%TO.N,Net-(J7-Pin_2)*%
X105000000Y-106500000D03*
D21*
%TO.P,SW1,B,B_B*%
%TO.N,Net-(J7-Pin_1)*%
X110000000Y-106500000D03*
%TO.P,SW1,C,C_C*%
%TO.N,GND*%
X107500000Y-106500000D03*
D22*
%TO.P,SW1,MP*%
%TO.N,N/C*%
X101900000Y-99000000D03*
X113100000Y-99000000D03*
D21*
%TO.P,SW1,S1,S1_S1*%
%TO.N,unconnected-(SW1-PadS1)*%
X110000000Y-92000000D03*
%TO.P,SW1,S2,S2_S2*%
%TO.N,unconnected-(SW1-PadS2)*%
X105000000Y-92000000D03*
%TD*%
D25*
%TO.P,R35,1*%
%TO.N,+3V3*%
X76000000Y-111000000D03*
%TO.P,R35,2*%
%TO.N,Net-(J7-Pin_5)*%
X76000000Y-109000000D03*
%TD*%
D26*
%TO.P,R18,1*%
%TO.N,Net-(C20-Pad2)*%
X76000000Y-131912500D03*
%TO.P,R18,2*%
%TO.N,/Real Signal Processing 1/ac_coupled*%
X76000000Y-130087500D03*
%TD*%
D27*
%TO.P,C29,1*%
%TO.N,/Real Signal Processing 1/s2_out*%
X117000000Y-124175000D03*
%TO.P,C29,2*%
%TO.N,/Real Signal Processing 1/s2_in*%
X117000000Y-125900000D03*
%TD*%
D25*
%TO.P,R31,1*%
%TO.N,+3V3*%
X110000000Y-111000000D03*
%TO.P,R31,2*%
%TO.N,Net-(J7-Pin_1)*%
X110000000Y-109000000D03*
%TD*%
%TO.P,R30,1*%
%TO.N,+3V3*%
X105000000Y-111000000D03*
%TO.P,R30,2*%
%TO.N,Net-(J7-Pin_2)*%
X105000000Y-109000000D03*
%TD*%
D14*
%TO.P,R27,1*%
%TO.N,Net-(C24-Pad2)*%
X116000000Y-134000000D03*
%TO.P,R27,2*%
%TO.N,/Real Signal Processing 2/s2_in*%
X117825000Y-134000000D03*
%TD*%
D28*
%TO.P,D4,1,K_1*%
%TO.N,+5V*%
X96620000Y-146000000D03*
D17*
%TO.P,D4,2,A_2*%
%TO.N,/Real Signal Processing 2/ac_coupled*%
X89000000Y-146000000D03*
%TD*%
D26*
%TO.P,R24,1*%
%TO.N,/Real Signal Processing 1/s1_in*%
X94000000Y-114825000D03*
%TO.P,R24,2*%
%TO.N,/Real Signal Processing 1/s1_out*%
X94000000Y-113000000D03*
%TD*%
D11*
%TO.P,R28,1*%
%TO.N,/Real Signal Processing 2/s2_out*%
X122000000Y-142000000D03*
%TO.P,R28,2*%
%TO.N,/Real Signal Processing 2/s2_in*%
X122000000Y-143825000D03*
%TD*%
D26*
%TO.P,R1,1*%
%TO.N,+5V*%
X132480000Y-115934000D03*
%TO.P,R1,2*%
%TO.N,+2V5*%
X132480000Y-114109000D03*
%TD*%
D12*
%TO.P,C25,1*%
%TO.N,+5V*%
X107000000Y-117000000D03*
D13*
%TO.P,C25,2*%
%TO.N,GND*%
X109540000Y-117000000D03*
%TD*%
D26*
%TO.P,R2,1*%
%TO.N,+2V5*%
X132480000Y-109934000D03*
%TO.P,R2,2*%
%TO.N,/+1V25*%
X132480000Y-108109000D03*
%TD*%
D29*
%TO.P,C27,1*%
%TO.N,/Real Signal Processing 1/s1_in*%
X89000000Y-114825000D03*
%TO.P,C27,2*%
%TO.N,/Real Signal Processing 1/s1_out*%
X89000000Y-113100000D03*
%TD*%
D26*
%TO.P,R3,1*%
%TO.N,/+1V25*%
X132480000Y-103934000D03*
%TO.P,R3,2*%
%TO.N,GND*%
X132480000Y-102109000D03*
%TD*%
D25*
%TO.P,R32,1*%
%TO.N,+3V3*%
X88000000Y-111000000D03*
%TO.P,R32,2*%
%TO.N,Net-(J7-Pin_4)*%
X88000000Y-109000000D03*
%TD*%
%TO.P,R33,1*%
%TO.N,+3V3*%
X93000000Y-111000000D03*
%TO.P,R33,2*%
%TO.N,Net-(J7-Pin_3)*%
X93000000Y-109000000D03*
%TD*%
D30*
%TO.P,C23,1*%
%TO.N,/Real Signal Processing 2/s1_in*%
X99000000Y-137000000D03*
%TO.P,C23,2*%
%TO.N,/Real Signal Processing 2/s1_out*%
X100725000Y-137000000D03*
%TD*%
D12*
%TO.P,C24,1*%
%TO.N,/Real Signal Processing 2/s1_out*%
X108000000Y-137000000D03*
D13*
%TO.P,C24,2*%
%TO.N,Net-(C24-Pad2)*%
X108000000Y-131920000D03*
%TD*%
D12*
%TO.P,C35,1*%
%TO.N,+2V5*%
X93050000Y-125175000D03*
D13*
%TO.P,C35,2*%
%TO.N,GND*%
X93050000Y-127715000D03*
%TD*%
D12*
%TO.P,C20,1*%
%TO.N,/input_1*%
X70095000Y-138000000D03*
D13*
%TO.P,C20,2*%
%TO.N,Net-(C20-Pad2)*%
X75175000Y-138000000D03*
%TD*%
D27*
%TO.P,C30,1*%
%TO.N,/Real Signal Processing 2/s2_out*%
X129000000Y-142000000D03*
%TO.P,C30,2*%
%TO.N,/Real Signal Processing 2/s2_in*%
X129000000Y-143725000D03*
%TD*%
D12*
%TO.P,C37,1*%
%TO.N,/+1V25*%
X103050000Y-125175000D03*
D13*
%TO.P,C37,2*%
%TO.N,GND*%
X103050000Y-127715000D03*
%TD*%
D31*
%TO.P,J2,1,Pin_1_1*%
%TO.N,+5V*%
X128480000Y-115934000D03*
D32*
%TO.P,J2,2,Pin_2_2*%
%TO.N,GND*%
X126480000Y-115934000D03*
%TD*%
D23*
%TO.P,S2,1*%
%TO.N,+3V3*%
X54000000Y-94000000D03*
D24*
%TO.P,S2,2*%
%TO.N,Net-(J7-Pin_7)*%
X56500000Y-94000000D03*
%TO.P,S2,3*%
%TO.N,GND*%
X59000000Y-94000000D03*
%TD*%
D17*
%TO.P,C2,1*%
%TO.N,+2V5*%
X128480000Y-109934000D03*
%TO.P,C2,2*%
%TO.N,GND*%
X126480000Y-109934000D03*
%TD*%
D14*
%TO.P,R19,1*%
%TO.N,/Real Signal Processing 1/ac_coupled*%
X84175000Y-118000000D03*
%TO.P,R19,2*%
%TO.N,/Real Signal Processing 1/s1_in*%
X86000000Y-118000000D03*
%TD*%
D12*
%TO.P,C34,1*%
%TO.N,+2V5*%
X108000000Y-145000000D03*
D13*
%TO.P,C34,2*%
%TO.N,GND*%
X105460000Y-145000000D03*
%TD*%
D12*
%TO.P,C21,1*%
%TO.N,+5V*%
X118000000Y-137000000D03*
D13*
%TO.P,C21,2*%
%TO.N,GND*%
X120540000Y-137000000D03*
%TD*%
D33*
%TO.P,D3,1,K_1*%
%TO.N,+5V*%
X82000000Y-130620000D03*
D17*
%TO.P,D3,2,A_2*%
%TO.N,/Real Signal Processing 1/ac_coupled*%
X82000000Y-123000000D03*
%TD*%
D33*
%TO.P,D6,1,K_1*%
%TO.N,/Real Signal Processing 2/ac_coupled*%
X89000000Y-138000000D03*
D17*
%TO.P,D6,2,A_2*%
%TO.N,GND*%
X89000000Y-130380000D03*
%TD*%
D27*
%TO.P,C26,1*%
%TO.N,/output_1*%
X126000000Y-134000000D03*
%TO.P,C26,2*%
%TO.N,GND*%
X126000000Y-135725000D03*
%TD*%
D28*
%TO.P,C19,1*%
%TO.N,+5V*%
X128480000Y-121934000D03*
D17*
%TO.P,C19,2*%
%TO.N,GND*%
X125980000Y-121934000D03*
%TD*%
D12*
%TO.P,C22,1*%
%TO.N,/input_2*%
X78000000Y-147000000D03*
D13*
%TO.P,C22,2*%
%TO.N,Net-(C22-Pad2)*%
X83080000Y-147000000D03*
%TD*%
D34*
%TO.P,J3,1,IN1_1*%
%TO.N,/input_1*%
X53460000Y-113251750D03*
%TO.P,J3,2,IN2_2*%
%TO.N,/input_2*%
X56000000Y-113251750D03*
%TO.P,J3,3,EXT_3*%
%TO.N,GND*%
X58540000Y-113251750D03*
%TO.P,J3,4*%
%TO.N,N/C*%
X56000000Y-115791750D03*
D35*
%TO.P,J3,5*%
X50920000Y-122141750D03*
%TO.P,J3,6*%
X61080000Y-122141750D03*
%TD*%
D15*
%TO.P,J7,1,Pin_1_1*%
%TO.N,Net-(J7-Pin_1)*%
X157704222Y-147958392D03*
D16*
%TO.P,J7,2,Pin_2_2*%
%TO.N,Net-(J7-Pin_2)*%
X157704222Y-145418392D03*
%TO.P,J7,3,Pin_3_3*%
%TO.N,Net-(J7-Pin_3)*%
X157704222Y-142878392D03*
%TO.P,J7,4,Pin_4_4*%
%TO.N,Net-(J7-Pin_4)*%
X157704222Y-140338392D03*
%TO.P,J7,5,Pin_5_5*%
%TO.N,Net-(J7-Pin_5)*%
X157704222Y-137798392D03*
%TO.P,J7,6,Pin_6_6*%
%TO.N,Net-(J7-Pin_6)*%
X157704222Y-135258392D03*
%TO.P,J7,7,Pin_7_7*%
%TO.N,Net-(J7-Pin_7)*%
X157704222Y-132718392D03*
%TO.P,J7,8,Pin_8_8*%
%TO.N,Net-(J7-Pin_8)*%
X157704222Y-130178392D03*
%TO.P,J7,9*%
%TO.N,N/C*%
X157704222Y-127638392D03*
%TO.P,J7,10*%
X157704222Y-125098392D03*
%TO.P,J7,11*%
X157704222Y-122558392D03*
%TO.P,J7,12*%
X157704222Y-120018392D03*
%TO.P,J7,13*%
X157704222Y-117478392D03*
%TO.P,J7,14*%
X157704222Y-114938392D03*
%TO.P,J7,15*%
X157704222Y-112398392D03*
%TO.P,J7,16*%
X157704222Y-109858392D03*
%TO.P,J7,17*%
X157704222Y-107318392D03*
%TO.P,J7,18*%
X157704222Y-104778392D03*
%TO.P,J7,19*%
X157704222Y-102238392D03*
%TO.P,J7,20*%
X157704222Y-99698392D03*
%TD*%
D36*
%TO.P,R25,1*%
%TO.N,Net-(C28-Pad2)*%
X112912500Y-120000000D03*
%TO.P,R25,2*%
%TO.N,/Real Signal Processing 1/s2_in*%
X111087500Y-120000000D03*
%TD*%
D12*
%TO.P,C36,1*%
%TO.N,/+1V25*%
X120460000Y-148000000D03*
D13*
%TO.P,C36,2*%
%TO.N,GND*%
X123000000Y-148000000D03*
%TD*%
D14*
%TO.P,R21,1*%
%TO.N,/Real Signal Processing 2/ac_coupled*%
X93000000Y-142000000D03*
%TO.P,R21,2*%
%TO.N,/Real Signal Processing 2/s1_in*%
X94825000Y-142000000D03*
%TD*%
D25*
%TO.P,R34,1*%
%TO.N,+3V3*%
X71000000Y-111000000D03*
%TO.P,R34,2*%
%TO.N,Net-(J7-Pin_6)*%
X71000000Y-109000000D03*
%TD*%
D20*
%TO.P,SW3,A,A_A*%
%TO.N,Net-(J7-Pin_6)*%
X71000000Y-106500000D03*
D21*
%TO.P,SW3,B,B_B*%
%TO.N,Net-(J7-Pin_5)*%
X76000000Y-106500000D03*
%TO.P,SW3,C,C_C*%
%TO.N,GND*%
X73500000Y-106500000D03*
D22*
%TO.P,SW3,MP*%
%TO.N,N/C*%
X67900000Y-99000000D03*
X79100000Y-99000000D03*
D21*
%TO.P,SW3,S1,S1_S1*%
%TO.N,unconnected-(SW3-PadS1)*%
X76000000Y-92000000D03*
%TO.P,SW3,S2,S2_S2*%
%TO.N,unconnected-(SW3-PadS2)*%
X71000000Y-92000000D03*
%TD*%
D37*
%TO.P,D5,1,K_1*%
%TO.N,/Real Signal Processing 1/ac_coupled*%
X71000000Y-123000000D03*
D17*
%TO.P,D5,2,A_2*%
%TO.N,GND*%
X71000000Y-130620000D03*
%TD*%
D12*
%TO.P,C28,1*%
%TO.N,/Real Signal Processing 1/s1_out*%
X117000000Y-116000000D03*
D13*
%TO.P,C28,2*%
%TO.N,Net-(C28-Pad2)*%
X117000000Y-121080000D03*
%TD*%
D38*
%TO.N,GND*%
X135000000Y-103000000D03*
X130500000Y-138500000D03*
X127000000Y-137000000D03*
%TO.N,+3V3*%
X108000000Y-111000000D03*
X91000000Y-111000000D03*
X74000000Y-111000000D03*
%TO.N,/Real Signal Processing 1/s2_in*%
X110000000Y-122000000D03*
X108000000Y-127000000D03*
%TO.N,Net-(J7-Pin_4)*%
X151000000Y-97000000D03*
X86000000Y-109000000D03*
%TO.N,Net-(J7-Pin_3)*%
X95000000Y-109000000D03*
X150000000Y-98000000D03*
%TO.N,Net-(J7-Pin_2)*%
X103000000Y-109000000D03*
X149000000Y-99000000D03*
%TO.N,Net-(J7-Pin_1)*%
X148000000Y-100000000D03*
X112000000Y-109000000D03*
%TO.N,Net-(J7-Pin_5)*%
X78000000Y-109000000D03*
X152000000Y-96000000D03*
%TO.N,/Real Signal Processing 2/s2_in*%
X127000000Y-145000000D03*
X127000000Y-140000000D03*
%TO.N,Net-(J7-Pin_6)*%
X69000000Y-109000000D03*
X153000000Y-95000000D03*
%TD*%
%TO.N,GND*%
D39*
X98050000Y-120976650D02*
X98217400Y-120809250D01*
D40*
X132480000Y-102109000D02*
X134109000Y-102109000D01*
X134109000Y-102109000D02*
X135000000Y-103000000D01*
X98050000Y-120881650D02*
X98122400Y-120809250D01*
D39*
X131755000Y-138934000D02*
X130934000Y-138934000D01*
D40*
X113000000Y-148000000D02*
X113000000Y-144540000D01*
D39*
X126000000Y-135725000D02*
X126000000Y-136000000D01*
D40*
X98050000Y-125175000D02*
X98050000Y-120881650D01*
D39*
X126000000Y-136000000D02*
X127000000Y-137000000D01*
X130934000Y-138934000D02*
X130500000Y-138500000D01*
%TO.N,/Real Signal Processing 2/s1_in*%
X97000000Y-142000000D02*
X99000000Y-142000000D01*
X99000000Y-137000000D02*
X99000000Y-142000000D01*
X99000000Y-144000000D02*
X97000000Y-142000000D01*
X101250000Y-144000000D02*
X99000000Y-144000000D01*
X103250000Y-142000000D02*
X101250000Y-144000000D01*
X113000000Y-142000000D02*
X103250000Y-142000000D01*
X97000000Y-142000000D02*
X94825000Y-142000000D01*
%TO.N,/Real Signal Processing 2/s1_out*%
X108000000Y-140730000D02*
X102095000Y-140730000D01*
X102095000Y-140730000D02*
X100825000Y-142000000D01*
X108000000Y-137000000D02*
X108000000Y-140730000D01*
X113000000Y-140730000D02*
X108000000Y-140730000D01*
X100725000Y-137000000D02*
X100825000Y-137100000D01*
X100825000Y-137100000D02*
X100825000Y-142000000D01*
%TO.N,+5V*%
D40*
X118000000Y-140657600D02*
X117927600Y-140730000D01*
X128480000Y-121934000D02*
X128480000Y-115934000D01*
X118000000Y-137000000D02*
X118000000Y-140657600D01*
X107000000Y-117000000D02*
X103050750Y-117000000D01*
X103050750Y-117000000D02*
X103050000Y-116999250D01*
X128480000Y-115934000D02*
X132480000Y-115934000D01*
%TO.N,+3V3*%
D39*
X71000000Y-111000000D02*
X74000000Y-111000000D01*
X74000000Y-111000000D02*
X73985000Y-111015000D01*
X93000000Y-111000000D02*
X91000000Y-111000000D01*
X74000000Y-111000000D02*
X76000000Y-111000000D01*
X105000000Y-111000000D02*
X108000000Y-111000000D01*
X88000000Y-111000000D02*
X91000000Y-111000000D01*
X74000000Y-111000000D02*
X74015000Y-111015000D01*
X108000000Y-111000000D02*
X108015000Y-111015000D01*
X91000000Y-111000000D02*
X91015000Y-111015000D01*
X108000000Y-111000000D02*
X107985000Y-111015000D01*
X108000000Y-111000000D02*
X110000000Y-111000000D01*
%TO.N,/output_2*%
X133480000Y-136140000D02*
X134080000Y-135540000D01*
X133480000Y-138934000D02*
X133480000Y-136140000D01*
X134000000Y-131540000D02*
X138000000Y-127540000D01*
X134000000Y-135460000D02*
X134000000Y-131540000D01*
X134080000Y-135540000D02*
X134000000Y-135460000D01*
%TO.N,/output_1*%
X128020000Y-131934000D02*
X131066000Y-131934000D01*
X131066000Y-131934000D02*
X138000000Y-125000000D01*
X126000000Y-133954000D02*
X128020000Y-131934000D01*
D40*
X128020000Y-131934000D02*
X128020000Y-131980000D01*
D39*
X126000000Y-134000000D02*
X126000000Y-133954000D01*
%TO.N,/Real Signal Processing 1/s1_out*%
X110000000Y-113000000D02*
X99244800Y-113000000D01*
X99244800Y-113000000D02*
X98122400Y-114122400D01*
X94000000Y-113000000D02*
X93900000Y-113100000D01*
X98122400Y-114122400D02*
X98122400Y-116999250D01*
X117000000Y-116000000D02*
X113000000Y-116000000D01*
X94000000Y-113000000D02*
X97000000Y-113000000D01*
X93900000Y-113100000D02*
X89000000Y-113100000D01*
X98122400Y-114122400D02*
X97000000Y-113000000D01*
X113000000Y-116000000D02*
X110000000Y-113000000D01*
%TO.N,/Real Signal Processing 1/s1_in*%
X88000000Y-118000000D02*
X94000000Y-118000000D01*
X97853150Y-118000000D02*
X98122400Y-118269250D01*
X94000000Y-114825000D02*
X89000000Y-114825000D01*
X94000000Y-118000000D02*
X97853150Y-118000000D01*
X86000000Y-118000000D02*
X88000000Y-118000000D01*
X94000000Y-118000000D02*
X94000000Y-114825000D01*
%TO.N,+2V5*%
D40*
X132480000Y-114109000D02*
X132480000Y-109934000D01*
X93050000Y-122000000D02*
X93050000Y-120175000D01*
X93050000Y-125175000D02*
X93050000Y-122000000D01*
X132480000Y-109934000D02*
X128480000Y-109934000D01*
X109730000Y-143270000D02*
X108000000Y-145000000D01*
X109730000Y-143270000D02*
X113000000Y-143270000D01*
X93685750Y-119539250D02*
X98122400Y-119539250D01*
X93050000Y-120175000D02*
X93685750Y-119539250D01*
%TO.N,/+1V25*%
X103050000Y-123000000D02*
X103050000Y-120809250D01*
D39*
X103050000Y-120904250D02*
X103145000Y-120809250D01*
D40*
X132480000Y-103934000D02*
X128480000Y-103934000D01*
X132480000Y-108109000D02*
X132480000Y-103934000D01*
X120460000Y-147072400D02*
X117927600Y-144540000D01*
X103050000Y-125175000D02*
X103050000Y-123000000D01*
X120460000Y-148000000D02*
X120460000Y-147072400D01*
%TO.N,/Real Signal Processing 1/s2_in*%
D39*
X104539250Y-119539250D02*
X103050000Y-119539250D01*
X109000000Y-126000000D02*
X107000000Y-124000000D01*
X108000000Y-127000000D02*
X109000000Y-128000000D01*
X112000000Y-128000000D02*
X113000000Y-127000000D01*
X111087500Y-120912500D02*
X110000000Y-122000000D01*
X109000000Y-128000000D02*
X112000000Y-128000000D01*
X111000000Y-126000000D02*
X109000000Y-126000000D01*
X111087500Y-120000000D02*
X111087500Y-120912500D01*
X107000000Y-124000000D02*
X107000000Y-122000000D01*
X107000000Y-122000000D02*
X104539250Y-119539250D01*
X116900000Y-126000000D02*
X117000000Y-125900000D01*
X111000000Y-126000000D02*
X113000000Y-126000000D01*
X113000000Y-127000000D02*
X113000000Y-126000000D01*
X113000000Y-126000000D02*
X116900000Y-126000000D01*
%TO.N,/Real Signal Processing 1/s2_out*%
X104540600Y-118269250D02*
X108000000Y-121728650D01*
X109175000Y-124175000D02*
X108000000Y-123000000D01*
X103050000Y-118269250D02*
X104540600Y-118269250D01*
X119480000Y-130934000D02*
X120480000Y-131934000D01*
X111000000Y-124175000D02*
X109175000Y-124175000D01*
X108000000Y-121728650D02*
X108000000Y-123000000D01*
X117000000Y-124175000D02*
X118721000Y-124175000D01*
X119480000Y-124934000D02*
X119480000Y-130934000D01*
X118721000Y-124175000D02*
X119480000Y-124934000D01*
X111000000Y-124175000D02*
X117000000Y-124175000D01*
X120480000Y-131934000D02*
X122940000Y-131934000D01*
%TO.N,Net-(J7-Pin_4)*%
X151000000Y-136000000D02*
X151000000Y-97000000D01*
X88000000Y-109000000D02*
X86000000Y-109000000D01*
X155338392Y-140338392D02*
X151000000Y-136000000D01*
X88000000Y-106500000D02*
X88000000Y-109000000D01*
X157704222Y-140338392D02*
X155338392Y-140338392D01*
%TO.N,Net-(J7-Pin_3)*%
X93000000Y-106500000D02*
X93000000Y-109000000D01*
X150000000Y-138000000D02*
X150000000Y-98000000D01*
X157704222Y-142878392D02*
X154878392Y-142878392D01*
X154878392Y-142878392D02*
X150000000Y-138000000D01*
X93000000Y-109000000D02*
X95000000Y-109000000D01*
%TO.N,Net-(J7-Pin_8)*%
X154000000Y-94000000D02*
X155000000Y-95000000D01*
X155000000Y-127500000D02*
X155025830Y-127500000D01*
X155000000Y-95000000D02*
X155000000Y-127500000D01*
X123000000Y-94000000D02*
X154000000Y-94000000D01*
X56500000Y-100500000D02*
X67000000Y-90000000D01*
X155025830Y-127500000D02*
X157704222Y-130178392D01*
X119000000Y-90000000D02*
X123000000Y-94000000D01*
X56500000Y-104000000D02*
X56500000Y-100500000D01*
X67000000Y-90000000D02*
X119000000Y-90000000D01*
%TO.N,Net-(C22-Pad2)*%
X83080000Y-147000000D02*
X83080000Y-143095000D01*
X83080000Y-143095000D02*
X84175000Y-142000000D01*
%TO.N,/Real Signal Processing 2/ac_coupled*%
X89000000Y-142000000D02*
X89000000Y-138000000D01*
X89000000Y-142000000D02*
X93000000Y-142000000D01*
X89000000Y-142000000D02*
X89000000Y-146000000D01*
X86000000Y-142000000D02*
X89000000Y-142000000D01*
%TO.N,/Real Signal Processing 2/s2_out*%
X129000000Y-142000000D02*
X129000000Y-135540000D01*
X129000000Y-142000000D02*
X122000000Y-142000000D01*
X118000000Y-142000000D02*
X122000000Y-142000000D01*
%TO.N,Net-(J7-Pin_2)*%
X105000000Y-106500000D02*
X105000000Y-109000000D01*
X149000000Y-140000000D02*
X154418392Y-145418392D01*
X103013860Y-109013860D02*
X104986140Y-109013860D01*
X149000000Y-99000000D02*
X149000000Y-140000000D01*
X103000000Y-109000000D02*
X103013860Y-109013860D01*
X104986140Y-109013860D02*
X105000000Y-109000000D01*
X154418392Y-145418392D02*
X157704222Y-145418392D01*
%TO.N,Net-(J7-Pin_1)*%
X153958392Y-147958392D02*
X148000000Y-142000000D01*
X110000000Y-106500000D02*
X110000000Y-109000000D01*
X148000000Y-142000000D02*
X148000000Y-100000000D01*
X110000000Y-109000000D02*
X112000000Y-109000000D01*
X157704222Y-147958392D02*
X153958392Y-147958392D01*
%TO.N,Net-(J7-Pin_5)*%
X76000000Y-109000000D02*
X78000000Y-109000000D01*
X155798392Y-137798392D02*
X157704222Y-137798392D01*
X152000000Y-96000000D02*
X152000000Y-134000000D01*
X152000000Y-134000000D02*
X155798392Y-137798392D01*
X76000000Y-106500000D02*
X76000000Y-109000000D01*
%TO.N,Net-(C20-Pad2)*%
X75175000Y-138000000D02*
X76000000Y-137175000D01*
X76000000Y-137175000D02*
X76000000Y-131912500D01*
%TO.N,/Real Signal Processing 1/ac_coupled*%
X76050000Y-119950000D02*
X78000000Y-118000000D01*
X76050000Y-123000000D02*
X76050000Y-119950000D01*
X76050000Y-130350000D02*
X76050000Y-126175000D01*
X71000000Y-123000000D02*
X76050000Y-123000000D01*
X76050000Y-126175000D02*
X76050000Y-123175000D01*
X76050000Y-123175000D02*
X76050000Y-123000000D01*
X84175000Y-118000000D02*
X78000000Y-118000000D01*
X82000000Y-123000000D02*
X76050000Y-123000000D01*
%TO.N,Net-(C24-Pad2)*%
X110920000Y-131920000D02*
X113000000Y-134000000D01*
X113000000Y-134000000D02*
X116000000Y-134000000D01*
X108000000Y-131920000D02*
X110920000Y-131920000D01*
%TO.N,/Real Signal Processing 2/s2_in*%
X119825000Y-143825000D02*
X122000000Y-143825000D01*
X127000000Y-145000000D02*
X126000000Y-146000000D01*
X122000000Y-143825000D02*
X122825000Y-143825000D01*
X126000000Y-146000000D02*
X125000000Y-146000000D01*
X127000000Y-140000000D02*
X127000000Y-139000000D01*
X124000000Y-143725000D02*
X129000000Y-143725000D01*
X118000000Y-143270000D02*
X119270000Y-143270000D01*
X122825000Y-143825000D02*
X122925000Y-143725000D01*
X122000000Y-134000000D02*
X117825000Y-134000000D01*
X122825000Y-143825000D02*
X125000000Y-146000000D01*
X119270000Y-143270000D02*
X119825000Y-143825000D01*
X122925000Y-143725000D02*
X124000000Y-143725000D01*
X127000000Y-139000000D02*
X122000000Y-134000000D01*
%TO.N,/input_1*%
D40*
X65000000Y-109000000D02*
X56000000Y-109000000D01*
X70000000Y-138000000D02*
X67000000Y-135000000D01*
X56000000Y-109000000D02*
X53460000Y-111540000D01*
X67000000Y-135000000D02*
X67000000Y-111000000D01*
X53460000Y-111540000D02*
X53460000Y-113251750D01*
X70095000Y-138000000D02*
X70000000Y-138000000D01*
X67000000Y-111000000D02*
X65000000Y-109000000D01*
%TO.N,Net-(J7-Pin_7)*%
D39*
X160000000Y-94000000D02*
X159000000Y-93000000D01*
X159000000Y-93000000D02*
X124000000Y-93000000D01*
X157704222Y-132718392D02*
X160000000Y-130422614D01*
X124000000Y-93000000D02*
X120000000Y-89000000D01*
X160000000Y-130422614D02*
X160000000Y-94000000D01*
X120000000Y-89000000D02*
X61500000Y-89000000D01*
X61500000Y-89000000D02*
X56500000Y-94000000D01*
%TO.N,/input_2*%
D40*
X56000000Y-113251750D02*
X56000000Y-112000000D01*
X64000000Y-111000000D02*
X65000000Y-112000000D01*
X72000000Y-147000000D02*
X78000000Y-147000000D01*
X56000000Y-112000000D02*
X57000000Y-111000000D01*
X65000000Y-140000000D02*
X72000000Y-147000000D01*
X57000000Y-111000000D02*
X64000000Y-111000000D01*
X65000000Y-112000000D02*
X65000000Y-140000000D01*
%TO.N,Net-(J7-Pin_6)*%
D39*
X157704222Y-135258392D02*
X156258392Y-135258392D01*
X156258392Y-135258392D02*
X153000000Y-132000000D01*
X153000000Y-132000000D02*
X153000000Y-95000000D01*
X71000000Y-106500000D02*
X71000000Y-109000000D01*
X71000000Y-109000000D02*
X69000000Y-109000000D01*
%TO.N,Net-(C28-Pad2)*%
X113992500Y-121080000D02*
X112912500Y-120000000D01*
X117000000Y-121080000D02*
X113992500Y-121080000D01*
%TD*%
M02*
