%TF.GenerationSoftware,KiCad,Pcbnew,10.0.0*%
%TF.CreationDate,2026-05-07T12:36:50-07:00*%
%TF.ProjectId,input_conditioning_r2,696e7075-745f-4636-9f6e-646974696f6e,1*%
%TF.SameCoordinates,Original*%
%TF.FileFunction,Copper,L3,Inr*%
%TF.FilePolarity,Positive*%
%FSLAX46Y46*%
G04 Gerber Fmt 4.6, Leading zero omitted, Abs format (unit mm)*
G04 Created by KiCad (PCBNEW 10.0.0) date 2026-05-07 12:36:50*
%MOMM*%
%LPD*%
G01*
G04 APERTURE LIST*
G04 Aperture macros list*
%AMRoundRect*
0 Rectangle with rounded corners*
0 $1 Rounding radius*
0 $2 $3 $4 $5 $6 $7 $8 $9 X,Y pos of 4 corners*
0 Add a 4 corners polygon primitive as box body*
4,1,4,$2,$3,$4,$5,$6,$7,$8,$9,$2,$3,0*
0 Add four circle primitives for the rounded corners*
1,1,$1+$1,$2,$3*
1,1,$1+$1,$4,$5*
1,1,$1+$1,$6,$7*
1,1,$1+$1,$8,$9*
0 Add four rect primitives between the rounded corners*
20,1,$1+$1,$2,$3,$4,$5,0*
20,1,$1+$1,$4,$5,$6,$7,0*
20,1,$1+$1,$6,$7,$8,$9,0*
20,1,$1+$1,$8,$9,$2,$3,0*%
G04 Aperture macros list end*
%TA.AperFunction,ComponentPad*%
%ADD10R,1.270000X1.270000*%
%TD*%
%TA.AperFunction,ComponentPad*%
%ADD11C,1.270000*%
%TD*%
%TA.AperFunction,ComponentPad*%
%ADD12R,1.700000X1.700000*%
%TD*%
%TA.AperFunction,ComponentPad*%
%ADD13C,1.700000*%
%TD*%
%TA.AperFunction,ComponentPad*%
%ADD14C,1.600000*%
%TD*%
%TA.AperFunction,ComponentPad*%
%ADD15C,1.400000*%
%TD*%
%TA.AperFunction,ComponentPad*%
%ADD16R,2.000000X2.000000*%
%TD*%
%TA.AperFunction,ComponentPad*%
%ADD17C,2.000000*%
%TD*%
%TA.AperFunction,ComponentPad*%
%ADD18R,2.000000X3.200000*%
%TD*%
%TA.AperFunction,ComponentPad*%
%ADD19R,1.408000X1.408000*%
%TD*%
%TA.AperFunction,ComponentPad*%
%ADD20C,1.408000*%
%TD*%
%TA.AperFunction,ComponentPad*%
%ADD21RoundRect,0.250000X0.550000X0.550000X-0.550000X0.550000X-0.550000X-0.550000X0.550000X-0.550000X0*%
%TD*%
%TA.AperFunction,ComponentPad*%
%ADD22R,1.350000X1.350000*%
%TD*%
%TA.AperFunction,ComponentPad*%
%ADD23C,1.350000*%
%TD*%
%TA.AperFunction,ComponentPad*%
%ADD24RoundRect,0.250000X0.550000X-0.550000X0.550000X0.550000X-0.550000X0.550000X-0.550000X-0.550000X0*%
%TD*%
%TA.AperFunction,ComponentPad*%
%ADD25C,1.397000*%
%TD*%
%TA.AperFunction,ComponentPad*%
%ADD26C,2.514600*%
%TD*%
%TA.AperFunction,ComponentPad*%
%ADD27RoundRect,0.250000X-0.550000X0.550000X-0.550000X-0.550000X0.550000X-0.550000X0.550000X0.550000X0*%
%TD*%
%TA.AperFunction,ViaPad*%
%ADD28C,0.600000*%
%TD*%
%TA.AperFunction,Conductor*%
%ADD29C,1.000000*%
%TD*%
G04 APERTURE END LIST*
D10*
%TO.N,GND*%
%TO.C,C39*%
X98050000Y-125175000D03*
D11*
X98050000Y-127715000D03*
%TD*%
D12*
%TO.N,unconnected-(J1-Pin_1-Pad1)*%
%TO.C,J1*%
X138000000Y-147860000D03*
D13*
%TO.N,+5V*%
X138000000Y-145320000D03*
%TO.N,GND*%
X138000000Y-142780000D03*
%TO.N,unconnected-(J1-Pin_4-Pad4)*%
X138000000Y-140240000D03*
%TO.N,+3V3*%
X138000000Y-137700000D03*
%TO.N,unconnected-(J1-Pin_6-Pad6)*%
X138000000Y-135160000D03*
%TO.N,unconnected-(J1-Pin_7-Pad7)*%
X138000000Y-132620000D03*
%TO.N,unconnected-(J1-Pin_8-Pad8)*%
X138000000Y-130080000D03*
%TO.N,/output_2*%
X138000000Y-127540000D03*
%TO.N,/output_1*%
X138000000Y-125000000D03*
%TO.N,N/C*%
X138000000Y-122460000D03*
X138000000Y-119920000D03*
X138000000Y-117380000D03*
X138000000Y-114840000D03*
X138000000Y-112300000D03*
X138000000Y-109760000D03*
X138000000Y-107220000D03*
X138000000Y-104680000D03*
X138000000Y-102140000D03*
X138000000Y-99600000D03*
%TD*%
D10*
%TO.N,GND*%
%TO.C,C38*%
X113000000Y-148000000D03*
D11*
X115540000Y-148000000D03*
%TD*%
D14*
%TO.N,/+1V25*%
%TO.C,C3*%
X128480000Y-103934000D03*
%TO.N,GND*%
X126480000Y-103934000D03*
%TD*%
D15*
%TO.N,/Real Signal Processing 1/s2_out*%
%TO.C,R23*%
X122940000Y-131934000D03*
%TO.N,/output_1*%
X128020000Y-131934000D03*
%TD*%
D16*
%TO.N,Net-(J7-Pin_4)*%
%TO.C,SW2*%
X88000000Y-106500000D03*
D17*
%TO.N,Net-(J7-Pin_3)*%
X93000000Y-106500000D03*
%TO.N,GND*%
X90500000Y-106500000D03*
D18*
%TO.N,N/C*%
X84900000Y-99000000D03*
X96100000Y-99000000D03*
D17*
%TO.N,unconnected-(SW2-PadS1)*%
X93000000Y-92000000D03*
%TO.N,unconnected-(SW2-PadS2)*%
X88000000Y-92000000D03*
%TD*%
D19*
%TO.N,+3V3*%
%TO.C,S1*%
X54000000Y-104000000D03*
D20*
%TO.N,Net-(J7-Pin_8)*%
X56500000Y-104000000D03*
%TO.N,GND*%
X59000000Y-104000000D03*
%TD*%
D15*
%TO.N,/Real Signal Processing 2/s2_out*%
%TO.C,R29*%
X129000000Y-135540000D03*
%TO.N,/output_2*%
X134080000Y-135540000D03*
%TD*%
D16*
%TO.N,Net-(J7-Pin_2)*%
%TO.C,SW1*%
X105000000Y-106500000D03*
D17*
%TO.N,Net-(J7-Pin_1)*%
X110000000Y-106500000D03*
%TO.N,GND*%
X107500000Y-106500000D03*
D18*
%TO.N,N/C*%
X101900000Y-99000000D03*
X113100000Y-99000000D03*
D17*
%TO.N,unconnected-(SW1-PadS1)*%
X110000000Y-92000000D03*
%TO.N,unconnected-(SW1-PadS2)*%
X105000000Y-92000000D03*
%TD*%
D21*
%TO.N,+5V*%
%TO.C,D4*%
X96620000Y-146000000D03*
D14*
%TO.N,/Real Signal Processing 2/ac_coupled*%
X89000000Y-146000000D03*
%TD*%
D10*
%TO.N,+5V*%
%TO.C,C25*%
X107000000Y-117000000D03*
D11*
%TO.N,GND*%
X109540000Y-117000000D03*
%TD*%
D10*
%TO.N,/Real Signal Processing 2/s1_out*%
%TO.C,C24*%
X108000000Y-137000000D03*
D11*
%TO.N,Net-(C24-Pad2)*%
X108000000Y-131920000D03*
%TD*%
D10*
%TO.N,+2V5*%
%TO.C,C35*%
X93050000Y-125175000D03*
D11*
%TO.N,GND*%
X93050000Y-127715000D03*
%TD*%
D10*
%TO.N,/input_1*%
%TO.C,C20*%
X70095000Y-138000000D03*
D11*
%TO.N,Net-(C20-Pad2)*%
X75175000Y-138000000D03*
%TD*%
D10*
%TO.N,/+1V25*%
%TO.C,C37*%
X103050000Y-125175000D03*
D11*
%TO.N,GND*%
X103050000Y-127715000D03*
%TD*%
D22*
%TO.N,+5V*%
%TO.C,J2*%
X128480000Y-115934000D03*
D23*
%TO.N,GND*%
X126480000Y-115934000D03*
%TD*%
D19*
%TO.N,+3V3*%
%TO.C,S2*%
X54000000Y-94000000D03*
D20*
%TO.N,Net-(J7-Pin_7)*%
X56500000Y-94000000D03*
%TO.N,GND*%
X59000000Y-94000000D03*
%TD*%
D14*
%TO.N,+2V5*%
%TO.C,C2*%
X128480000Y-109934000D03*
%TO.N,GND*%
X126480000Y-109934000D03*
%TD*%
D10*
%TO.N,+2V5*%
%TO.C,C34*%
X108000000Y-145000000D03*
D11*
%TO.N,GND*%
X105460000Y-145000000D03*
%TD*%
D10*
%TO.N,+5V*%
%TO.C,C21*%
X118000000Y-137000000D03*
D11*
%TO.N,GND*%
X120540000Y-137000000D03*
%TD*%
D24*
%TO.N,+5V*%
%TO.C,D3*%
X82000000Y-130620000D03*
D14*
%TO.N,/Real Signal Processing 1/ac_coupled*%
X82000000Y-123000000D03*
%TD*%
D24*
%TO.N,/Real Signal Processing 2/ac_coupled*%
%TO.C,D6*%
X89000000Y-138000000D03*
D14*
%TO.N,GND*%
X89000000Y-130380000D03*
%TD*%
D21*
%TO.N,+5V*%
%TO.C,C19*%
X128480000Y-121934000D03*
D14*
%TO.N,GND*%
X125980000Y-121934000D03*
%TD*%
D10*
%TO.N,/input_2*%
%TO.C,C22*%
X78000000Y-147000000D03*
D11*
%TO.N,Net-(C22-Pad2)*%
X83080000Y-147000000D03*
%TD*%
D25*
%TO.N,/input_1*%
%TO.C,J3*%
X53460000Y-113251750D03*
%TO.N,/input_2*%
X56000000Y-113251750D03*
%TO.N,GND*%
X58540000Y-113251750D03*
%TO.N,N/C*%
X56000000Y-115791750D03*
D26*
X50920000Y-122141750D03*
X61080000Y-122141750D03*
%TD*%
D12*
%TO.N,Net-(J7-Pin_1)*%
%TO.C,J7*%
X157704222Y-147958392D03*
D13*
%TO.N,Net-(J7-Pin_2)*%
X157704222Y-145418392D03*
%TO.N,Net-(J7-Pin_3)*%
X157704222Y-142878392D03*
%TO.N,Net-(J7-Pin_4)*%
X157704222Y-140338392D03*
%TO.N,Net-(J7-Pin_5)*%
X157704222Y-137798392D03*
%TO.N,Net-(J7-Pin_6)*%
X157704222Y-135258392D03*
%TO.N,Net-(J7-Pin_7)*%
X157704222Y-132718392D03*
%TO.N,Net-(J7-Pin_8)*%
X157704222Y-130178392D03*
%TO.N,N/C*%
X157704222Y-127638392D03*
X157704222Y-125098392D03*
X157704222Y-122558392D03*
X157704222Y-120018392D03*
X157704222Y-117478392D03*
X157704222Y-114938392D03*
X157704222Y-112398392D03*
X157704222Y-109858392D03*
X157704222Y-107318392D03*
X157704222Y-104778392D03*
X157704222Y-102238392D03*
X157704222Y-99698392D03*
%TD*%
D10*
%TO.N,/+1V25*%
%TO.C,C36*%
X120460000Y-148000000D03*
D11*
%TO.N,GND*%
X123000000Y-148000000D03*
%TD*%
D16*
%TO.N,Net-(J7-Pin_6)*%
%TO.C,SW3*%
X71000000Y-106500000D03*
D17*
%TO.N,Net-(J7-Pin_5)*%
X76000000Y-106500000D03*
%TO.N,GND*%
X73500000Y-106500000D03*
D18*
%TO.N,N/C*%
X67900000Y-99000000D03*
X79100000Y-99000000D03*
D17*
%TO.N,unconnected-(SW3-PadS1)*%
X76000000Y-92000000D03*
%TO.N,unconnected-(SW3-PadS2)*%
X71000000Y-92000000D03*
%TD*%
D27*
%TO.N,/Real Signal Processing 1/ac_coupled*%
%TO.C,D5*%
X71000000Y-123000000D03*
D14*
%TO.N,GND*%
X71000000Y-130620000D03*
%TD*%
D10*
%TO.N,/Real Signal Processing 1/s1_out*%
%TO.C,C28*%
X117000000Y-116000000D03*
D11*
%TO.N,Net-(C28-Pad2)*%
X117000000Y-121080000D03*
%TD*%
D28*
%TO.N,GND*%
X135000000Y-103000000D03*
X130500000Y-138500000D03*
X127000000Y-137000000D03*
%TO.N,+3V3*%
X108000000Y-111000000D03*
X91000000Y-111000000D03*
X74000000Y-111000000D03*
%TO.N,/Real Signal Processing 1/s2_in*%
X110000000Y-122000000D03*
X108000000Y-127000000D03*
%TO.N,Net-(J7-Pin_4)*%
X151000000Y-97000000D03*
X86000000Y-109000000D03*
%TO.N,Net-(J7-Pin_3)*%
X95000000Y-109000000D03*
X150000000Y-98000000D03*
%TO.N,Net-(J7-Pin_2)*%
X103000000Y-109000000D03*
X149000000Y-99000000D03*
%TO.N,Net-(J7-Pin_1)*%
X148000000Y-100000000D03*
X112000000Y-109000000D03*
%TO.N,Net-(J7-Pin_5)*%
X78000000Y-109000000D03*
X152000000Y-96000000D03*
%TO.N,/Real Signal Processing 2/s2_in*%
X127000000Y-145000000D03*
X127000000Y-140000000D03*
%TO.N,Net-(J7-Pin_6)*%
X69000000Y-109000000D03*
X153000000Y-95000000D03*
%TD*%
%TO.N,+3V3*%
D29*
X138000000Y-137700000D02*
X140300000Y-137700000D01*
X140300000Y-137700000D02*
X143000000Y-135000000D01*
X129000000Y-96000000D02*
X114000000Y-111000000D01*
X143000000Y-135000000D02*
X143000000Y-98500000D01*
X143000000Y-98500000D02*
X140500000Y-96000000D01*
X140500000Y-96000000D02*
X129000000Y-96000000D01*
X114000000Y-111000000D02*
X108000000Y-111000000D01*
%TO.N,+5V*%
X138000000Y-145320000D02*
X135680000Y-145320000D01*
X135680000Y-145320000D02*
X135500000Y-145500000D01*
%TO.N,+3V3*%
X54000000Y-104000000D02*
X54000000Y-94000000D01*
X74000000Y-111000000D02*
X59000000Y-111000000D01*
X59000000Y-111000000D02*
X54000000Y-106000000D01*
X54000000Y-106000000D02*
X54000000Y-104000000D01*
X108000000Y-111000000D02*
X91000000Y-111000000D01*
X91000000Y-111000000D02*
X74000000Y-111000000D01*
%TD*%
%TA.AperFunction,Conductor*%
%TO.N,+5V*%
G36*
X52828431Y-112019685D02*
G01*
X52874186Y-112072489D01*
X52884130Y-112141647D01*
X52855105Y-112205203D01*
X52834278Y-112224318D01*
X52831587Y-112226272D01*
X52831587Y-112226273D01*
X52678904Y-112337204D01*
X52678902Y-112337206D01*
X52678901Y-112337206D01*
X52545456Y-112470651D01*
X52545456Y-112470652D01*
X52545454Y-112470654D01*
X52497813Y-112536225D01*
X52434523Y-112623336D01*
X52348844Y-112791491D01*
X52290522Y-112970986D01*
X52261000Y-113157381D01*
X52261000Y-113346118D01*
X52289873Y-113528415D01*
X52290523Y-113532517D01*
X52348843Y-113712006D01*
X52434523Y-113880163D01*
X52545454Y-114032846D01*
X52678904Y-114166296D01*
X52831587Y-114277227D01*
X52999744Y-114362907D01*
X53179233Y-114421227D01*
X53249134Y-114432298D01*
X53365632Y-114450750D01*
X53365637Y-114450750D01*
X53554368Y-114450750D01*
X53657920Y-114434348D01*
X53740767Y-114421227D01*
X53920256Y-114362907D01*
X54088413Y-114277227D01*
X54241096Y-114166296D01*
X54374546Y-114032846D01*
X54485477Y-113880163D01*
X54571157Y-113712006D01*
X54612070Y-113586089D01*
X54651506Y-113528415D01*
X54715865Y-113501217D01*
X54784711Y-113513132D01*
X54836187Y-113560376D01*
X54847928Y-113586086D01*
X54888843Y-113712006D01*
X54974523Y-113880163D01*
X55085454Y-114032846D01*
X55218904Y-114166296D01*
X55371587Y-114277227D01*
X55539744Y-114362907D01*
X55665658Y-114403819D01*
X55723334Y-114443257D01*
X55750532Y-114507615D01*
X55738617Y-114576462D01*
X55691373Y-114627937D01*
X55665660Y-114639680D01*
X55539744Y-114680593D01*
X55539741Y-114680594D01*
X55371586Y-114766273D01*
X55342446Y-114787445D01*
X55218904Y-114877204D01*
X55218902Y-114877206D01*
X55218901Y-114877206D01*
X55085456Y-115010651D01*
X55085456Y-115010652D01*
X55085454Y-115010654D01*
X55083866Y-115012840D01*
X54974523Y-115163336D01*
X54888844Y-115331491D01*
X54830522Y-115510986D01*
X54801000Y-115697381D01*
X54801000Y-115886118D01*
X54823604Y-116028833D01*
X54830523Y-116072517D01*
X54888843Y-116252006D01*
X54974523Y-116420163D01*
X55085454Y-116572846D01*
X55218904Y-116706296D01*
X55371587Y-116817227D01*
X55539744Y-116902907D01*
X55719233Y-116961227D01*
X55789134Y-116972298D01*
X55905632Y-116990750D01*
X55905637Y-116990750D01*
X56094368Y-116990750D01*
X56197920Y-116974348D01*
X56280767Y-116961227D01*
X56460256Y-116902907D01*
X56628413Y-116817227D01*
X56781096Y-116706296D01*
X56914546Y-116572846D01*
X57025477Y-116420163D01*
X57077962Y-116317155D01*
X105865000Y-116317155D01*
X105865000Y-116750000D01*
X106711184Y-116750000D01*
X106695124Y-116766060D01*
X106644964Y-116852939D01*
X106619000Y-116949840D01*
X106619000Y-117050160D01*
X106644964Y-117147061D01*
X106695124Y-117233940D01*
X106711184Y-117250000D01*
X105865000Y-117250000D01*
X105865000Y-117682844D01*
X105871401Y-117742372D01*
X105871403Y-117742379D01*
X105921645Y-117877086D01*
X105921649Y-117877093D01*
X106007809Y-117992187D01*
X106007812Y-117992190D01*
X106122906Y-118078350D01*
X106122913Y-118078354D01*
X106257620Y-118128596D01*
X106257627Y-118128598D01*
X106317155Y-118134999D01*
X106317172Y-118135000D01*
X106750000Y-118135000D01*
X106750000Y-117288816D01*
X106766060Y-117304876D01*
X106852939Y-117355036D01*
X106949840Y-117381000D01*
X107050160Y-117381000D01*
X107147061Y-117355036D01*
X107233940Y-117304876D01*
X107250000Y-117288816D01*
X107250000Y-118135000D01*
X107682828Y-118135000D01*
X107682844Y-118134999D01*
X107742372Y-118128598D01*
X107742379Y-118128596D01*
X107877086Y-118078354D01*
X107877093Y-118078350D01*
X107992187Y-117992190D01*
X107992190Y-117992187D01*
X108078350Y-117877093D01*
X108078354Y-117877086D01*
X108128596Y-117742379D01*
X108128598Y-117742372D01*
X108134999Y-117682844D01*
X108135000Y-117682827D01*
X108135000Y-117250000D01*
X107288816Y-117250000D01*
X107304876Y-117233940D01*
X107355036Y-117147061D01*
X107381000Y-117050160D01*
X107381000Y-116949840D01*
X107370495Y-116910634D01*
X108404500Y-116910634D01*
X108404500Y-117089366D01*
X108406596Y-117102598D01*
X108432460Y-117265898D01*
X108432460Y-117265901D01*
X108487689Y-117435878D01*
X108487691Y-117435881D01*
X108568833Y-117595132D01*
X108673889Y-117739728D01*
X108800272Y-117866111D01*
X108944868Y-117971167D01*
X109104119Y-118052309D01*
X109104121Y-118052310D01*
X109262670Y-118103825D01*
X109274103Y-118107540D01*
X109450634Y-118135500D01*
X109450635Y-118135500D01*
X109629365Y-118135500D01*
X109629366Y-118135500D01*
X109805897Y-118107540D01*
X109805900Y-118107539D01*
X109805901Y-118107539D01*
X109975878Y-118052310D01*
X109975878Y-118052309D01*
X109975881Y-118052309D01*
X110135132Y-117971167D01*
X110279728Y-117866111D01*
X110406111Y-117739728D01*
X110511167Y-117595132D01*
X110592309Y-117435881D01*
X110634875Y-117304876D01*
X110647539Y-117265901D01*
X110647539Y-117265900D01*
X110647540Y-117265897D01*
X110675500Y-117089366D01*
X110675500Y-116910634D01*
X110647540Y-116734103D01*
X110647539Y-116734099D01*
X110647539Y-116734098D01*
X110592310Y-116564121D01*
X110592308Y-116564118D01*
X110585164Y-116550096D01*
X110511167Y-116404868D01*
X110406111Y-116260272D01*
X110279728Y-116133889D01*
X110135132Y-116028833D01*
X109975881Y-115947691D01*
X109975878Y-115947689D01*
X109805899Y-115892460D01*
X109664748Y-115870104D01*
X109629366Y-115864500D01*
X109450634Y-115864500D01*
X109415252Y-115870104D01*
X109274101Y-115892460D01*
X109274098Y-115892460D01*
X109104121Y-115947689D01*
X109104118Y-115947691D01*
X108944867Y-116028833D01*
X108800270Y-116133890D01*
X108673890Y-116260270D01*
X108568833Y-116404867D01*
X108487691Y-116564118D01*
X108487689Y-116564121D01*
X108432460Y-116734098D01*
X108432460Y-116734101D01*
X108413930Y-116851093D01*
X108404500Y-116910634D01*
X107370495Y-116910634D01*
X107355036Y-116852939D01*
X107304876Y-116766060D01*
X107288816Y-116750000D01*
X108135000Y-116750000D01*
X108135000Y-116317172D01*
X108134999Y-116317155D01*
X108128598Y-116257627D01*
X108128596Y-116257620D01*
X108078354Y-116122913D01*
X108078350Y-116122906D01*
X107992190Y-116007812D01*
X107992187Y-116007809D01*
X107877093Y-115921649D01*
X107877086Y-115921645D01*
X107742379Y-115871403D01*
X107742372Y-115871401D01*
X107682844Y-115865000D01*
X107250000Y-115865000D01*
X107250000Y-116711184D01*
X107233940Y-116695124D01*
X107147061Y-116644964D01*
X107050160Y-116619000D01*
X106949840Y-116619000D01*
X106852939Y-116644964D01*
X106766060Y-116695124D01*
X106750000Y-116711184D01*
X106750000Y-115865000D01*
X106317155Y-115865000D01*
X106257627Y-115871401D01*
X106257620Y-115871403D01*
X106122913Y-115921645D01*
X106122906Y-115921649D01*
X106007812Y-116007809D01*
X106007809Y-116007812D01*
X105921649Y-116122906D01*
X105921645Y-116122913D01*
X105871403Y-116257620D01*
X105871401Y-116257627D01*
X105865000Y-116317155D01*
X57077962Y-116317155D01*
X57111157Y-116252006D01*
X57169477Y-116072517D01*
X57189247Y-115947691D01*
X57199000Y-115886118D01*
X57199000Y-115697381D01*
X57177440Y-115561259D01*
X57169477Y-115510983D01*
X57111157Y-115331494D01*
X57111155Y-115331491D01*
X57111155Y-115331489D01*
X57103841Y-115317135D01*
X115864500Y-115317135D01*
X115864500Y-116682870D01*
X115864501Y-116682876D01*
X115870908Y-116742483D01*
X115921202Y-116877328D01*
X115921206Y-116877335D01*
X116007452Y-116992544D01*
X116007455Y-116992547D01*
X116122664Y-117078793D01*
X116122671Y-117078797D01*
X116257517Y-117129091D01*
X116257516Y-117129091D01*
X116264444Y-117129835D01*
X116317127Y-117135500D01*
X117682872Y-117135499D01*
X117742483Y-117129091D01*
X117877331Y-117078796D01*
X117992546Y-116992546D01*
X118078796Y-116877331D01*
X118129091Y-116742483D01*
X118135500Y-116682873D01*
X118135499Y-115841486D01*
X125304500Y-115841486D01*
X125304500Y-116026513D01*
X125333445Y-116209265D01*
X125390619Y-116385232D01*
X125390620Y-116385235D01*
X125474622Y-116550096D01*
X125583379Y-116699787D01*
X125714213Y-116830621D01*
X125863904Y-116939378D01*
X125944763Y-116980577D01*
X126028764Y-117023379D01*
X126028767Y-117023380D01*
X126111189Y-117050160D01*
X126204736Y-117080555D01*
X126387486Y-117109500D01*
X126387487Y-117109500D01*
X126572513Y-117109500D01*
X126572514Y-117109500D01*
X126755264Y-117080555D01*
X126931235Y-117023379D01*
X127096096Y-116939378D01*
X127212013Y-116855158D01*
X127277816Y-116831680D01*
X127345870Y-116847505D01*
X127384162Y-116881166D01*
X127447812Y-116966190D01*
X127562906Y-117052350D01*
X127562913Y-117052354D01*
X127697620Y-117102596D01*
X127697627Y-117102598D01*
X127757155Y-117108999D01*
X127757172Y-117109000D01*
X128230000Y-117109000D01*
X128230000Y-116249686D01*
X128234394Y-116254080D01*
X128325606Y-116306741D01*
X128427339Y-116334000D01*
X128532661Y-116334000D01*
X128634394Y-116306741D01*
X128725606Y-116254080D01*
X128730000Y-116249686D01*
X128730000Y-117109000D01*
X129202828Y-117109000D01*
X129202844Y-117108999D01*
X129262372Y-117102598D01*
X129262379Y-117102596D01*
X129397086Y-117052354D01*
X129397093Y-117052350D01*
X129512187Y-116966190D01*
X129512190Y-116966187D01*
X129598350Y-116851093D01*
X129598354Y-116851086D01*
X129648596Y-116716379D01*
X129648598Y-116716372D01*
X129654999Y-116656844D01*
X129655000Y-116656827D01*
X129655000Y-116184000D01*
X128795686Y-116184000D01*
X128800080Y-116179606D01*
X128852741Y-116088394D01*
X128880000Y-115986661D01*
X128880000Y-115881339D01*
X128852741Y-115779606D01*
X128800080Y-115688394D01*
X128795686Y-115684000D01*
X129655000Y-115684000D01*
X129655000Y-115211172D01*
X129654999Y-115211155D01*
X129648598Y-115151627D01*
X129648596Y-115151620D01*
X129598354Y-115016913D01*
X129598350Y-115016906D01*
X129512190Y-114901812D01*
X129512187Y-114901809D01*
X129397093Y-114815649D01*
X129397086Y-114815645D01*
X129262379Y-114765403D01*
X129262372Y-114765401D01*
X129202844Y-114759000D01*
X128730000Y-114759000D01*
X128730000Y-115618314D01*
X128725606Y-115613920D01*
X128634394Y-115561259D01*
X128532661Y-115534000D01*
X128427339Y-115534000D01*
X128325606Y-115561259D01*
X128234394Y-115613920D01*
X128230000Y-115618314D01*
X128230000Y-114759000D01*
X127757155Y-114759000D01*
X127697627Y-114765401D01*
X127697620Y-114765403D01*
X127562913Y-114815645D01*
X127562906Y-114815649D01*
X127447813Y-114901809D01*
X127384164Y-114986833D01*
X127328230Y-115028704D01*
X127258538Y-115033688D01*
X127212013Y-115012841D01*
X127096096Y-114928622D01*
X127081541Y-114921206D01*
X126931235Y-114844620D01*
X126931232Y-114844619D01*
X126755265Y-114787445D01*
X126616097Y-114765403D01*
X126572514Y-114758500D01*
X126387486Y-114758500D01*
X126343915Y-114765401D01*
X126204734Y-114787445D01*
X126028767Y-114844619D01*
X126028764Y-114844620D01*
X125863903Y-114928622D01*
X125778499Y-114990672D01*
X125714213Y-115037379D01*
X125714211Y-115037381D01*
X125714210Y-115037381D01*
X125583381Y-115168210D01*
X125583381Y-115168211D01*
X125583379Y-115168213D01*
X125536672Y-115232499D01*
X125474622Y-115317903D01*
X125390620Y-115482764D01*
X125390619Y-115482767D01*
X125333445Y-115658734D01*
X125304500Y-115841486D01*
X118135499Y-115841486D01*
X118135499Y-115317128D01*
X118129091Y-115257517D01*
X118111805Y-115211172D01*
X118078797Y-115122671D01*
X118078793Y-115122664D01*
X117992547Y-115007455D01*
X117992544Y-115007452D01*
X117877335Y-114921206D01*
X117877328Y-114921202D01*
X117742482Y-114870908D01*
X117742483Y-114870908D01*
X117682883Y-114864501D01*
X117682881Y-114864500D01*
X117682873Y-114864500D01*
X117682864Y-114864500D01*
X116317129Y-114864500D01*
X116317123Y-114864501D01*
X116257516Y-114870908D01*
X116122671Y-114921202D01*
X116122664Y-114921206D01*
X116007455Y-115007452D01*
X116007452Y-115007455D01*
X115921206Y-115122664D01*
X115921202Y-115122671D01*
X115870908Y-115257517D01*
X115864501Y-115317116D01*
X115864501Y-115317123D01*
X115864500Y-115317135D01*
X57103841Y-115317135D01*
X57027960Y-115168211D01*
X57025477Y-115163337D01*
X56914546Y-115010654D01*
X56781096Y-114877204D01*
X56628413Y-114766273D01*
X56460256Y-114680593D01*
X56334339Y-114639679D01*
X56276665Y-114600244D01*
X56249467Y-114535885D01*
X56261382Y-114467039D01*
X56308626Y-114415563D01*
X56334336Y-114403821D01*
X56460256Y-114362907D01*
X56628413Y-114277227D01*
X56781096Y-114166296D01*
X56914546Y-114032846D01*
X57025477Y-113880163D01*
X57111157Y-113712006D01*
X57152070Y-113586089D01*
X57191506Y-113528415D01*
X57255865Y-113501217D01*
X57324711Y-113513132D01*
X57376187Y-113560376D01*
X57387928Y-113586086D01*
X57428843Y-113712006D01*
X57514523Y-113880163D01*
X57625454Y-114032846D01*
X57758904Y-114166296D01*
X57911587Y-114277227D01*
X58079744Y-114362907D01*
X58259233Y-114421227D01*
X58329134Y-114432298D01*
X58445632Y-114450750D01*
X58445637Y-114450750D01*
X58634368Y-114450750D01*
X58737920Y-114434348D01*
X58820767Y-114421227D01*
X59000256Y-114362907D01*
X59168413Y-114277227D01*
X59321096Y-114166296D01*
X59454546Y-114032846D01*
X59565477Y-113880163D01*
X59651157Y-113712006D01*
X59709477Y-113532517D01*
X59722598Y-113449670D01*
X59739000Y-113346118D01*
X59739000Y-113157381D01*
X59719318Y-113033117D01*
X59709477Y-112970983D01*
X59651157Y-112791494D01*
X59565477Y-112623337D01*
X59454546Y-112470654D01*
X59321096Y-112337204D01*
X59168413Y-112226273D01*
X59168411Y-112226272D01*
X59166410Y-112224818D01*
X59123745Y-112169488D01*
X59117766Y-112099874D01*
X59150372Y-112038079D01*
X59211211Y-112003722D01*
X59239296Y-112000500D01*
X114099531Y-112000500D01*
X114109709Y-112000000D01*
X136376000Y-112000000D01*
X136443039Y-112019685D01*
X136488794Y-112072489D01*
X136500000Y-112124000D01*
X136500000Y-149876000D01*
X136480315Y-149943039D01*
X136427511Y-149988794D01*
X136376000Y-150000000D01*
X49124000Y-150000000D01*
X49056961Y-149980315D01*
X49011206Y-149927511D01*
X49000000Y-149876000D01*
X49000000Y-146317135D01*
X76864500Y-146317135D01*
X76864500Y-147682870D01*
X76864501Y-147682876D01*
X76870908Y-147742483D01*
X76921202Y-147877328D01*
X76921206Y-147877335D01*
X77007452Y-147992544D01*
X77007455Y-147992547D01*
X77122664Y-148078793D01*
X77122671Y-148078797D01*
X77257517Y-148129091D01*
X77257516Y-148129091D01*
X77264444Y-148129835D01*
X77317127Y-148135500D01*
X78682872Y-148135499D01*
X78742483Y-148129091D01*
X78877331Y-148078796D01*
X78992546Y-147992546D01*
X79078796Y-147877331D01*
X79129091Y-147742483D01*
X79135500Y-147682873D01*
X79135499Y-146910634D01*
X81944500Y-146910634D01*
X81944500Y-147089365D01*
X81972460Y-147265898D01*
X81972460Y-147265901D01*
X82027689Y-147435878D01*
X82027691Y-147435881D01*
X82108833Y-147595132D01*
X82213889Y-147739728D01*
X82340272Y-147866111D01*
X82484868Y-147971167D01*
X82644119Y-148052309D01*
X82644121Y-148052310D01*
X82758166Y-148089365D01*
X82814103Y-148107540D01*
X82990634Y-148135500D01*
X82990635Y-148135500D01*
X83169365Y-148135500D01*
X83169366Y-148135500D01*
X83345897Y-148107540D01*
X83345900Y-148107539D01*
X83345901Y-148107539D01*
X83515878Y-148052310D01*
X83515878Y-148052309D01*
X83515881Y-148052309D01*
X83675132Y-147971167D01*
X83819728Y-147866111D01*
X83946111Y-147739728D01*
X84051167Y-147595132D01*
X84132309Y-147435881D01*
X84142387Y-147404863D01*
X84170892Y-147317135D01*
X111864500Y-147317135D01*
X111864500Y-148682870D01*
X111864501Y-148682876D01*
X111870908Y-148742483D01*
X111921202Y-148877328D01*
X111921206Y-148877335D01*
X112007452Y-148992544D01*
X112007455Y-148992547D01*
X112122664Y-149078793D01*
X112122671Y-149078797D01*
X112257517Y-149129091D01*
X112257516Y-149129091D01*
X112264444Y-149129835D01*
X112317127Y-149135500D01*
X113682872Y-149135499D01*
X113742483Y-149129091D01*
X113877331Y-149078796D01*
X113992546Y-148992546D01*
X114078796Y-148877331D01*
X114129091Y-148742483D01*
X114135500Y-148682873D01*
X114135499Y-147910634D01*
X114404500Y-147910634D01*
X114404500Y-148089365D01*
X114432460Y-148265898D01*
X114432460Y-148265901D01*
X114487689Y-148435878D01*
X114487691Y-148435881D01*
X114568833Y-148595132D01*
X114673889Y-148739728D01*
X114800272Y-148866111D01*
X114944868Y-148971167D01*
X115104119Y-149052309D01*
X115104121Y-149052310D01*
X115226682Y-149092132D01*
X115274103Y-149107540D01*
X115450634Y-149135500D01*
X115450635Y-149135500D01*
X115629365Y-149135500D01*
X115629366Y-149135500D01*
X115805897Y-149107540D01*
X115805900Y-149107539D01*
X115805901Y-149107539D01*
X115975878Y-149052310D01*
X115975878Y-149052309D01*
X115975881Y-149052309D01*
X116135132Y-148971167D01*
X116279728Y-148866111D01*
X116406111Y-148739728D01*
X116511167Y-148595132D01*
X116592309Y-148435881D01*
X116647540Y-148265897D01*
X116675500Y-148089366D01*
X116675500Y-147910634D01*
X116647540Y-147734103D01*
X116647539Y-147734099D01*
X116647539Y-147734098D01*
X116592310Y-147564121D01*
X116592308Y-147564118D01*
X116526968Y-147435881D01*
X116511167Y-147404868D01*
X116511165Y-147404865D01*
X116511164Y-147404863D01*
X116497964Y-147386695D01*
X116497961Y-147386692D01*
X116447425Y-147317135D01*
X119324500Y-147317135D01*
X119324500Y-148682870D01*
X119324501Y-148682876D01*
X119330908Y-148742483D01*
X119381202Y-148877328D01*
X119381206Y-148877335D01*
X119467452Y-148992544D01*
X119467455Y-148992547D01*
X119582664Y-149078793D01*
X119582671Y-149078797D01*
X119717517Y-149129091D01*
X119717516Y-149129091D01*
X119724444Y-149129835D01*
X119777127Y-149135500D01*
X121142872Y-149135499D01*
X121202483Y-149129091D01*
X121337331Y-149078796D01*
X121452546Y-148992546D01*
X121538796Y-148877331D01*
X121589091Y-148742483D01*
X121595500Y-148682873D01*
X121595499Y-147910634D01*
X121864500Y-147910634D01*
X121864500Y-148089365D01*
X121892460Y-148265898D01*
X121892460Y-148265901D01*
X121947689Y-148435878D01*
X121947691Y-148435881D01*
X122028833Y-148595132D01*
X122133889Y-148739728D01*
X122260272Y-148866111D01*
X122404868Y-148971167D01*
X122564119Y-149052309D01*
X122564121Y-149052310D01*
X122686682Y-149092132D01*
X122734103Y-149107540D01*
X122910634Y-149135500D01*
X122910635Y-149135500D01*
X123089365Y-149135500D01*
X123089366Y-149135500D01*
X123265897Y-149107540D01*
X123265900Y-149107539D01*
X123265901Y-149107539D01*
X123435878Y-149052310D01*
X123435878Y-149052309D01*
X123435881Y-149052309D01*
X123595132Y-148971167D01*
X123739728Y-148866111D01*
X123866111Y-148739728D01*
X123971167Y-148595132D01*
X124052309Y-148435881D01*
X124107540Y-148265897D01*
X124135500Y-148089366D01*
X124135500Y-147910634D01*
X124107540Y-147734103D01*
X124107539Y-147734099D01*
X124107539Y-147734098D01*
X124052310Y-147564121D01*
X124052308Y-147564118D01*
X123986969Y-147435881D01*
X123971167Y-147404868D01*
X123866111Y-147260272D01*
X123739728Y-147133889D01*
X123595132Y-147028833D01*
X123435881Y-146947691D01*
X123435878Y-146947689D01*
X123265899Y-146892460D01*
X123129824Y-146870908D01*
X123089366Y-146864500D01*
X122910634Y-146864500D01*
X122870176Y-146870908D01*
X122734101Y-146892460D01*
X122734098Y-146892460D01*
X122564121Y-146947689D01*
X122564118Y-146947691D01*
X122404867Y-147028833D01*
X122260270Y-147133890D01*
X122133890Y-147260270D01*
X122028833Y-147404867D01*
X121947691Y-147564118D01*
X121947689Y-147564121D01*
X121892460Y-147734098D01*
X121892460Y-147734101D01*
X121864500Y-147910634D01*
X121595499Y-147910634D01*
X121595499Y-147317128D01*
X121589091Y-147257517D01*
X121580453Y-147234358D01*
X121538797Y-147122671D01*
X121538793Y-147122664D01*
X121452547Y-147007455D01*
X121452544Y-147007452D01*
X121337335Y-146921206D01*
X121337328Y-146921202D01*
X121202482Y-146870908D01*
X121202483Y-146870908D01*
X121142883Y-146864501D01*
X121142881Y-146864500D01*
X121142873Y-146864500D01*
X121142864Y-146864500D01*
X119777129Y-146864500D01*
X119777123Y-146864501D01*
X119717516Y-146870908D01*
X119582671Y-146921202D01*
X119582664Y-146921206D01*
X119467455Y-147007452D01*
X119467452Y-147007455D01*
X119381206Y-147122664D01*
X119381202Y-147122671D01*
X119330908Y-147257517D01*
X119324501Y-147317116D01*
X119324501Y-147317123D01*
X119324500Y-147317135D01*
X116447425Y-147317135D01*
X116406111Y-147260272D01*
X116279728Y-147133889D01*
X116135132Y-147028833D01*
X115975881Y-146947691D01*
X115975878Y-146947689D01*
X115805899Y-146892460D01*
X115669824Y-146870908D01*
X115629366Y-146864500D01*
X115450634Y-146864500D01*
X115410176Y-146870908D01*
X115274101Y-146892460D01*
X115274098Y-146892460D01*
X115104121Y-146947689D01*
X115104118Y-146947691D01*
X114944867Y-147028833D01*
X114800270Y-147133890D01*
X114673890Y-147260270D01*
X114568833Y-147404867D01*
X114487691Y-147564118D01*
X114487689Y-147564121D01*
X114432460Y-147734098D01*
X114432460Y-147734101D01*
X114404500Y-147910634D01*
X114135499Y-147910634D01*
X114135499Y-147317128D01*
X114129091Y-147257517D01*
X114120453Y-147234358D01*
X114078797Y-147122671D01*
X114078793Y-147122664D01*
X113992547Y-147007455D01*
X113992544Y-147007452D01*
X113877335Y-146921206D01*
X113877328Y-146921202D01*
X113742482Y-146870908D01*
X113742483Y-146870908D01*
X113682883Y-146864501D01*
X113682881Y-146864500D01*
X113682873Y-146864500D01*
X113682864Y-146864500D01*
X112317129Y-146864500D01*
X112317123Y-146864501D01*
X112257516Y-146870908D01*
X112122671Y-146921202D01*
X112122664Y-146921206D01*
X112007455Y-147007452D01*
X112007452Y-147007455D01*
X111921206Y-147122664D01*
X111921202Y-147122671D01*
X111870908Y-147257517D01*
X111864501Y-147317116D01*
X111864501Y-147317123D01*
X111864500Y-147317135D01*
X84170892Y-147317135D01*
X84187539Y-147265901D01*
X84187539Y-147265900D01*
X84187540Y-147265897D01*
X84215500Y-147089366D01*
X84215500Y-146910634D01*
X84187540Y-146734103D01*
X84187539Y-146734099D01*
X84187539Y-146734098D01*
X84132310Y-146564121D01*
X84132308Y-146564118D01*
X84107745Y-146515909D01*
X84051167Y-146404868D01*
X83946111Y-146260272D01*
X83819728Y-146133889D01*
X83675132Y-146028833D01*
X83603910Y-145992544D01*
X83515881Y-145947691D01*
X83515878Y-145947689D01*
X83361866Y-145897648D01*
X87699500Y-145897648D01*
X87699500Y-146102351D01*
X87731522Y-146304534D01*
X87794781Y-146499223D01*
X87887715Y-146681613D01*
X88008028Y-146847213D01*
X88152786Y-146991971D01*
X88307749Y-147104556D01*
X88318390Y-147112287D01*
X88434607Y-147171503D01*
X88500776Y-147205218D01*
X88500778Y-147205218D01*
X88500781Y-147205220D01*
X88590459Y-147234358D01*
X88695465Y-147268477D01*
X88726636Y-147273414D01*
X88897648Y-147300500D01*
X88897649Y-147300500D01*
X89102351Y-147300500D01*
X89102352Y-147300500D01*
X89304534Y-147268477D01*
X89499219Y-147205220D01*
X89681610Y-147112287D01*
X89796476Y-147028833D01*
X89847213Y-146991971D01*
X89847215Y-146991968D01*
X89847219Y-146991966D01*
X89991966Y-146847219D01*
X89991968Y-146847215D01*
X89991971Y-146847213D01*
X90074150Y-146734101D01*
X90112287Y-146681610D01*
X90205220Y-146499219D01*
X90268477Y-146304534D01*
X90275924Y-146257516D01*
X90288322Y-146179240D01*
X90300500Y-146102351D01*
X90300500Y-145897648D01*
X90268477Y-145695465D01*
X90237458Y-145600000D01*
X90205220Y-145500781D01*
X90205217Y-145500777D01*
X90205217Y-145500774D01*
X90180956Y-145453160D01*
X90180955Y-145453159D01*
X90153876Y-145400013D01*
X95320000Y-145400013D01*
X95320000Y-145750000D01*
X96304314Y-145750000D01*
X96299920Y-145754394D01*
X96247259Y-145845606D01*
X96220000Y-145947339D01*
X96220000Y-146052661D01*
X96247259Y-146154394D01*
X96299920Y-146245606D01*
X96304314Y-146250000D01*
X95320001Y-146250000D01*
X95320001Y-146599986D01*
X95330494Y-146702697D01*
X95385641Y-146869119D01*
X95385643Y-146869124D01*
X95477684Y-147018345D01*
X95601654Y-147142315D01*
X95750875Y-147234356D01*
X95750880Y-147234358D01*
X95917302Y-147289505D01*
X95917309Y-147289506D01*
X96020019Y-147299999D01*
X96369999Y-147299999D01*
X96370000Y-147299998D01*
X96370000Y-146315686D01*
X96374394Y-146320080D01*
X96465606Y-146372741D01*
X96567339Y-146400000D01*
X96672661Y-146400000D01*
X96774394Y-146372741D01*
X96865606Y-146320080D01*
X96870000Y-146315686D01*
X96870000Y-147299999D01*
X97219972Y-147299999D01*
X97219986Y-147299998D01*
X97322697Y-147289505D01*
X97489119Y-147234358D01*
X97489130Y-147234353D01*
X97531416Y-147208270D01*
X97531421Y-147208267D01*
X97638345Y-147142315D01*
X97762315Y-147018345D01*
X97854356Y-146869124D01*
X97854358Y-146869119D01*
X97909505Y-146702697D01*
X97909506Y-146702690D01*
X97919999Y-146599986D01*
X97920000Y-146599973D01*
X97920000Y-146250000D01*
X96935686Y-146250000D01*
X96940080Y-146245606D01*
X96992741Y-146154394D01*
X97020000Y-146052661D01*
X97020000Y-145947339D01*
X96992741Y-145845606D01*
X96940080Y-145754394D01*
X96935686Y-145750000D01*
X97919999Y-145750000D01*
X97919999Y-145400028D01*
X97919998Y-145400013D01*
X97909505Y-145297302D01*
X97854358Y-145130880D01*
X97854356Y-145130875D01*
X97762316Y-144981655D01*
X97691295Y-144910634D01*
X104324500Y-144910634D01*
X104324500Y-145089366D01*
X104331075Y-145130880D01*
X104352460Y-145265898D01*
X104352460Y-145265901D01*
X104407689Y-145435878D01*
X104407691Y-145435881D01*
X104488833Y-145595132D01*
X104593889Y-145739728D01*
X104720272Y-145866111D01*
X104864868Y-145971167D01*
X105024119Y-146052309D01*
X105024121Y-146052310D01*
X105178133Y-146102351D01*
X105194103Y-146107540D01*
X105370634Y-146135500D01*
X105370635Y-146135500D01*
X105549365Y-146135500D01*
X105549366Y-146135500D01*
X105725897Y-146107540D01*
X105725900Y-146107539D01*
X105725901Y-146107539D01*
X105895878Y-146052310D01*
X105895878Y-146052309D01*
X105895881Y-146052309D01*
X106055132Y-145971167D01*
X106199728Y-145866111D01*
X106326111Y-145739728D01*
X106431167Y-145595132D01*
X106512309Y-145435881D01*
X106550484Y-145318390D01*
X106567539Y-145265901D01*
X106567539Y-145265900D01*
X106567540Y-145265897D01*
X106595500Y-145089366D01*
X106595500Y-144910634D01*
X106567540Y-144734103D01*
X106567539Y-144734099D01*
X106567539Y-144734098D01*
X106512310Y-144564121D01*
X106512308Y-144564118D01*
X106431164Y-144404863D01*
X106417964Y-144386695D01*
X106417961Y-144386692D01*
X106411799Y-144378211D01*
X106367425Y-144317135D01*
X106864500Y-144317135D01*
X106864500Y-145682870D01*
X106864501Y-145682876D01*
X106870908Y-145742483D01*
X106921202Y-145877328D01*
X106921206Y-145877335D01*
X107007452Y-145992544D01*
X107007455Y-145992547D01*
X107122664Y-146078793D01*
X107122671Y-146078797D01*
X107257517Y-146129091D01*
X107257516Y-146129091D01*
X107264444Y-146129835D01*
X107317127Y-146135500D01*
X108682872Y-146135499D01*
X108742483Y-146129091D01*
X108877331Y-146078796D01*
X108992546Y-145992546D01*
X109078796Y-145877331D01*
X109129091Y-145742483D01*
X109135500Y-145682873D01*
X109135499Y-144921153D01*
X126199500Y-144921153D01*
X126199500Y-145078846D01*
X126230261Y-145233489D01*
X126230264Y-145233501D01*
X126290602Y-145379172D01*
X126290609Y-145379185D01*
X126378210Y-145510288D01*
X126378213Y-145510292D01*
X126489707Y-145621786D01*
X126489711Y-145621789D01*
X126620814Y-145709390D01*
X126620827Y-145709397D01*
X126718853Y-145750000D01*
X126766503Y-145769737D01*
X126921153Y-145800499D01*
X126921156Y-145800500D01*
X126921158Y-145800500D01*
X127078844Y-145800500D01*
X127078845Y-145800499D01*
X127233497Y-145769737D01*
X127379179Y-145709394D01*
X127510289Y-145621789D01*
X127621789Y-145510289D01*
X127709394Y-145379179D01*
X127769737Y-145233497D01*
X127800500Y-145078842D01*
X127800500Y-144921158D01*
X127800500Y-144921155D01*
X127800499Y-144921153D01*
X127775362Y-144794781D01*
X127769737Y-144766503D01*
X127755248Y-144731522D01*
X127709397Y-144620827D01*
X127709390Y-144620814D01*
X127621789Y-144489711D01*
X127621786Y-144489707D01*
X127510292Y-144378213D01*
X127510288Y-144378210D01*
X127379185Y-144290609D01*
X127379172Y-144290602D01*
X127233501Y-144230264D01*
X127233489Y-144230261D01*
X127078845Y-144199500D01*
X127078842Y-144199500D01*
X126921158Y-144199500D01*
X126921155Y-144199500D01*
X126766510Y-144230261D01*
X126766498Y-144230264D01*
X126620827Y-144290602D01*
X126620814Y-144290609D01*
X126489711Y-144378210D01*
X126489707Y-144378213D01*
X126378213Y-144489707D01*
X126378210Y-144489711D01*
X126290609Y-144620814D01*
X126290602Y-144620827D01*
X126230264Y-144766498D01*
X126230261Y-144766510D01*
X126199500Y-144921153D01*
X109135499Y-144921153D01*
X109135499Y-144317128D01*
X109129091Y-144257517D01*
X109118926Y-144230264D01*
X109078797Y-144122671D01*
X109078793Y-144122664D01*
X108992547Y-144007455D01*
X108992544Y-144007452D01*
X108877335Y-143921206D01*
X108877328Y-143921202D01*
X108742482Y-143870908D01*
X108742483Y-143870908D01*
X108682883Y-143864501D01*
X108682881Y-143864500D01*
X108682873Y-143864500D01*
X108682864Y-143864500D01*
X107317129Y-143864500D01*
X107317123Y-143864501D01*
X107257516Y-143870908D01*
X107122671Y-143921202D01*
X107122664Y-143921206D01*
X107007455Y-144007452D01*
X107007452Y-144007455D01*
X106921206Y-144122664D01*
X106921202Y-144122671D01*
X106870908Y-144257517D01*
X106867351Y-144290606D01*
X106864501Y-144317123D01*
X106864500Y-144317135D01*
X106367425Y-144317135D01*
X106326111Y-144260272D01*
X106199728Y-144133889D01*
X106055132Y-144028833D01*
X105895881Y-143947691D01*
X105895878Y-143947689D01*
X105725899Y-143892460D01*
X105589824Y-143870908D01*
X105549366Y-143864500D01*
X105370634Y-143864500D01*
X105330176Y-143870908D01*
X105194101Y-143892460D01*
X105194098Y-143892460D01*
X105024121Y-143947689D01*
X105024118Y-143947691D01*
X104864867Y-144028833D01*
X104720270Y-144133890D01*
X104593890Y-144260270D01*
X104488833Y-144404867D01*
X104407691Y-144564118D01*
X104407689Y-144564121D01*
X104352460Y-144734098D01*
X104352460Y-144734101D01*
X104328130Y-144887713D01*
X104324500Y-144910634D01*
X97691295Y-144910634D01*
X97638345Y-144857684D01*
X97489124Y-144765643D01*
X97489119Y-144765641D01*
X97322697Y-144710494D01*
X97322690Y-144710493D01*
X97219986Y-144700000D01*
X96870000Y-144700000D01*
X96870000Y-145684314D01*
X96865606Y-145679920D01*
X96774394Y-145627259D01*
X96672661Y-145600000D01*
X96567339Y-145600000D01*
X96465606Y-145627259D01*
X96374394Y-145679920D01*
X96370000Y-145684314D01*
X96370000Y-144700000D01*
X96020028Y-144700000D01*
X96020012Y-144700001D01*
X95917302Y-144710494D01*
X95750880Y-144765641D01*
X95750875Y-144765643D01*
X95601654Y-144857684D01*
X95477684Y-144981654D01*
X95385643Y-145130875D01*
X95385641Y-145130880D01*
X95330494Y-145297302D01*
X95330493Y-145297309D01*
X95320000Y-145400013D01*
X90153876Y-145400013D01*
X90112287Y-145318390D01*
X90112285Y-145318387D01*
X90112284Y-145318385D01*
X89991971Y-145152786D01*
X89847213Y-145008028D01*
X89681613Y-144887715D01*
X89681612Y-144887714D01*
X89681610Y-144887713D01*
X89622675Y-144857684D01*
X89499223Y-144794781D01*
X89304534Y-144731522D01*
X89129995Y-144703878D01*
X89102352Y-144699500D01*
X88897648Y-144699500D01*
X88873329Y-144703351D01*
X88695465Y-144731522D01*
X88500776Y-144794781D01*
X88318386Y-144887715D01*
X88152786Y-145008028D01*
X88008028Y-145152786D01*
X87887715Y-145318386D01*
X87794781Y-145500776D01*
X87731522Y-145695465D01*
X87699500Y-145897648D01*
X83361866Y-145897648D01*
X83345899Y-145892460D01*
X83179537Y-145866111D01*
X83169366Y-145864500D01*
X82990634Y-145864500D01*
X82980463Y-145866111D01*
X82814101Y-145892460D01*
X82814098Y-145892460D01*
X82644121Y-145947689D01*
X82644118Y-145947691D01*
X82484867Y-146028833D01*
X82340270Y-146133890D01*
X82213890Y-146260270D01*
X82108833Y-146404867D01*
X82027691Y-146564118D01*
X82027689Y-146564121D01*
X81972460Y-146734098D01*
X81972460Y-146734101D01*
X81944500Y-146910634D01*
X79135499Y-146910634D01*
X79135499Y-146317128D01*
X79129091Y-146257517D01*
X79126287Y-146250000D01*
X79078797Y-146122671D01*
X79078793Y-146122664D01*
X78992547Y-146007455D01*
X78992544Y-146007452D01*
X78877335Y-145921206D01*
X78877328Y-145921202D01*
X78742482Y-145870908D01*
X78742483Y-145870908D01*
X78682883Y-145864501D01*
X78682881Y-145864500D01*
X78682873Y-145864500D01*
X78682864Y-145864500D01*
X77317129Y-145864500D01*
X77317123Y-145864501D01*
X77257516Y-145870908D01*
X77122671Y-145921202D01*
X77122664Y-145921206D01*
X77007455Y-146007452D01*
X77007452Y-146007455D01*
X76921206Y-146122664D01*
X76921202Y-146122671D01*
X76870908Y-146257517D01*
X76865854Y-146304534D01*
X76864501Y-146317123D01*
X76864500Y-146317135D01*
X49000000Y-146317135D01*
X49000000Y-139921153D01*
X126199500Y-139921153D01*
X126199500Y-140078846D01*
X126230261Y-140233489D01*
X126230264Y-140233501D01*
X126290602Y-140379172D01*
X126290609Y-140379185D01*
X126378210Y-140510288D01*
X126378213Y-140510292D01*
X126489707Y-140621786D01*
X126489711Y-140621789D01*
X126620814Y-140709390D01*
X126620827Y-140709397D01*
X126766498Y-140769735D01*
X126766503Y-140769737D01*
X126921153Y-140800499D01*
X126921156Y-140800500D01*
X126921158Y-140800500D01*
X127078844Y-140800500D01*
X127078845Y-140800499D01*
X127233497Y-140769737D01*
X127379179Y-140709394D01*
X127510289Y-140621789D01*
X127621789Y-140510289D01*
X127709394Y-140379179D01*
X127769737Y-140233497D01*
X127800500Y-140078842D01*
X127800500Y-139921158D01*
X127800500Y-139921155D01*
X127800499Y-139921153D01*
X127769738Y-139766510D01*
X127769737Y-139766503D01*
X127751133Y-139721588D01*
X127709397Y-139620827D01*
X127709390Y-139620814D01*
X127621789Y-139489711D01*
X127621786Y-139489707D01*
X127510292Y-139378213D01*
X127510288Y-139378210D01*
X127379185Y-139290609D01*
X127379172Y-139290602D01*
X127233501Y-139230264D01*
X127233489Y-139230261D01*
X127078845Y-139199500D01*
X127078842Y-139199500D01*
X126921158Y-139199500D01*
X126921155Y-139199500D01*
X126766510Y-139230261D01*
X126766498Y-139230264D01*
X126620827Y-139290602D01*
X126620814Y-139290609D01*
X126489711Y-139378210D01*
X126489707Y-139378213D01*
X126378213Y-139489707D01*
X126378210Y-139489711D01*
X126290609Y-139620814D01*
X126290602Y-139620827D01*
X126230264Y-139766498D01*
X126230261Y-139766510D01*
X126199500Y-139921153D01*
X49000000Y-139921153D01*
X49000000Y-137317135D01*
X68959500Y-137317135D01*
X68959500Y-138682870D01*
X68959501Y-138682876D01*
X68965908Y-138742483D01*
X69016202Y-138877328D01*
X69016206Y-138877335D01*
X69102452Y-138992544D01*
X69102455Y-138992547D01*
X69217664Y-139078793D01*
X69217671Y-139078797D01*
X69352517Y-139129091D01*
X69352516Y-139129091D01*
X69359444Y-139129835D01*
X69412127Y-139135500D01*
X70777872Y-139135499D01*
X70837483Y-139129091D01*
X70972331Y-139078796D01*
X71087546Y-138992546D01*
X71173796Y-138877331D01*
X71224091Y-138742483D01*
X71230500Y-138682873D01*
X71230499Y-137910634D01*
X74039500Y-137910634D01*
X74039500Y-138089366D01*
X74045714Y-138128598D01*
X74067460Y-138265898D01*
X74067460Y-138265901D01*
X74122689Y-138435878D01*
X74122691Y-138435881D01*
X74203833Y-138595132D01*
X74308889Y-138739728D01*
X74435272Y-138866111D01*
X74579868Y-138971167D01*
X74739119Y-139052309D01*
X74739121Y-139052310D01*
X74897670Y-139103825D01*
X74909103Y-139107540D01*
X75085634Y-139135500D01*
X75085635Y-139135500D01*
X75264365Y-139135500D01*
X75264366Y-139135500D01*
X75440897Y-139107540D01*
X75440900Y-139107539D01*
X75440901Y-139107539D01*
X75610878Y-139052310D01*
X75610878Y-139052309D01*
X75610881Y-139052309D01*
X75770132Y-138971167D01*
X75914728Y-138866111D01*
X76041111Y-138739728D01*
X76146167Y-138595132D01*
X76227309Y-138435881D01*
X76282540Y-138265897D01*
X76310500Y-138089366D01*
X76310500Y-137910634D01*
X76282540Y-137734103D01*
X76282539Y-137734099D01*
X76282539Y-137734098D01*
X76227310Y-137564121D01*
X76227308Y-137564118D01*
X76170757Y-137453129D01*
X76161967Y-137435878D01*
X76146167Y-137404868D01*
X76142618Y-137399983D01*
X87699500Y-137399983D01*
X87699500Y-138600001D01*
X87699501Y-138600018D01*
X87710000Y-138702796D01*
X87710001Y-138702799D01*
X87765185Y-138869331D01*
X87765187Y-138869336D01*
X87770121Y-138877335D01*
X87857288Y-139018656D01*
X87981344Y-139142712D01*
X88130666Y-139234814D01*
X88297203Y-139289999D01*
X88399991Y-139300500D01*
X89600008Y-139300499D01*
X89702797Y-139289999D01*
X89869334Y-139234814D01*
X90018656Y-139142712D01*
X90142712Y-139018656D01*
X90234814Y-138869334D01*
X90289999Y-138702797D01*
X90300500Y-138600009D01*
X90300500Y-138421153D01*
X129699500Y-138421153D01*
X129699500Y-138578846D01*
X129730261Y-138733489D01*
X129730264Y-138733501D01*
X129790602Y-138879172D01*
X129790609Y-138879185D01*
X129878210Y-139010288D01*
X129878213Y-139010292D01*
X129989707Y-139121786D01*
X129989711Y-139121789D01*
X130120814Y-139209390D01*
X130120827Y-139209397D01*
X130266498Y-139269735D01*
X130266503Y-139269737D01*
X130421148Y-139300498D01*
X130421153Y-139300499D01*
X130421156Y-139300500D01*
X130421158Y-139300500D01*
X130578844Y-139300500D01*
X130578845Y-139300499D01*
X130733497Y-139269737D01*
X130879179Y-139209394D01*
X131010289Y-139121789D01*
X131121789Y-139010289D01*
X131209394Y-138879179D01*
X131210160Y-138877331D01*
X131266015Y-138742482D01*
X131269737Y-138733497D01*
X131300500Y-138578842D01*
X131300500Y-138421158D01*
X131300500Y-138421155D01*
X131300499Y-138421153D01*
X131269738Y-138266510D01*
X131269737Y-138266503D01*
X131231386Y-138173914D01*
X131209397Y-138120827D01*
X131209390Y-138120814D01*
X131121789Y-137989711D01*
X131121786Y-137989707D01*
X131010292Y-137878213D01*
X131010288Y-137878210D01*
X130879185Y-137790609D01*
X130879172Y-137790602D01*
X130733501Y-137730264D01*
X130733489Y-137730261D01*
X130578845Y-137699500D01*
X130578842Y-137699500D01*
X130421158Y-137699500D01*
X130421155Y-137699500D01*
X130266510Y-137730261D01*
X130266498Y-137730264D01*
X130120827Y-137790602D01*
X130120814Y-137790609D01*
X129989711Y-137878210D01*
X129989707Y-137878213D01*
X129878213Y-137989707D01*
X129878210Y-137989711D01*
X129790609Y-138120814D01*
X129790602Y-138120827D01*
X129730264Y-138266498D01*
X129730261Y-138266510D01*
X129699500Y-138421153D01*
X90300500Y-138421153D01*
X90300499Y-137992547D01*
X90300499Y-137399998D01*
X90300498Y-137399981D01*
X90289999Y-137297203D01*
X90289998Y-137297200D01*
X90234814Y-137130666D01*
X90142712Y-136981344D01*
X90018656Y-136857288D01*
X89871481Y-136766510D01*
X89869336Y-136765187D01*
X89869331Y-136765185D01*
X89867862Y-136764698D01*
X89702797Y-136710001D01*
X89702795Y-136710000D01*
X89600010Y-136699500D01*
X88399998Y-136699500D01*
X88399981Y-136699501D01*
X88297203Y-136710000D01*
X88297200Y-136710001D01*
X88130668Y-136765185D01*
X88130663Y-136765187D01*
X87981342Y-136857289D01*
X87857289Y-136981342D01*
X87765187Y-137130663D01*
X87765185Y-137130668D01*
X87759753Y-137147061D01*
X87710001Y-137297203D01*
X87710001Y-137297204D01*
X87710000Y-137297204D01*
X87699500Y-137399983D01*
X76142618Y-137399983D01*
X76041111Y-137260272D01*
X75914728Y-137133889D01*
X75770132Y-137028833D01*
X75610881Y-136947691D01*
X75610878Y-136947689D01*
X75440899Y-136892460D01*
X75304824Y-136870908D01*
X75264366Y-136864500D01*
X75085634Y-136864500D01*
X75045176Y-136870908D01*
X74909101Y-136892460D01*
X74909098Y-136892460D01*
X74739121Y-136947689D01*
X74739118Y-136947691D01*
X74579867Y-137028833D01*
X74435270Y-137133890D01*
X74308890Y-137260270D01*
X74203833Y-137404867D01*
X74122691Y-137564118D01*
X74122689Y-137564121D01*
X74067460Y-137734098D01*
X74067460Y-137734101D01*
X74044635Y-137878211D01*
X74039500Y-137910634D01*
X71230499Y-137910634D01*
X71230499Y-137317128D01*
X71224091Y-137257517D01*
X71221287Y-137250000D01*
X71173797Y-137122671D01*
X71173793Y-137122664D01*
X71087547Y-137007455D01*
X71087544Y-137007452D01*
X70972335Y-136921206D01*
X70972328Y-136921202D01*
X70837482Y-136870908D01*
X70837483Y-136870908D01*
X70777883Y-136864501D01*
X70777881Y-136864500D01*
X70777873Y-136864500D01*
X70777864Y-136864500D01*
X69412129Y-136864500D01*
X69412123Y-136864501D01*
X69352516Y-136870908D01*
X69217671Y-136921202D01*
X69217664Y-136921206D01*
X69102455Y-137007452D01*
X69102452Y-137007455D01*
X69016206Y-137122664D01*
X69016202Y-137122671D01*
X68965908Y-137257517D01*
X68961642Y-137297200D01*
X68959501Y-137317123D01*
X68959500Y-137317135D01*
X49000000Y-137317135D01*
X49000000Y-136317135D01*
X106864500Y-136317135D01*
X106864500Y-137682870D01*
X106864501Y-137682876D01*
X106870908Y-137742483D01*
X106921202Y-137877328D01*
X106921206Y-137877335D01*
X107007452Y-137992544D01*
X107007455Y-137992547D01*
X107122664Y-138078793D01*
X107122671Y-138078797D01*
X107257517Y-138129091D01*
X107257516Y-138129091D01*
X107264444Y-138129835D01*
X107317127Y-138135500D01*
X108682872Y-138135499D01*
X108742483Y-138129091D01*
X108877331Y-138078796D01*
X108992546Y-137992546D01*
X109078796Y-137877331D01*
X109129091Y-137742483D01*
X109135500Y-137682873D01*
X109135500Y-137007452D01*
X109135500Y-136905762D01*
X109135499Y-136317155D01*
X116865000Y-136317155D01*
X116865000Y-136750000D01*
X117711184Y-136750000D01*
X117695124Y-136766060D01*
X117644964Y-136852939D01*
X117619000Y-136949840D01*
X117619000Y-137050160D01*
X117644964Y-137147061D01*
X117695124Y-137233940D01*
X117711184Y-137250000D01*
X116865000Y-137250000D01*
X116865000Y-137682844D01*
X116871401Y-137742372D01*
X116871403Y-137742379D01*
X116921645Y-137877086D01*
X116921649Y-137877093D01*
X117007809Y-137992187D01*
X117007812Y-137992190D01*
X117122906Y-138078350D01*
X117122913Y-138078354D01*
X117257620Y-138128596D01*
X117257627Y-138128598D01*
X117317155Y-138134999D01*
X117317172Y-138135000D01*
X117750000Y-138135000D01*
X117750000Y-137288816D01*
X117766060Y-137304876D01*
X117852939Y-137355036D01*
X117949840Y-137381000D01*
X118050160Y-137381000D01*
X118147061Y-137355036D01*
X118233940Y-137304876D01*
X118250000Y-137288816D01*
X118250000Y-138135000D01*
X118682828Y-138135000D01*
X118682844Y-138134999D01*
X118742372Y-138128598D01*
X118742379Y-138128596D01*
X118877086Y-138078354D01*
X118877093Y-138078350D01*
X118992187Y-137992190D01*
X118992190Y-137992187D01*
X119078350Y-137877093D01*
X119078354Y-137877086D01*
X119128596Y-137742379D01*
X119128598Y-137742372D01*
X119134999Y-137682844D01*
X119135000Y-137682827D01*
X119135000Y-137250000D01*
X118288816Y-137250000D01*
X118304876Y-137233940D01*
X118355036Y-137147061D01*
X118381000Y-137050160D01*
X118381000Y-136949840D01*
X118370495Y-136910634D01*
X119404500Y-136910634D01*
X119404500Y-137089365D01*
X119432460Y-137265898D01*
X119432460Y-137265901D01*
X119487689Y-137435878D01*
X119487691Y-137435881D01*
X119568833Y-137595132D01*
X119673889Y-137739728D01*
X119800272Y-137866111D01*
X119944868Y-137971167D01*
X120104119Y-138052309D01*
X120104121Y-138052310D01*
X120218166Y-138089365D01*
X120274103Y-138107540D01*
X120450634Y-138135500D01*
X120450635Y-138135500D01*
X120629365Y-138135500D01*
X120629366Y-138135500D01*
X120805897Y-138107540D01*
X120805900Y-138107539D01*
X120805901Y-138107539D01*
X120975878Y-138052310D01*
X120975878Y-138052309D01*
X120975881Y-138052309D01*
X121135132Y-137971167D01*
X121279728Y-137866111D01*
X121406111Y-137739728D01*
X121511167Y-137595132D01*
X121592309Y-137435881D01*
X121592310Y-137435878D01*
X121647539Y-137265901D01*
X121647539Y-137265900D01*
X121647540Y-137265897D01*
X121675500Y-137089366D01*
X121675500Y-136921153D01*
X126199500Y-136921153D01*
X126199500Y-137078846D01*
X126230261Y-137233489D01*
X126230264Y-137233501D01*
X126290602Y-137379172D01*
X126290609Y-137379185D01*
X126378210Y-137510288D01*
X126378213Y-137510292D01*
X126489707Y-137621786D01*
X126489711Y-137621789D01*
X126620814Y-137709390D01*
X126620827Y-137709397D01*
X126766498Y-137769735D01*
X126766503Y-137769737D01*
X126911310Y-137798541D01*
X126921153Y-137800499D01*
X126921156Y-137800500D01*
X126921158Y-137800500D01*
X127078844Y-137800500D01*
X127078845Y-137800499D01*
X127233497Y-137769737D01*
X127379179Y-137709394D01*
X127510289Y-137621789D01*
X127621789Y-137510289D01*
X127709394Y-137379179D01*
X127769737Y-137233497D01*
X127800500Y-137078842D01*
X127800500Y-136921158D01*
X127800500Y-136921155D01*
X127800499Y-136921153D01*
X127798407Y-136910634D01*
X127769737Y-136766503D01*
X127769192Y-136765187D01*
X127709397Y-136620827D01*
X127709390Y-136620814D01*
X127621789Y-136489711D01*
X127621786Y-136489707D01*
X127510292Y-136378213D01*
X127510288Y-136378210D01*
X127379185Y-136290609D01*
X127379172Y-136290602D01*
X127233501Y-136230264D01*
X127233489Y-136230261D01*
X127078845Y-136199500D01*
X127078842Y-136199500D01*
X126921158Y-136199500D01*
X126921155Y-136199500D01*
X126766510Y-136230261D01*
X126766498Y-136230264D01*
X126620827Y-136290602D01*
X126620814Y-136290609D01*
X126489711Y-136378210D01*
X126489707Y-136378213D01*
X126378213Y-136489707D01*
X126378210Y-136489711D01*
X126290609Y-136620814D01*
X126290602Y-136620827D01*
X126230264Y-136766498D01*
X126230261Y-136766510D01*
X126199500Y-136921153D01*
X121675500Y-136921153D01*
X121675500Y-136910634D01*
X121647540Y-136734103D01*
X121647539Y-136734099D01*
X121647539Y-136734098D01*
X121592310Y-136564121D01*
X121592308Y-136564118D01*
X121537062Y-136455690D01*
X121511167Y-136404868D01*
X121406111Y-136260272D01*
X121279728Y-136133889D01*
X121135132Y-136028833D01*
X120975881Y-135947691D01*
X120975878Y-135947689D01*
X120805899Y-135892460D01*
X120650302Y-135867816D01*
X120629366Y-135864500D01*
X120450634Y-135864500D01*
X120429698Y-135867816D01*
X120274101Y-135892460D01*
X120274098Y-135892460D01*
X120104121Y-135947689D01*
X120104118Y-135947691D01*
X119944867Y-136028833D01*
X119800270Y-136133890D01*
X119673890Y-136260270D01*
X119568833Y-136404867D01*
X119487691Y-136564118D01*
X119487689Y-136564121D01*
X119432460Y-136734098D01*
X119432460Y-136734101D01*
X119404500Y-136910634D01*
X118370495Y-136910634D01*
X118355036Y-136852939D01*
X118304876Y-136766060D01*
X118288816Y-136750000D01*
X119135000Y-136750000D01*
X119135000Y-136317172D01*
X119134999Y-136317155D01*
X119128598Y-136257627D01*
X119128596Y-136257620D01*
X119078354Y-136122913D01*
X119078350Y-136122906D01*
X118992190Y-136007812D01*
X118992187Y-136007809D01*
X118877093Y-135921649D01*
X118877086Y-135921645D01*
X118742379Y-135871403D01*
X118742372Y-135871401D01*
X118682844Y-135865000D01*
X118250000Y-135865000D01*
X118250000Y-136711184D01*
X118233940Y-136695124D01*
X118147061Y-136644964D01*
X118050160Y-136619000D01*
X117949840Y-136619000D01*
X117852939Y-136644964D01*
X117766060Y-136695124D01*
X117750000Y-136711184D01*
X117750000Y-135865000D01*
X117317155Y-135865000D01*
X117257627Y-135871401D01*
X117257620Y-135871403D01*
X117122913Y-135921645D01*
X117122906Y-135921649D01*
X117007812Y-136007809D01*
X117007809Y-136007812D01*
X116921649Y-136122906D01*
X116921645Y-136122913D01*
X116871403Y-136257620D01*
X116871401Y-136257627D01*
X116865000Y-136317155D01*
X109135499Y-136317155D01*
X109135499Y-136317129D01*
X109135498Y-136317123D01*
X109135497Y-136317116D01*
X109129091Y-136257517D01*
X109118926Y-136230264D01*
X109078797Y-136122671D01*
X109078793Y-136122664D01*
X108992547Y-136007455D01*
X108992544Y-136007452D01*
X108877335Y-135921206D01*
X108877328Y-135921202D01*
X108742482Y-135870908D01*
X108742483Y-135870908D01*
X108682883Y-135864501D01*
X108682881Y-135864500D01*
X108682873Y-135864500D01*
X108682864Y-135864500D01*
X107317129Y-135864500D01*
X107317123Y-135864501D01*
X107257516Y-135870908D01*
X107122671Y-135921202D01*
X107122664Y-135921206D01*
X107007455Y-136007452D01*
X107007452Y-136007455D01*
X106921206Y-136122664D01*
X106921202Y-136122671D01*
X106870908Y-136257517D01*
X106867351Y-136290606D01*
X106864501Y-136317123D01*
X106864500Y-136317135D01*
X49000000Y-136317135D01*
X49000000Y-135445513D01*
X127799500Y-135445513D01*
X127799500Y-135634486D01*
X127829059Y-135821118D01*
X127887454Y-136000836D01*
X127955249Y-136133890D01*
X127973240Y-136169199D01*
X128084310Y-136322073D01*
X128217927Y-136455690D01*
X128370801Y-136566760D01*
X128450347Y-136607290D01*
X128539163Y-136652545D01*
X128539165Y-136652545D01*
X128539168Y-136652547D01*
X128635497Y-136683846D01*
X128718881Y-136710940D01*
X128905514Y-136740500D01*
X128905519Y-136740500D01*
X129094486Y-136740500D01*
X129281118Y-136710940D01*
X129329794Y-136695124D01*
X129460832Y-136652547D01*
X129629199Y-136566760D01*
X129782073Y-136455690D01*
X129915690Y-136322073D01*
X130026760Y-136169199D01*
X130112547Y-136000832D01*
X130170940Y-135821118D01*
X130200500Y-135634486D01*
X130200500Y-135445513D01*
X132879500Y-135445513D01*
X132879500Y-135634486D01*
X132909059Y-135821118D01*
X132967454Y-136000836D01*
X133035249Y-136133890D01*
X133053240Y-136169199D01*
X133164310Y-136322073D01*
X133297927Y-136455690D01*
X133450801Y-136566760D01*
X133530347Y-136607290D01*
X133619163Y-136652545D01*
X133619165Y-136652545D01*
X133619168Y-136652547D01*
X133715497Y-136683846D01*
X133798881Y-136710940D01*
X133985514Y-136740500D01*
X133985519Y-136740500D01*
X134174486Y-136740500D01*
X134361118Y-136710940D01*
X134409794Y-136695124D01*
X134540832Y-136652547D01*
X134709199Y-136566760D01*
X134862073Y-136455690D01*
X134995690Y-136322073D01*
X135106760Y-136169199D01*
X135192547Y-136000832D01*
X135250940Y-135821118D01*
X135280500Y-135634486D01*
X135280500Y-135445513D01*
X135250940Y-135258881D01*
X135192545Y-135079163D01*
X135106759Y-134910800D01*
X135058049Y-134843757D01*
X134995690Y-134757927D01*
X134862073Y-134624310D01*
X134709199Y-134513240D01*
X134540836Y-134427454D01*
X134361118Y-134369059D01*
X134174486Y-134339500D01*
X134174481Y-134339500D01*
X133985519Y-134339500D01*
X133985514Y-134339500D01*
X133798881Y-134369059D01*
X133619163Y-134427454D01*
X133450800Y-134513240D01*
X133363579Y-134576610D01*
X133297927Y-134624310D01*
X133297925Y-134624312D01*
X133297924Y-134624312D01*
X133164312Y-134757924D01*
X133164312Y-134757925D01*
X133164310Y-134757927D01*
X133116610Y-134823579D01*
X133053240Y-134910800D01*
X132967454Y-135079163D01*
X132909059Y-135258881D01*
X132879500Y-135445513D01*
X130200500Y-135445513D01*
X130170940Y-135258881D01*
X130112545Y-135079163D01*
X130026759Y-134910800D01*
X129978049Y-134843757D01*
X129915690Y-134757927D01*
X129782073Y-134624310D01*
X129629199Y-134513240D01*
X129460836Y-134427454D01*
X129281118Y-134369059D01*
X129094486Y-134339500D01*
X129094481Y-134339500D01*
X128905519Y-134339500D01*
X128905514Y-134339500D01*
X128718881Y-134369059D01*
X128539163Y-134427454D01*
X128370800Y-134513240D01*
X128283579Y-134576610D01*
X128217927Y-134624310D01*
X128217925Y-134624312D01*
X128217924Y-134624312D01*
X128084312Y-134757924D01*
X128084312Y-134757925D01*
X128084310Y-134757927D01*
X128036610Y-134823579D01*
X127973240Y-134910800D01*
X127887454Y-135079163D01*
X127829059Y-135258881D01*
X127799500Y-135445513D01*
X49000000Y-135445513D01*
X49000000Y-130517648D01*
X69699500Y-130517648D01*
X69699500Y-130722351D01*
X69731522Y-130924534D01*
X69794781Y-131119223D01*
X69887715Y-131301613D01*
X70008028Y-131467213D01*
X70152786Y-131611971D01*
X70307749Y-131724556D01*
X70318390Y-131732287D01*
X70434607Y-131791503D01*
X70500776Y-131825218D01*
X70500778Y-131825218D01*
X70500781Y-131825220D01*
X70590459Y-131854358D01*
X70695465Y-131888477D01*
X70796557Y-131904488D01*
X70897648Y-131920500D01*
X70897649Y-131920500D01*
X71102351Y-131920500D01*
X71102352Y-131920500D01*
X71304534Y-131888477D01*
X71499219Y-131825220D01*
X71681610Y-131732287D01*
X71789229Y-131654098D01*
X71847213Y-131611971D01*
X71847215Y-131611968D01*
X71847219Y-131611966D01*
X71991966Y-131467219D01*
X71991968Y-131467215D01*
X71991971Y-131467213D01*
X72095389Y-131324868D01*
X72112287Y-131301610D01*
X72205220Y-131119219D01*
X72268477Y-130924534D01*
X72275654Y-130879219D01*
X72288322Y-130799240D01*
X72294052Y-130763060D01*
X72300500Y-130722352D01*
X72300500Y-130517648D01*
X72281271Y-130396243D01*
X72268477Y-130315465D01*
X72226504Y-130186287D01*
X72205220Y-130120781D01*
X72205217Y-130120777D01*
X72205217Y-130120774D01*
X72180956Y-130073160D01*
X72180955Y-130073159D01*
X72153876Y-130020013D01*
X80700000Y-130020013D01*
X80700000Y-130370000D01*
X81684314Y-130370000D01*
X81679920Y-130374394D01*
X81627259Y-130465606D01*
X81600000Y-130567339D01*
X81600000Y-130672661D01*
X81627259Y-130774394D01*
X81679920Y-130865606D01*
X81684314Y-130870000D01*
X80700001Y-130870000D01*
X80700001Y-131219986D01*
X80710494Y-131322697D01*
X80765641Y-131489119D01*
X80765643Y-131489124D01*
X80857684Y-131638345D01*
X80981654Y-131762315D01*
X81130875Y-131854356D01*
X81130880Y-131854358D01*
X81297302Y-131909505D01*
X81297309Y-131909506D01*
X81400019Y-131919999D01*
X81749999Y-131919999D01*
X81750000Y-131919998D01*
X81750000Y-130935686D01*
X81754394Y-130940080D01*
X81845606Y-130992741D01*
X81947339Y-131020000D01*
X82052661Y-131020000D01*
X82154394Y-130992741D01*
X82245606Y-130940080D01*
X82250000Y-130935686D01*
X82250000Y-131919999D01*
X82599972Y-131919999D01*
X82599986Y-131919998D01*
X82702697Y-131909505D01*
X82869119Y-131854358D01*
X82869124Y-131854356D01*
X82907583Y-131830634D01*
X106864500Y-131830634D01*
X106864500Y-132009365D01*
X106892460Y-132185898D01*
X106892460Y-132185901D01*
X106947689Y-132355878D01*
X106947691Y-132355881D01*
X107028833Y-132515132D01*
X107133889Y-132659728D01*
X107260272Y-132786111D01*
X107404868Y-132891167D01*
X107564119Y-132972309D01*
X107564121Y-132972310D01*
X107722670Y-133023825D01*
X107734103Y-133027540D01*
X107910634Y-133055500D01*
X107910635Y-133055500D01*
X108089365Y-133055500D01*
X108089366Y-133055500D01*
X108265897Y-133027540D01*
X108265900Y-133027539D01*
X108265901Y-133027539D01*
X108435878Y-132972310D01*
X108435878Y-132972309D01*
X108435881Y-132972309D01*
X108595132Y-132891167D01*
X108739728Y-132786111D01*
X108866111Y-132659728D01*
X108971167Y-132515132D01*
X109052309Y-132355881D01*
X109107540Y-132185897D01*
X109135500Y-132009366D01*
X109135500Y-131839513D01*
X121739500Y-131839513D01*
X121739500Y-132028486D01*
X121769059Y-132215118D01*
X121827454Y-132394836D01*
X121913240Y-132563199D01*
X122024310Y-132716073D01*
X122157927Y-132849690D01*
X122310801Y-132960760D01*
X122390347Y-133001290D01*
X122479163Y-133046545D01*
X122479165Y-133046545D01*
X122479168Y-133046547D01*
X122575497Y-133077846D01*
X122658881Y-133104940D01*
X122845514Y-133134500D01*
X122845519Y-133134500D01*
X123034486Y-133134500D01*
X123221118Y-133104940D01*
X123400832Y-133046547D01*
X123569199Y-132960760D01*
X123722073Y-132849690D01*
X123855690Y-132716073D01*
X123966760Y-132563199D01*
X124052547Y-132394832D01*
X124110940Y-132215118D01*
X124140500Y-132028486D01*
X124140500Y-131839513D01*
X126819500Y-131839513D01*
X126819500Y-132028486D01*
X126849059Y-132215118D01*
X126907454Y-132394836D01*
X126993240Y-132563199D01*
X127104310Y-132716073D01*
X127237927Y-132849690D01*
X127390801Y-132960760D01*
X127470347Y-133001290D01*
X127559163Y-133046545D01*
X127559165Y-133046545D01*
X127559168Y-133046547D01*
X127655497Y-133077846D01*
X127738881Y-133104940D01*
X127925514Y-133134500D01*
X127925519Y-133134500D01*
X128114486Y-133134500D01*
X128301118Y-133104940D01*
X128480832Y-133046547D01*
X128649199Y-132960760D01*
X128802073Y-132849690D01*
X128935690Y-132716073D01*
X129046760Y-132563199D01*
X129132547Y-132394832D01*
X129190940Y-132215118D01*
X129220500Y-132028486D01*
X129220500Y-131839513D01*
X129190940Y-131652881D01*
X129132545Y-131473163D01*
X129069790Y-131350000D01*
X129046760Y-131304801D01*
X128935690Y-131151927D01*
X128802073Y-131018310D01*
X128649199Y-130907240D01*
X128480836Y-130821454D01*
X128301118Y-130763059D01*
X128114486Y-130733500D01*
X128114481Y-130733500D01*
X127925519Y-130733500D01*
X127925514Y-130733500D01*
X127738881Y-130763059D01*
X127559163Y-130821454D01*
X127390800Y-130907240D01*
X127333553Y-130948833D01*
X127237927Y-131018310D01*
X127237925Y-131018312D01*
X127237924Y-131018312D01*
X127104312Y-131151924D01*
X127104312Y-131151925D01*
X127104310Y-131151927D01*
X127083718Y-131180270D01*
X126993240Y-131304800D01*
X126907454Y-131473163D01*
X126849059Y-131652881D01*
X126819500Y-131839513D01*
X124140500Y-131839513D01*
X124110940Y-131652881D01*
X124052545Y-131473163D01*
X123989790Y-131350000D01*
X123966760Y-131304801D01*
X123855690Y-131151927D01*
X123722073Y-131018310D01*
X123569199Y-130907240D01*
X123400836Y-130821454D01*
X123221118Y-130763059D01*
X123034486Y-130733500D01*
X123034481Y-130733500D01*
X122845519Y-130733500D01*
X122845514Y-130733500D01*
X122658881Y-130763059D01*
X122479163Y-130821454D01*
X122310800Y-130907240D01*
X122253553Y-130948833D01*
X122157927Y-131018310D01*
X122157925Y-131018312D01*
X122157924Y-131018312D01*
X122024312Y-131151924D01*
X122024312Y-131151925D01*
X122024310Y-131151927D01*
X122003718Y-131180270D01*
X121913240Y-131304800D01*
X121827454Y-131473163D01*
X121769059Y-131652881D01*
X121739500Y-131839513D01*
X109135500Y-131839513D01*
X109135500Y-131830634D01*
X109107540Y-131654103D01*
X109107539Y-131654099D01*
X109107539Y-131654098D01*
X109052310Y-131484121D01*
X109052308Y-131484118D01*
X109046727Y-131473163D01*
X108971167Y-131324868D01*
X108866111Y-131180272D01*
X108739728Y-131053889D01*
X108595132Y-130948833D01*
X108435881Y-130867691D01*
X108435878Y-130867689D01*
X108265899Y-130812460D01*
X108110302Y-130787816D01*
X108089366Y-130784500D01*
X107910634Y-130784500D01*
X107889698Y-130787816D01*
X107734101Y-130812460D01*
X107734098Y-130812460D01*
X107564121Y-130867689D01*
X107564118Y-130867691D01*
X107404867Y-130948833D01*
X107260270Y-131053890D01*
X107133890Y-131180270D01*
X107028833Y-131324867D01*
X106947691Y-131484118D01*
X106947689Y-131484121D01*
X106892460Y-131654098D01*
X106892460Y-131654101D01*
X106864500Y-131830634D01*
X82907583Y-131830634D01*
X83018345Y-131762315D01*
X83042580Y-131738081D01*
X83142315Y-131638345D01*
X83234356Y-131489124D01*
X83234358Y-131489119D01*
X83289505Y-131322697D01*
X83289506Y-131322690D01*
X83299999Y-131219986D01*
X83300000Y-131219973D01*
X83300000Y-130870000D01*
X82315686Y-130870000D01*
X82320080Y-130865606D01*
X82372741Y-130774394D01*
X82400000Y-130672661D01*
X82400000Y-130567339D01*
X82372741Y-130465606D01*
X82320080Y-130374394D01*
X82315686Y-130370000D01*
X83299999Y-130370000D01*
X83299999Y-130277648D01*
X87699500Y-130277648D01*
X87699500Y-130482351D01*
X87731522Y-130684534D01*
X87794781Y-130879223D01*
X87809057Y-130907240D01*
X87883779Y-131053890D01*
X87887715Y-131061613D01*
X88008028Y-131227213D01*
X88152786Y-131371971D01*
X88292068Y-131473163D01*
X88318390Y-131492287D01*
X88434607Y-131551503D01*
X88500776Y-131585218D01*
X88500778Y-131585218D01*
X88500781Y-131585220D01*
X88583097Y-131611966D01*
X88695465Y-131648477D01*
X88796557Y-131664488D01*
X88897648Y-131680500D01*
X88897649Y-131680500D01*
X89102351Y-131680500D01*
X89102352Y-131680500D01*
X89304534Y-131648477D01*
X89499219Y-131585220D01*
X89681610Y-131492287D01*
X89774590Y-131424732D01*
X89847213Y-131371971D01*
X89847215Y-131371968D01*
X89847219Y-131371966D01*
X89991966Y-131227219D01*
X89991968Y-131227215D01*
X89991971Y-131227213D01*
X90077054Y-131110104D01*
X90112287Y-131061610D01*
X90205220Y-130879219D01*
X90268477Y-130684534D01*
X90300500Y-130482352D01*
X90300500Y-130277648D01*
X90268477Y-130075466D01*
X90267727Y-130073159D01*
X90223937Y-129938385D01*
X90205220Y-129880781D01*
X90205218Y-129880778D01*
X90205218Y-129880776D01*
X90171503Y-129814607D01*
X90112287Y-129698390D01*
X90061171Y-129628034D01*
X89991971Y-129532786D01*
X89847213Y-129388028D01*
X89681613Y-129267715D01*
X89681612Y-129267714D01*
X89681610Y-129267713D01*
X89624653Y-129238691D01*
X89499223Y-129174781D01*
X89304534Y-129111522D01*
X89129995Y-129083878D01*
X89102352Y-129079500D01*
X88897648Y-129079500D01*
X88873329Y-129083351D01*
X88695465Y-129111522D01*
X88500776Y-129174781D01*
X88318386Y-129267715D01*
X88152786Y-129388028D01*
X88008028Y-129532786D01*
X87887715Y-129698386D01*
X87794781Y-129880776D01*
X87731522Y-130075465D01*
X87699500Y-130277648D01*
X83299999Y-130277648D01*
X83299999Y-130020028D01*
X83299998Y-130020013D01*
X83289505Y-129917302D01*
X83234358Y-129750880D01*
X83234356Y-129750875D01*
X83142315Y-129601654D01*
X83018345Y-129477684D01*
X82869124Y-129385643D01*
X82869119Y-129385641D01*
X82702697Y-129330494D01*
X82702690Y-129330493D01*
X82599986Y-129320000D01*
X82250000Y-129320000D01*
X82250000Y-130304314D01*
X82245606Y-130299920D01*
X82154394Y-130247259D01*
X82052661Y-130220000D01*
X81947339Y-130220000D01*
X81845606Y-130247259D01*
X81754394Y-130299920D01*
X81750000Y-130304314D01*
X81750000Y-129320000D01*
X81400028Y-129320000D01*
X81400012Y-129320001D01*
X81297302Y-129330494D01*
X81130880Y-129385641D01*
X81130875Y-129385643D01*
X80981654Y-129477684D01*
X80857684Y-129601654D01*
X80765643Y-129750875D01*
X80765641Y-129750880D01*
X80710494Y-129917302D01*
X80710493Y-129917309D01*
X80700000Y-130020013D01*
X72153876Y-130020013D01*
X72112287Y-129938390D01*
X72112285Y-129938387D01*
X72112284Y-129938385D01*
X71991971Y-129772786D01*
X71847213Y-129628028D01*
X71681613Y-129507715D01*
X71681612Y-129507714D01*
X71681610Y-129507713D01*
X71622675Y-129477684D01*
X71499223Y-129414781D01*
X71304534Y-129351522D01*
X71129995Y-129323878D01*
X71102352Y-129319500D01*
X70897648Y-129319500D01*
X70873329Y-129323351D01*
X70695465Y-129351522D01*
X70500776Y-129414781D01*
X70318386Y-129507715D01*
X70152786Y-129628028D01*
X70008028Y-129772786D01*
X69887715Y-129938386D01*
X69794781Y-130120776D01*
X69731522Y-130315465D01*
X69699500Y-130517648D01*
X49000000Y-130517648D01*
X49000000Y-127625634D01*
X91914500Y-127625634D01*
X91914500Y-127804365D01*
X91942460Y-127980898D01*
X91942460Y-127980901D01*
X91997689Y-128150878D01*
X91997691Y-128150881D01*
X92078833Y-128310132D01*
X92183889Y-128454728D01*
X92310272Y-128581111D01*
X92454868Y-128686167D01*
X92614119Y-128767309D01*
X92614121Y-128767310D01*
X92745509Y-128810000D01*
X92784103Y-128822540D01*
X92960634Y-128850500D01*
X92960635Y-128850500D01*
X93139365Y-128850500D01*
X93139366Y-128850500D01*
X93315897Y-128822540D01*
X93315900Y-128822539D01*
X93315901Y-128822539D01*
X93485878Y-128767310D01*
X93485878Y-128767309D01*
X93485881Y-128767309D01*
X93645132Y-128686167D01*
X93789728Y-128581111D01*
X93916111Y-128454728D01*
X94021167Y-128310132D01*
X94102309Y-128150881D01*
X94157540Y-127980897D01*
X94185500Y-127804366D01*
X94185500Y-127625634D01*
X96914500Y-127625634D01*
X96914500Y-127804365D01*
X96942460Y-127980898D01*
X96942460Y-127980901D01*
X96997689Y-128150878D01*
X96997691Y-128150881D01*
X97078833Y-128310132D01*
X97183889Y-128454728D01*
X97310272Y-128581111D01*
X97454868Y-128686167D01*
X97614119Y-128767309D01*
X97614121Y-128767310D01*
X97745509Y-128810000D01*
X97784103Y-128822540D01*
X97960634Y-128850500D01*
X97960635Y-128850500D01*
X98139365Y-128850500D01*
X98139366Y-128850500D01*
X98315897Y-128822540D01*
X98315900Y-128822539D01*
X98315901Y-128822539D01*
X98485878Y-128767310D01*
X98485878Y-128767309D01*
X98485881Y-128767309D01*
X98645132Y-128686167D01*
X98789728Y-128581111D01*
X98916111Y-128454728D01*
X99021167Y-128310132D01*
X99102309Y-128150881D01*
X99157540Y-127980897D01*
X99185500Y-127804366D01*
X99185500Y-127625634D01*
X101914500Y-127625634D01*
X101914500Y-127804365D01*
X101942460Y-127980898D01*
X101942460Y-127980901D01*
X101997689Y-128150878D01*
X101997691Y-128150881D01*
X102078833Y-128310132D01*
X102183889Y-128454728D01*
X102310272Y-128581111D01*
X102454868Y-128686167D01*
X102614119Y-128767309D01*
X102614121Y-128767310D01*
X102745509Y-128810000D01*
X102784103Y-128822540D01*
X102960634Y-128850500D01*
X102960635Y-128850500D01*
X103139365Y-128850500D01*
X103139366Y-128850500D01*
X103315897Y-128822540D01*
X103315900Y-128822539D01*
X103315901Y-128822539D01*
X103485878Y-128767310D01*
X103485878Y-128767309D01*
X103485881Y-128767309D01*
X103645132Y-128686167D01*
X103789728Y-128581111D01*
X103916111Y-128454728D01*
X104021167Y-128310132D01*
X104102309Y-128150881D01*
X104157540Y-127980897D01*
X104185500Y-127804366D01*
X104185500Y-127625634D01*
X104157540Y-127449103D01*
X104157539Y-127449099D01*
X104157539Y-127449098D01*
X104102310Y-127279121D01*
X104102308Y-127279118D01*
X104079066Y-127233501D01*
X104021167Y-127119868D01*
X103916111Y-126975272D01*
X103861992Y-126921153D01*
X107199500Y-126921153D01*
X107199500Y-127078846D01*
X107230261Y-127233489D01*
X107230264Y-127233501D01*
X107290602Y-127379172D01*
X107290609Y-127379185D01*
X107378210Y-127510288D01*
X107378213Y-127510292D01*
X107489707Y-127621786D01*
X107489711Y-127621789D01*
X107620814Y-127709390D01*
X107620827Y-127709397D01*
X107766498Y-127769735D01*
X107766503Y-127769737D01*
X107921153Y-127800499D01*
X107921156Y-127800500D01*
X107921158Y-127800500D01*
X108078844Y-127800500D01*
X108078845Y-127800499D01*
X108233497Y-127769737D01*
X108379179Y-127709394D01*
X108510289Y-127621789D01*
X108621789Y-127510289D01*
X108709394Y-127379179D01*
X108769737Y-127233497D01*
X108800500Y-127078842D01*
X108800500Y-126921158D01*
X108800500Y-126921155D01*
X108800499Y-126921153D01*
X108769738Y-126766510D01*
X108769737Y-126766503D01*
X108726737Y-126662691D01*
X108709397Y-126620827D01*
X108709390Y-126620814D01*
X108621789Y-126489711D01*
X108621786Y-126489707D01*
X108510292Y-126378213D01*
X108510288Y-126378210D01*
X108379185Y-126290609D01*
X108379172Y-126290602D01*
X108233501Y-126230264D01*
X108233489Y-126230261D01*
X108078845Y-126199500D01*
X108078842Y-126199500D01*
X107921158Y-126199500D01*
X107921155Y-126199500D01*
X107766510Y-126230261D01*
X107766498Y-126230264D01*
X107620827Y-126290602D01*
X107620814Y-126290609D01*
X107489711Y-126378210D01*
X107489707Y-126378213D01*
X107378213Y-126489707D01*
X107378210Y-126489711D01*
X107290609Y-126620814D01*
X107290602Y-126620827D01*
X107230264Y-126766498D01*
X107230261Y-126766510D01*
X107199500Y-126921153D01*
X103861992Y-126921153D01*
X103789728Y-126848889D01*
X103645132Y-126743833D01*
X103485881Y-126662691D01*
X103485878Y-126662689D01*
X103315899Y-126607460D01*
X103198209Y-126588820D01*
X103139366Y-126579500D01*
X102960634Y-126579500D01*
X102901790Y-126588820D01*
X102784101Y-126607460D01*
X102784098Y-126607460D01*
X102614121Y-126662689D01*
X102614118Y-126662691D01*
X102454867Y-126743833D01*
X102310270Y-126848890D01*
X102183890Y-126975270D01*
X102078833Y-127119867D01*
X101997691Y-127279118D01*
X101997689Y-127279121D01*
X101942460Y-127449098D01*
X101942460Y-127449101D01*
X101914500Y-127625634D01*
X99185500Y-127625634D01*
X99157540Y-127449103D01*
X99157539Y-127449099D01*
X99157539Y-127449098D01*
X99102310Y-127279121D01*
X99102308Y-127279118D01*
X99079066Y-127233501D01*
X99021167Y-127119868D01*
X98916111Y-126975272D01*
X98789728Y-126848889D01*
X98645132Y-126743833D01*
X98485881Y-126662691D01*
X98485878Y-126662689D01*
X98315899Y-126607460D01*
X98198209Y-126588820D01*
X98139366Y-126579500D01*
X97960634Y-126579500D01*
X97901790Y-126588820D01*
X97784101Y-126607460D01*
X97784098Y-126607460D01*
X97614121Y-126662689D01*
X97614118Y-126662691D01*
X97454867Y-126743833D01*
X97310270Y-126848890D01*
X97183890Y-126975270D01*
X97078833Y-127119867D01*
X96997691Y-127279118D01*
X96997689Y-127279121D01*
X96942460Y-127449098D01*
X96942460Y-127449101D01*
X96914500Y-127625634D01*
X94185500Y-127625634D01*
X94157540Y-127449103D01*
X94157539Y-127449099D01*
X94157539Y-127449098D01*
X94102310Y-127279121D01*
X94102308Y-127279118D01*
X94079066Y-127233501D01*
X94021167Y-127119868D01*
X93916111Y-126975272D01*
X93789728Y-126848889D01*
X93645132Y-126743833D01*
X93485881Y-126662691D01*
X93485878Y-126662689D01*
X93315899Y-126607460D01*
X93198209Y-126588820D01*
X93139366Y-126579500D01*
X92960634Y-126579500D01*
X92901790Y-126588820D01*
X92784101Y-126607460D01*
X92784098Y-126607460D01*
X92614121Y-126662689D01*
X92614118Y-126662691D01*
X92454867Y-126743833D01*
X92310270Y-126848890D01*
X92183890Y-126975270D01*
X92078833Y-127119867D01*
X91997691Y-127279118D01*
X91997689Y-127279121D01*
X91942460Y-127449098D01*
X91942460Y-127449101D01*
X91914500Y-127625634D01*
X49000000Y-127625634D01*
X49000000Y-124492135D01*
X91914500Y-124492135D01*
X91914500Y-125857870D01*
X91914501Y-125857876D01*
X91920908Y-125917483D01*
X91971202Y-126052328D01*
X91971206Y-126052335D01*
X92057452Y-126167544D01*
X92057455Y-126167547D01*
X92172664Y-126253793D01*
X92172671Y-126253797D01*
X92307517Y-126304091D01*
X92307516Y-126304091D01*
X92314444Y-126304835D01*
X92367127Y-126310500D01*
X93732872Y-126310499D01*
X93792483Y-126304091D01*
X93927331Y-126253796D01*
X94042546Y-126167546D01*
X94128796Y-126052331D01*
X94179091Y-125917483D01*
X94185500Y-125857873D01*
X94185499Y-124492135D01*
X96914500Y-124492135D01*
X96914500Y-125857870D01*
X96914501Y-125857876D01*
X96920908Y-125917483D01*
X96971202Y-126052328D01*
X96971206Y-126052335D01*
X97057452Y-126167544D01*
X97057455Y-126167547D01*
X97172664Y-126253793D01*
X97172671Y-126253797D01*
X97307517Y-126304091D01*
X97307516Y-126304091D01*
X97314444Y-126304835D01*
X97367127Y-126310500D01*
X98732872Y-126310499D01*
X98792483Y-126304091D01*
X98927331Y-126253796D01*
X99042546Y-126167546D01*
X99128796Y-126052331D01*
X99179091Y-125917483D01*
X99185500Y-125857873D01*
X99185499Y-124492135D01*
X101914500Y-124492135D01*
X101914500Y-125857870D01*
X101914501Y-125857876D01*
X101920908Y-125917483D01*
X101971202Y-126052328D01*
X101971206Y-126052335D01*
X102057452Y-126167544D01*
X102057455Y-126167547D01*
X102172664Y-126253793D01*
X102172671Y-126253797D01*
X102307517Y-126304091D01*
X102307516Y-126304091D01*
X102314444Y-126304835D01*
X102367127Y-126310500D01*
X103732872Y-126310499D01*
X103792483Y-126304091D01*
X103927331Y-126253796D01*
X104042546Y-126167546D01*
X104128796Y-126052331D01*
X104179091Y-125917483D01*
X104185500Y-125857873D01*
X104185499Y-124492128D01*
X104179091Y-124432517D01*
X104128796Y-124297669D01*
X104128795Y-124297668D01*
X104128793Y-124297664D01*
X104042547Y-124182455D01*
X104042544Y-124182452D01*
X103927335Y-124096206D01*
X103927328Y-124096202D01*
X103792482Y-124045908D01*
X103792483Y-124045908D01*
X103732883Y-124039501D01*
X103732881Y-124039500D01*
X103732873Y-124039500D01*
X103732864Y-124039500D01*
X102367129Y-124039500D01*
X102367123Y-124039501D01*
X102307516Y-124045908D01*
X102172671Y-124096202D01*
X102172664Y-124096206D01*
X102057455Y-124182452D01*
X102057452Y-124182455D01*
X101971206Y-124297664D01*
X101971202Y-124297671D01*
X101920908Y-124432517D01*
X101915633Y-124481588D01*
X101914501Y-124492123D01*
X101914500Y-124492135D01*
X99185499Y-124492135D01*
X99185499Y-124492128D01*
X99179091Y-124432517D01*
X99128796Y-124297669D01*
X99128795Y-124297668D01*
X99128793Y-124297664D01*
X99042547Y-124182455D01*
X99042544Y-124182452D01*
X98927335Y-124096206D01*
X98927328Y-124096202D01*
X98792482Y-124045908D01*
X98792483Y-124045908D01*
X98732883Y-124039501D01*
X98732881Y-124039500D01*
X98732873Y-124039500D01*
X98732864Y-124039500D01*
X97367129Y-124039500D01*
X97367123Y-124039501D01*
X97307516Y-124045908D01*
X97172671Y-124096202D01*
X97172664Y-124096206D01*
X97057455Y-124182452D01*
X97057452Y-124182455D01*
X96971206Y-124297664D01*
X96971202Y-124297671D01*
X96920908Y-124432517D01*
X96915633Y-124481588D01*
X96914501Y-124492123D01*
X96914500Y-124492135D01*
X94185499Y-124492135D01*
X94185499Y-124492128D01*
X94179091Y-124432517D01*
X94128796Y-124297669D01*
X94128795Y-124297668D01*
X94128793Y-124297664D01*
X94042547Y-124182455D01*
X94042544Y-124182452D01*
X93927335Y-124096206D01*
X93927328Y-124096202D01*
X93792482Y-124045908D01*
X93792483Y-124045908D01*
X93732883Y-124039501D01*
X93732881Y-124039500D01*
X93732873Y-124039500D01*
X93732864Y-124039500D01*
X92367129Y-124039500D01*
X92367123Y-124039501D01*
X92307516Y-124045908D01*
X92172671Y-124096202D01*
X92172664Y-124096206D01*
X92057455Y-124182452D01*
X92057452Y-124182455D01*
X91971206Y-124297664D01*
X91971202Y-124297671D01*
X91920908Y-124432517D01*
X91915633Y-124481588D01*
X91914501Y-124492123D01*
X91914500Y-124492135D01*
X49000000Y-124492135D01*
X49000000Y-122709706D01*
X49019685Y-122642667D01*
X49072489Y-122596912D01*
X49141647Y-122586968D01*
X49205203Y-122615993D01*
X49242977Y-122674771D01*
X49243775Y-122677613D01*
X49251913Y-122707987D01*
X49340091Y-122920866D01*
X49340095Y-122920876D01*
X49455305Y-123120426D01*
X49595578Y-123303233D01*
X49595584Y-123303240D01*
X49758509Y-123466165D01*
X49758516Y-123466171D01*
X49941323Y-123606444D01*
X50140873Y-123721654D01*
X50140874Y-123721654D01*
X50140877Y-123721656D01*
X50353761Y-123809836D01*
X50576334Y-123869474D01*
X50737678Y-123890715D01*
X50804787Y-123899550D01*
X50804788Y-123899550D01*
X51035213Y-123899550D01*
X51087083Y-123892721D01*
X51263666Y-123869474D01*
X51486239Y-123809836D01*
X51699123Y-123721656D01*
X51898677Y-123606444D01*
X52081485Y-123466170D01*
X52244420Y-123303235D01*
X52384694Y-123120427D01*
X52499906Y-122920873D01*
X52588086Y-122707989D01*
X52647724Y-122485416D01*
X52677800Y-122256962D01*
X52677800Y-122026538D01*
X52677800Y-122026537D01*
X59322200Y-122026537D01*
X59322200Y-122256962D01*
X59352274Y-122485405D01*
X59352275Y-122485410D01*
X59352276Y-122485416D01*
X59365287Y-122533973D01*
X59411913Y-122707987D01*
X59500091Y-122920866D01*
X59500095Y-122920876D01*
X59615305Y-123120426D01*
X59755578Y-123303233D01*
X59755584Y-123303240D01*
X59918509Y-123466165D01*
X59918516Y-123466171D01*
X60101323Y-123606444D01*
X60300873Y-123721654D01*
X60300874Y-123721654D01*
X60300877Y-123721656D01*
X60513761Y-123809836D01*
X60736334Y-123869474D01*
X60897678Y-123890715D01*
X60964787Y-123899550D01*
X60964788Y-123899550D01*
X61195213Y-123899550D01*
X61247083Y-123892721D01*
X61423666Y-123869474D01*
X61646239Y-123809836D01*
X61859123Y-123721656D01*
X62058677Y-123606444D01*
X62241485Y-123466170D01*
X62404420Y-123303235D01*
X62544694Y-123120427D01*
X62659906Y-122920873D01*
X62748086Y-122707989D01*
X62807724Y-122485416D01*
X62818971Y-122399983D01*
X69699500Y-122399983D01*
X69699500Y-123600001D01*
X69699501Y-123600018D01*
X69710000Y-123702796D01*
X69710001Y-123702799D01*
X69757856Y-123847213D01*
X69765186Y-123869334D01*
X69857288Y-124018656D01*
X69981344Y-124142712D01*
X70130666Y-124234814D01*
X70297203Y-124289999D01*
X70399991Y-124300500D01*
X71600008Y-124300499D01*
X71702797Y-124289999D01*
X71869334Y-124234814D01*
X72018656Y-124142712D01*
X72142712Y-124018656D01*
X72234814Y-123869334D01*
X72289999Y-123702797D01*
X72300500Y-123600009D01*
X72300499Y-122897648D01*
X80699500Y-122897648D01*
X80699500Y-123102351D01*
X80731522Y-123304534D01*
X80794781Y-123499223D01*
X80887715Y-123681613D01*
X81008028Y-123847213D01*
X81152786Y-123991971D01*
X81296251Y-124096202D01*
X81318390Y-124112287D01*
X81434607Y-124171503D01*
X81500776Y-124205218D01*
X81500778Y-124205218D01*
X81500781Y-124205220D01*
X81591856Y-124234812D01*
X81695465Y-124268477D01*
X81796557Y-124284488D01*
X81897648Y-124300500D01*
X81897649Y-124300500D01*
X82102351Y-124300500D01*
X82102352Y-124300500D01*
X82304534Y-124268477D01*
X82499219Y-124205220D01*
X82681610Y-124112287D01*
X82810482Y-124018657D01*
X82847213Y-123991971D01*
X82847215Y-123991968D01*
X82847219Y-123991966D01*
X82991966Y-123847219D01*
X82991968Y-123847215D01*
X82991971Y-123847213D01*
X83077130Y-123730000D01*
X83112287Y-123681610D01*
X83205220Y-123499219D01*
X83268477Y-123304534D01*
X83300500Y-123102352D01*
X83300500Y-122897648D01*
X83273133Y-122724862D01*
X83268477Y-122695465D01*
X83216009Y-122533986D01*
X83205220Y-122500781D01*
X83205218Y-122500778D01*
X83205218Y-122500776D01*
X83153865Y-122399991D01*
X83112287Y-122318390D01*
X83096892Y-122297200D01*
X82991971Y-122152786D01*
X82847219Y-122008034D01*
X82847211Y-122008027D01*
X82727637Y-121921153D01*
X109199500Y-121921153D01*
X109199500Y-122078846D01*
X109230261Y-122233489D01*
X109230264Y-122233501D01*
X109290602Y-122379172D01*
X109290609Y-122379185D01*
X109378210Y-122510288D01*
X109378213Y-122510292D01*
X109489707Y-122621786D01*
X109489711Y-122621789D01*
X109620814Y-122709390D01*
X109620827Y-122709397D01*
X109739956Y-122758741D01*
X109766503Y-122769737D01*
X109921153Y-122800499D01*
X109921156Y-122800500D01*
X109921158Y-122800500D01*
X110078844Y-122800500D01*
X110078845Y-122800499D01*
X110233497Y-122769737D01*
X110379179Y-122709394D01*
X110510289Y-122621789D01*
X110621789Y-122510289D01*
X110709394Y-122379179D01*
X110769737Y-122233497D01*
X110800500Y-122078842D01*
X110800500Y-121921158D01*
X110800500Y-121921155D01*
X110800499Y-121921153D01*
X110792579Y-121881339D01*
X110769737Y-121766503D01*
X110769192Y-121765187D01*
X110709397Y-121620827D01*
X110709390Y-121620814D01*
X110621789Y-121489711D01*
X110621786Y-121489707D01*
X110510292Y-121378213D01*
X110510288Y-121378210D01*
X110379185Y-121290609D01*
X110379172Y-121290602D01*
X110233501Y-121230264D01*
X110233489Y-121230261D01*
X110078845Y-121199500D01*
X110078842Y-121199500D01*
X109921158Y-121199500D01*
X109921155Y-121199500D01*
X109766510Y-121230261D01*
X109766498Y-121230264D01*
X109620827Y-121290602D01*
X109620814Y-121290609D01*
X109489711Y-121378210D01*
X109489707Y-121378213D01*
X109378213Y-121489707D01*
X109378210Y-121489711D01*
X109290609Y-121620814D01*
X109290602Y-121620827D01*
X109230264Y-121766498D01*
X109230261Y-121766510D01*
X109199500Y-121921153D01*
X82727637Y-121921153D01*
X82681613Y-121887715D01*
X82681612Y-121887714D01*
X82681610Y-121887713D01*
X82621898Y-121857288D01*
X82499223Y-121794781D01*
X82304534Y-121731522D01*
X82129995Y-121703878D01*
X82102352Y-121699500D01*
X81897648Y-121699500D01*
X81873329Y-121703351D01*
X81695465Y-121731522D01*
X81500776Y-121794781D01*
X81318386Y-121887715D01*
X81152786Y-122008028D01*
X81008028Y-122152786D01*
X80887715Y-122318386D01*
X80794781Y-122500776D01*
X80731522Y-122695465D01*
X80699500Y-122897648D01*
X72300499Y-122897648D01*
X72300499Y-122399992D01*
X72289999Y-122297203D01*
X72234814Y-122130666D01*
X72142712Y-121981344D01*
X72018656Y-121857288D01*
X71871481Y-121766510D01*
X71869336Y-121765187D01*
X71869331Y-121765185D01*
X71835245Y-121753890D01*
X71702797Y-121710001D01*
X71702795Y-121710000D01*
X71600010Y-121699500D01*
X70399998Y-121699500D01*
X70399981Y-121699501D01*
X70297203Y-121710000D01*
X70297200Y-121710001D01*
X70130668Y-121765185D01*
X70130663Y-121765187D01*
X69981342Y-121857289D01*
X69857289Y-121981342D01*
X69765187Y-122130663D01*
X69765185Y-122130668D01*
X69764641Y-122132310D01*
X69710001Y-122297203D01*
X69710001Y-122297204D01*
X69710000Y-122297204D01*
X69699500Y-122399983D01*
X62818971Y-122399983D01*
X62837800Y-122256962D01*
X62837800Y-122026538D01*
X62807724Y-121798084D01*
X62748086Y-121575511D01*
X62659906Y-121362627D01*
X62650249Y-121345901D01*
X62544694Y-121163073D01*
X62466561Y-121061248D01*
X62412377Y-120990634D01*
X115864500Y-120990634D01*
X115864500Y-121169366D01*
X115869273Y-121199500D01*
X115892460Y-121345898D01*
X115892460Y-121345901D01*
X115947689Y-121515878D01*
X115947691Y-121515881D01*
X116028833Y-121675132D01*
X116133889Y-121819728D01*
X116260272Y-121946111D01*
X116404868Y-122051167D01*
X116564119Y-122132309D01*
X116564121Y-122132310D01*
X116709685Y-122179606D01*
X116734103Y-122187540D01*
X116910634Y-122215500D01*
X116910635Y-122215500D01*
X117089365Y-122215500D01*
X117089366Y-122215500D01*
X117265897Y-122187540D01*
X117265900Y-122187539D01*
X117265901Y-122187539D01*
X117435878Y-122132310D01*
X117435878Y-122132309D01*
X117435881Y-122132309D01*
X117595132Y-122051167D01*
X117739728Y-121946111D01*
X117854191Y-121831648D01*
X124679500Y-121831648D01*
X124679500Y-122036351D01*
X124711522Y-122238534D01*
X124774781Y-122433223D01*
X124867715Y-122615613D01*
X124988028Y-122781213D01*
X125132786Y-122925971D01*
X125287749Y-123038556D01*
X125298390Y-123046287D01*
X125408422Y-123102351D01*
X125480776Y-123139218D01*
X125480778Y-123139218D01*
X125480781Y-123139220D01*
X125570459Y-123168358D01*
X125675465Y-123202477D01*
X125776557Y-123218488D01*
X125877648Y-123234500D01*
X125877649Y-123234500D01*
X126082351Y-123234500D01*
X126082352Y-123234500D01*
X126284534Y-123202477D01*
X126479219Y-123139220D01*
X126661610Y-123046287D01*
X126755033Y-122978412D01*
X126827213Y-122925971D01*
X126827215Y-122925968D01*
X126827219Y-122925966D01*
X126971966Y-122781219D01*
X127012911Y-122724861D01*
X127068240Y-122682196D01*
X127137853Y-122676215D01*
X127199649Y-122708820D01*
X127230936Y-122758741D01*
X127245642Y-122803121D01*
X127245643Y-122803124D01*
X127337684Y-122952345D01*
X127461654Y-123076315D01*
X127610875Y-123168356D01*
X127610880Y-123168358D01*
X127777302Y-123223505D01*
X127777309Y-123223506D01*
X127880019Y-123233999D01*
X128229999Y-123233999D01*
X128230000Y-123233998D01*
X128230000Y-122249686D01*
X128234394Y-122254080D01*
X128325606Y-122306741D01*
X128427339Y-122334000D01*
X128532661Y-122334000D01*
X128634394Y-122306741D01*
X128725606Y-122254080D01*
X128730000Y-122249686D01*
X128730000Y-123233999D01*
X129079972Y-123233999D01*
X129079986Y-123233998D01*
X129182697Y-123223505D01*
X129349119Y-123168358D01*
X129349124Y-123168356D01*
X129498345Y-123076315D01*
X129622315Y-122952345D01*
X129714356Y-122803124D01*
X129714358Y-122803119D01*
X129769505Y-122636697D01*
X129769506Y-122636690D01*
X129779999Y-122533986D01*
X129780000Y-122533973D01*
X129780000Y-122184000D01*
X128795686Y-122184000D01*
X128800080Y-122179606D01*
X128852741Y-122088394D01*
X128880000Y-121986661D01*
X128880000Y-121881339D01*
X128852741Y-121779606D01*
X128800080Y-121688394D01*
X128795686Y-121684000D01*
X129779999Y-121684000D01*
X129779999Y-121334028D01*
X129779998Y-121334013D01*
X129769505Y-121231302D01*
X129714358Y-121064880D01*
X129714356Y-121064875D01*
X129622315Y-120915654D01*
X129498345Y-120791684D01*
X129349124Y-120699643D01*
X129349119Y-120699641D01*
X129182697Y-120644494D01*
X129182690Y-120644493D01*
X129079986Y-120634000D01*
X128730000Y-120634000D01*
X128730000Y-121618314D01*
X128725606Y-121613920D01*
X128634394Y-121561259D01*
X128532661Y-121534000D01*
X128427339Y-121534000D01*
X128325606Y-121561259D01*
X128234394Y-121613920D01*
X128230000Y-121618314D01*
X128230000Y-120634000D01*
X127880028Y-120634000D01*
X127880012Y-120634001D01*
X127777302Y-120644494D01*
X127610880Y-120699641D01*
X127610875Y-120699643D01*
X127461654Y-120791684D01*
X127337684Y-120915654D01*
X127245643Y-121064875D01*
X127245638Y-121064886D01*
X127230935Y-121109258D01*
X127191162Y-121166703D01*
X127126646Y-121193525D01*
X127057870Y-121181209D01*
X127012911Y-121143138D01*
X126971969Y-121086786D01*
X126971966Y-121086781D01*
X126827219Y-120942034D01*
X126827213Y-120942028D01*
X126661613Y-120821715D01*
X126661612Y-120821714D01*
X126661610Y-120821713D01*
X126602675Y-120791684D01*
X126479223Y-120728781D01*
X126284534Y-120665522D01*
X126109995Y-120637878D01*
X126082352Y-120633500D01*
X125877648Y-120633500D01*
X125853329Y-120637351D01*
X125675465Y-120665522D01*
X125480776Y-120728781D01*
X125298386Y-120821715D01*
X125132786Y-120942028D01*
X124988028Y-121086786D01*
X124867715Y-121252386D01*
X124774781Y-121434776D01*
X124711522Y-121629465D01*
X124679500Y-121831648D01*
X117854191Y-121831648D01*
X117866111Y-121819728D01*
X117971167Y-121675132D01*
X118052309Y-121515881D01*
X118102104Y-121362627D01*
X118107539Y-121345901D01*
X118107539Y-121345900D01*
X118107540Y-121345897D01*
X118135500Y-121169366D01*
X118135500Y-120990634D01*
X118107540Y-120814103D01*
X118107539Y-120814099D01*
X118107539Y-120814098D01*
X118052310Y-120644121D01*
X118052308Y-120644118D01*
X118047154Y-120634001D01*
X117971167Y-120484868D01*
X117866111Y-120340272D01*
X117739728Y-120213889D01*
X117595132Y-120108833D01*
X117435881Y-120027691D01*
X117435878Y-120027689D01*
X117265899Y-119972460D01*
X117148209Y-119953820D01*
X117089366Y-119944500D01*
X116910634Y-119944500D01*
X116851790Y-119953820D01*
X116734101Y-119972460D01*
X116734098Y-119972460D01*
X116564121Y-120027689D01*
X116564118Y-120027691D01*
X116404867Y-120108833D01*
X116260270Y-120213890D01*
X116133890Y-120340270D01*
X116028833Y-120484867D01*
X115947691Y-120644118D01*
X115947689Y-120644121D01*
X115892460Y-120814098D01*
X115892460Y-120814101D01*
X115870919Y-120950104D01*
X115864500Y-120990634D01*
X62412377Y-120990634D01*
X62404421Y-120980266D01*
X62404415Y-120980259D01*
X62241490Y-120817334D01*
X62241483Y-120817328D01*
X62058676Y-120677055D01*
X61859126Y-120561845D01*
X61859116Y-120561841D01*
X61646237Y-120473663D01*
X61514676Y-120438412D01*
X61423666Y-120414026D01*
X61423660Y-120414025D01*
X61423655Y-120414024D01*
X61195213Y-120383950D01*
X61195212Y-120383950D01*
X60964788Y-120383950D01*
X60964787Y-120383950D01*
X60736344Y-120414024D01*
X60736337Y-120414025D01*
X60736334Y-120414026D01*
X60689296Y-120426629D01*
X60513762Y-120473663D01*
X60300883Y-120561841D01*
X60300873Y-120561845D01*
X60101323Y-120677055D01*
X59918516Y-120817328D01*
X59918509Y-120817334D01*
X59755584Y-120980259D01*
X59755578Y-120980266D01*
X59615305Y-121163073D01*
X59500095Y-121362623D01*
X59500091Y-121362633D01*
X59411913Y-121575512D01*
X59352277Y-121798081D01*
X59352274Y-121798094D01*
X59322200Y-122026537D01*
X52677800Y-122026537D01*
X52647724Y-121798084D01*
X52588086Y-121575511D01*
X52499906Y-121362627D01*
X52490249Y-121345901D01*
X52384694Y-121163073D01*
X52244421Y-120980266D01*
X52244415Y-120980259D01*
X52081490Y-120817334D01*
X52081483Y-120817328D01*
X51898676Y-120677055D01*
X51699126Y-120561845D01*
X51699116Y-120561841D01*
X51486237Y-120473663D01*
X51354676Y-120438412D01*
X51263666Y-120414026D01*
X51263660Y-120414025D01*
X51263655Y-120414024D01*
X51035213Y-120383950D01*
X51035212Y-120383950D01*
X50804788Y-120383950D01*
X50804787Y-120383950D01*
X50576344Y-120414024D01*
X50576337Y-120414025D01*
X50576334Y-120414026D01*
X50529296Y-120426629D01*
X50353762Y-120473663D01*
X50140883Y-120561841D01*
X50140873Y-120561845D01*
X49941323Y-120677055D01*
X49758516Y-120817328D01*
X49758509Y-120817334D01*
X49595584Y-120980259D01*
X49595578Y-120980266D01*
X49455305Y-121163073D01*
X49340095Y-121362623D01*
X49340091Y-121362633D01*
X49251914Y-121575510D01*
X49243775Y-121605887D01*
X49207410Y-121665547D01*
X49144562Y-121696076D01*
X49075187Y-121687781D01*
X49021309Y-121643296D01*
X49000035Y-121576743D01*
X49000000Y-121573793D01*
X49000000Y-112124000D01*
X49019685Y-112056961D01*
X49072489Y-112011206D01*
X49124000Y-112000000D01*
X52761392Y-112000000D01*
X52828431Y-112019685D01*
G37*
%TD.AperFunction*%
%TD*%
M02*
