M48
; DRILL file KiCad 10.0.0 date 2026-05-07T12:35:33
; FORMAT={-:-/ absolute / metric / decimal}
; #@! TF.CreationDate,2026-05-07T12:35:33-07:00
; #@! TF.GenerationSoftware,Kicad,Pcbnew,10.0.0
; #@! TF.FileFunction,Plated,1,4,PTH
FMAT,2
METRIC
; #@! TA.AperFunction,Plated,PTH,ViaDrill
T1C0.300
; #@! TA.AperFunction,Plated,PTH,ComponentDrill
T2C0.700
; #@! TA.AperFunction,Plated,PTH,ComponentDrill
T3C0.762
; #@! TA.AperFunction,Plated,PTH,ComponentDrill
T4C0.800
; #@! TA.AperFunction,Plated,PTH,ComponentDrill
T5C0.889
; #@! TA.AperFunction,Plated,PTH,ComponentDrill
T6C0.900
; #@! TA.AperFunction,Plated,PTH,ComponentDrill
T7C1.000
; #@! TA.AperFunction,Plated,PTH,ComponentDrill
T8C1.500
; #@! TA.AperFunction,Plated,PTH,ComponentDrill
T9C2.007
%
G90
G05
T1
X69.0Y-109.0
X74.0Y-111.0
X78.0Y-109.0
X86.0Y-109.0
X91.0Y-111.0
X95.0Y-109.0
X103.0Y-109.0
X108.0Y-111.0
X108.0Y-127.0
X110.0Y-122.0
X112.0Y-109.0
X127.0Y-137.0
X127.0Y-140.0
X127.0Y-145.0
X130.5Y-138.5
X135.0Y-103.0
X148.0Y-100.0
X149.0Y-99.0
X150.0Y-98.0
X151.0Y-97.0
X152.0Y-96.0
X153.0Y-95.0
T2
X122.94Y-131.934
X128.02Y-131.934
X129.0Y-135.54
X134.08Y-135.54
T3
X70.095Y-138.0
X75.175Y-138.0
X78.0Y-147.0
X83.08Y-147.0
X93.05Y-125.175
X93.05Y-127.715
X98.05Y-125.175
X98.05Y-127.715
X103.05Y-125.175
X103.05Y-127.715
X105.46Y-145.0
X107.0Y-117.0
X108.0Y-131.92
X108.0Y-137.0
X108.0Y-145.0
X109.54Y-117.0
X113.0Y-148.0
X115.54Y-148.0
X117.0Y-116.0
X117.0Y-121.08
X118.0Y-137.0
X120.46Y-148.0
X120.54Y-137.0
X123.0Y-148.0
T4
X71.0Y-123.0
X71.0Y-130.62
X82.0Y-123.0
X82.0Y-130.62
X89.0Y-130.38
X89.0Y-138.0
X89.0Y-146.0
X96.62Y-146.0
X125.98Y-121.934
X126.48Y-103.934
X126.48Y-109.934
X126.48Y-115.934
X128.48Y-103.934
X128.48Y-109.934
X128.48Y-115.934
X128.48Y-121.934
T5
X53.46Y-113.252
X56.0Y-113.252
X56.0Y-115.792
X58.54Y-113.252
T6
X54.0Y-94.0
X54.0Y-104.0
X56.5Y-94.0
X56.5Y-104.0
X59.0Y-94.0
X59.0Y-104.0
T7
X71.0Y-92.0
X71.0Y-106.5
X73.5Y-106.5
X76.0Y-92.0
X76.0Y-106.5
X88.0Y-92.0
X88.0Y-106.5
X90.5Y-106.5
X93.0Y-92.0
X93.0Y-106.5
X105.0Y-92.0
X105.0Y-106.5
X107.5Y-106.5
X110.0Y-92.0
X110.0Y-106.5
X138.0Y-99.6
X138.0Y-102.14
X138.0Y-104.68
X138.0Y-107.22
X138.0Y-109.76
X138.0Y-112.3
X138.0Y-114.84
X138.0Y-117.38
X138.0Y-119.92
X138.0Y-122.46
X138.0Y-125.0
X138.0Y-127.54
X138.0Y-130.08
X138.0Y-132.62
X138.0Y-135.16
X138.0Y-137.7
X138.0Y-140.24
X138.0Y-142.78
X138.0Y-145.32
X138.0Y-147.86
X157.704Y-99.698
X157.704Y-102.238
X157.704Y-104.778
X157.704Y-107.318
X157.704Y-109.858
X157.704Y-112.398
X157.704Y-114.938
X157.704Y-117.478
X157.704Y-120.018
X157.704Y-122.558
X157.704Y-125.098
X157.704Y-127.638
X157.704Y-130.178
X157.704Y-132.718
X157.704Y-135.258
X157.704Y-137.798
X157.704Y-140.338
X157.704Y-142.878
X157.704Y-145.418
X157.704Y-147.958
T9
X50.92Y-122.142
X61.08Y-122.142
T8
G00X67.9Y-99.65
M15
G01X67.9Y-98.35
M16
G05
G00X79.1Y-99.65
M15
G01X79.1Y-98.35
M16
G05
G00X84.9Y-99.65
M15
G01X84.9Y-98.35
M16
G05
G00X96.1Y-99.65
M15
G01X96.1Y-98.35
M16
G05
G00X101.9Y-99.65
M15
G01X101.9Y-98.35
M16
G05
G00X113.1Y-99.65
M15
G01X113.1Y-98.35
M16
G05
M30
