%TF.GenerationSoftware,KiCad,Pcbnew,10.0.0*%
%TF.CreationDate,2026-05-07T12:36:50-07:00*%
%TF.ProjectId,input_conditioning_r2,696e7075-745f-4636-9f6e-646974696f6e,1*%
%TF.SameCoordinates,Original*%
%TF.FileFunction,Legend,Top*%
%TF.FilePolarity,Positive*%
%FSLAX46Y46*%
G04 Gerber Fmt 4.6, Leading zero omitted, Abs format (unit mm)*
G04 Created by KiCad (PCBNEW 10.0.0) date 2026-05-07 12:36:50*
%MOMM*%
%LPD*%
G01*
G04 APERTURE LIST*
%ADD10C,0.150000*%
%ADD11C,0.152400*%
%ADD12C,0.120000*%
%ADD13C,0.127000*%
%ADD14C,0.200000*%
G04 APERTURE END LIST*
D10*
X114738095Y-143454819D02*
X114738095Y-144264342D01*
X114738095Y-144264342D02*
X114785714Y-144359580D01*
X114785714Y-144359580D02*
X114833333Y-144407200D01*
X114833333Y-144407200D02*
X114928571Y-144454819D01*
X114928571Y-144454819D02*
X115119047Y-144454819D01*
X115119047Y-144454819D02*
X115214285Y-144407200D01*
X115214285Y-144407200D02*
X115261904Y-144359580D01*
X115261904Y-144359580D02*
X115309523Y-144264342D01*
X115309523Y-144264342D02*
X115309523Y-143454819D01*
X115738095Y-143550057D02*
X115785714Y-143502438D01*
X115785714Y-143502438D02*
X115880952Y-143454819D01*
X115880952Y-143454819D02*
X116119047Y-143454819D01*
X116119047Y-143454819D02*
X116214285Y-143502438D01*
X116214285Y-143502438D02*
X116261904Y-143550057D01*
X116261904Y-143550057D02*
X116309523Y-143645295D01*
X116309523Y-143645295D02*
X116309523Y-143740533D01*
X116309523Y-143740533D02*
X116261904Y-143883390D01*
X116261904Y-143883390D02*
X115690476Y-144454819D01*
X115690476Y-144454819D02*
X116309523Y-144454819D01*
X114500000Y-137954819D02*
X114500000Y-138192914D01*
X114261905Y-138097676D02*
X114500000Y-138192914D01*
X114500000Y-138192914D02*
X114738095Y-138097676D01*
X114357143Y-138383390D02*
X114500000Y-138192914D01*
X114500000Y-138192914D02*
X114642857Y-138383390D01*
X114500000Y-137954819D02*
X114500000Y-138192914D01*
X114261905Y-138097676D02*
X114500000Y-138192914D01*
X114500000Y-138192914D02*
X114738095Y-138097676D01*
X114357143Y-138383390D02*
X114500000Y-138192914D01*
X114500000Y-138192914D02*
X114642857Y-138383390D01*
X107357142Y-129454819D02*
X107023809Y-128978628D01*
X106785714Y-129454819D02*
X106785714Y-128454819D01*
X106785714Y-128454819D02*
X107166666Y-128454819D01*
X107166666Y-128454819D02*
X107261904Y-128502438D01*
X107261904Y-128502438D02*
X107309523Y-128550057D01*
X107309523Y-128550057D02*
X107357142Y-128645295D01*
X107357142Y-128645295D02*
X107357142Y-128788152D01*
X107357142Y-128788152D02*
X107309523Y-128883390D01*
X107309523Y-128883390D02*
X107261904Y-128931009D01*
X107261904Y-128931009D02*
X107166666Y-128978628D01*
X107166666Y-128978628D02*
X106785714Y-128978628D01*
X107738095Y-128550057D02*
X107785714Y-128502438D01*
X107785714Y-128502438D02*
X107880952Y-128454819D01*
X107880952Y-128454819D02*
X108119047Y-128454819D01*
X108119047Y-128454819D02*
X108214285Y-128502438D01*
X108214285Y-128502438D02*
X108261904Y-128550057D01*
X108261904Y-128550057D02*
X108309523Y-128645295D01*
X108309523Y-128645295D02*
X108309523Y-128740533D01*
X108309523Y-128740533D02*
X108261904Y-128883390D01*
X108261904Y-128883390D02*
X107690476Y-129454819D01*
X107690476Y-129454819D02*
X108309523Y-129454819D01*
X109166666Y-128454819D02*
X108976190Y-128454819D01*
X108976190Y-128454819D02*
X108880952Y-128502438D01*
X108880952Y-128502438D02*
X108833333Y-128550057D01*
X108833333Y-128550057D02*
X108738095Y-128692914D01*
X108738095Y-128692914D02*
X108690476Y-128883390D01*
X108690476Y-128883390D02*
X108690476Y-129264342D01*
X108690476Y-129264342D02*
X108738095Y-129359580D01*
X108738095Y-129359580D02*
X108785714Y-129407200D01*
X108785714Y-129407200D02*
X108880952Y-129454819D01*
X108880952Y-129454819D02*
X109071428Y-129454819D01*
X109071428Y-129454819D02*
X109166666Y-129407200D01*
X109166666Y-129407200D02*
X109214285Y-129359580D01*
X109214285Y-129359580D02*
X109261904Y-129264342D01*
X109261904Y-129264342D02*
X109261904Y-129026247D01*
X109261904Y-129026247D02*
X109214285Y-128931009D01*
X109214285Y-128931009D02*
X109166666Y-128883390D01*
X109166666Y-128883390D02*
X109071428Y-128835771D01*
X109071428Y-128835771D02*
X108880952Y-128835771D01*
X108880952Y-128835771D02*
X108785714Y-128883390D01*
X108785714Y-128883390D02*
X108738095Y-128931009D01*
X108738095Y-128931009D02*
X108690476Y-129026247D01*
X95140419Y-124357142D02*
X95092800Y-124309523D01*
X95092800Y-124309523D02*
X95045180Y-124166666D01*
X95045180Y-124166666D02*
X95045180Y-124071428D01*
X95045180Y-124071428D02*
X95092800Y-123928571D01*
X95092800Y-123928571D02*
X95188038Y-123833333D01*
X95188038Y-123833333D02*
X95283276Y-123785714D01*
X95283276Y-123785714D02*
X95473752Y-123738095D01*
X95473752Y-123738095D02*
X95616609Y-123738095D01*
X95616609Y-123738095D02*
X95807085Y-123785714D01*
X95807085Y-123785714D02*
X95902323Y-123833333D01*
X95902323Y-123833333D02*
X95997561Y-123928571D01*
X95997561Y-123928571D02*
X96045180Y-124071428D01*
X96045180Y-124071428D02*
X96045180Y-124166666D01*
X96045180Y-124166666D02*
X95997561Y-124309523D01*
X95997561Y-124309523D02*
X95949942Y-124357142D01*
X96045180Y-124690476D02*
X96045180Y-125309523D01*
X96045180Y-125309523D02*
X95664228Y-124976190D01*
X95664228Y-124976190D02*
X95664228Y-125119047D01*
X95664228Y-125119047D02*
X95616609Y-125214285D01*
X95616609Y-125214285D02*
X95568990Y-125261904D01*
X95568990Y-125261904D02*
X95473752Y-125309523D01*
X95473752Y-125309523D02*
X95235657Y-125309523D01*
X95235657Y-125309523D02*
X95140419Y-125261904D01*
X95140419Y-125261904D02*
X95092800Y-125214285D01*
X95092800Y-125214285D02*
X95045180Y-125119047D01*
X95045180Y-125119047D02*
X95045180Y-124833333D01*
X95045180Y-124833333D02*
X95092800Y-124738095D01*
X95092800Y-124738095D02*
X95140419Y-124690476D01*
X95045180Y-125785714D02*
X95045180Y-125976190D01*
X95045180Y-125976190D02*
X95092800Y-126071428D01*
X95092800Y-126071428D02*
X95140419Y-126119047D01*
X95140419Y-126119047D02*
X95283276Y-126214285D01*
X95283276Y-126214285D02*
X95473752Y-126261904D01*
X95473752Y-126261904D02*
X95854704Y-126261904D01*
X95854704Y-126261904D02*
X95949942Y-126214285D01*
X95949942Y-126214285D02*
X95997561Y-126166666D01*
X95997561Y-126166666D02*
X96045180Y-126071428D01*
X96045180Y-126071428D02*
X96045180Y-125880952D01*
X96045180Y-125880952D02*
X95997561Y-125785714D01*
X95997561Y-125785714D02*
X95949942Y-125738095D01*
X95949942Y-125738095D02*
X95854704Y-125690476D01*
X95854704Y-125690476D02*
X95616609Y-125690476D01*
X95616609Y-125690476D02*
X95521371Y-125738095D01*
X95521371Y-125738095D02*
X95473752Y-125785714D01*
X95473752Y-125785714D02*
X95426133Y-125880952D01*
X95426133Y-125880952D02*
X95426133Y-126071428D01*
X95426133Y-126071428D02*
X95473752Y-126166666D01*
X95473752Y-126166666D02*
X95521371Y-126214285D01*
X95521371Y-126214285D02*
X95616609Y-126261904D01*
X96357142Y-139954819D02*
X96023809Y-139478628D01*
X95785714Y-139954819D02*
X95785714Y-138954819D01*
X95785714Y-138954819D02*
X96166666Y-138954819D01*
X96166666Y-138954819D02*
X96261904Y-139002438D01*
X96261904Y-139002438D02*
X96309523Y-139050057D01*
X96309523Y-139050057D02*
X96357142Y-139145295D01*
X96357142Y-139145295D02*
X96357142Y-139288152D01*
X96357142Y-139288152D02*
X96309523Y-139383390D01*
X96309523Y-139383390D02*
X96261904Y-139431009D01*
X96261904Y-139431009D02*
X96166666Y-139478628D01*
X96166666Y-139478628D02*
X95785714Y-139478628D01*
X96738095Y-139050057D02*
X96785714Y-139002438D01*
X96785714Y-139002438D02*
X96880952Y-138954819D01*
X96880952Y-138954819D02*
X97119047Y-138954819D01*
X97119047Y-138954819D02*
X97214285Y-139002438D01*
X97214285Y-139002438D02*
X97261904Y-139050057D01*
X97261904Y-139050057D02*
X97309523Y-139145295D01*
X97309523Y-139145295D02*
X97309523Y-139240533D01*
X97309523Y-139240533D02*
X97261904Y-139383390D01*
X97261904Y-139383390D02*
X96690476Y-139954819D01*
X96690476Y-139954819D02*
X97309523Y-139954819D01*
X97690476Y-139050057D02*
X97738095Y-139002438D01*
X97738095Y-139002438D02*
X97833333Y-138954819D01*
X97833333Y-138954819D02*
X98071428Y-138954819D01*
X98071428Y-138954819D02*
X98166666Y-139002438D01*
X98166666Y-139002438D02*
X98214285Y-139050057D01*
X98214285Y-139050057D02*
X98261904Y-139145295D01*
X98261904Y-139145295D02*
X98261904Y-139240533D01*
X98261904Y-139240533D02*
X98214285Y-139383390D01*
X98214285Y-139383390D02*
X97642857Y-139954819D01*
X97642857Y-139954819D02*
X98261904Y-139954819D01*
X137666666Y-150084819D02*
X137666666Y-150799104D01*
X137666666Y-150799104D02*
X137619047Y-150941961D01*
X137619047Y-150941961D02*
X137523809Y-151037200D01*
X137523809Y-151037200D02*
X137380952Y-151084819D01*
X137380952Y-151084819D02*
X137285714Y-151084819D01*
X138666666Y-151084819D02*
X138095238Y-151084819D01*
X138380952Y-151084819D02*
X138380952Y-150084819D01*
X138380952Y-150084819D02*
X138285714Y-150227676D01*
X138285714Y-150227676D02*
X138190476Y-150322914D01*
X138190476Y-150322914D02*
X138095238Y-150370533D01*
X99824295Y-118359069D02*
X99824295Y-119168592D01*
X99824295Y-119168592D02*
X99871914Y-119263830D01*
X99871914Y-119263830D02*
X99919533Y-119311450D01*
X99919533Y-119311450D02*
X100014771Y-119359069D01*
X100014771Y-119359069D02*
X100205247Y-119359069D01*
X100205247Y-119359069D02*
X100300485Y-119311450D01*
X100300485Y-119311450D02*
X100348104Y-119263830D01*
X100348104Y-119263830D02*
X100395723Y-119168592D01*
X100395723Y-119168592D02*
X100395723Y-118359069D01*
X101395723Y-119359069D02*
X100824295Y-119359069D01*
X101110009Y-119359069D02*
X101110009Y-118359069D01*
X101110009Y-118359069D02*
X101014771Y-118501926D01*
X101014771Y-118501926D02*
X100919533Y-118597164D01*
X100919533Y-118597164D02*
X100824295Y-118644783D01*
X97868400Y-115454819D02*
X97868400Y-115692914D01*
X97630305Y-115597676D02*
X97868400Y-115692914D01*
X97868400Y-115692914D02*
X98106495Y-115597676D01*
X97725543Y-115883390D02*
X97868400Y-115692914D01*
X97868400Y-115692914D02*
X98011257Y-115883390D01*
X97868400Y-114752269D02*
X97868400Y-114990364D01*
X97630305Y-114895126D02*
X97868400Y-114990364D01*
X97868400Y-114990364D02*
X98106495Y-114895126D01*
X97725543Y-115180840D02*
X97868400Y-114990364D01*
X97868400Y-114990364D02*
X98011257Y-115180840D01*
X107857142Y-147859580D02*
X107809523Y-147907200D01*
X107809523Y-147907200D02*
X107666666Y-147954819D01*
X107666666Y-147954819D02*
X107571428Y-147954819D01*
X107571428Y-147954819D02*
X107428571Y-147907200D01*
X107428571Y-147907200D02*
X107333333Y-147811961D01*
X107333333Y-147811961D02*
X107285714Y-147716723D01*
X107285714Y-147716723D02*
X107238095Y-147526247D01*
X107238095Y-147526247D02*
X107238095Y-147383390D01*
X107238095Y-147383390D02*
X107285714Y-147192914D01*
X107285714Y-147192914D02*
X107333333Y-147097676D01*
X107333333Y-147097676D02*
X107428571Y-147002438D01*
X107428571Y-147002438D02*
X107571428Y-146954819D01*
X107571428Y-146954819D02*
X107666666Y-146954819D01*
X107666666Y-146954819D02*
X107809523Y-147002438D01*
X107809523Y-147002438D02*
X107857142Y-147050057D01*
X108190476Y-146954819D02*
X108809523Y-146954819D01*
X108809523Y-146954819D02*
X108476190Y-147335771D01*
X108476190Y-147335771D02*
X108619047Y-147335771D01*
X108619047Y-147335771D02*
X108714285Y-147383390D01*
X108714285Y-147383390D02*
X108761904Y-147431009D01*
X108761904Y-147431009D02*
X108809523Y-147526247D01*
X108809523Y-147526247D02*
X108809523Y-147764342D01*
X108809523Y-147764342D02*
X108761904Y-147859580D01*
X108761904Y-147859580D02*
X108714285Y-147907200D01*
X108714285Y-147907200D02*
X108619047Y-147954819D01*
X108619047Y-147954819D02*
X108333333Y-147954819D01*
X108333333Y-147954819D02*
X108238095Y-147907200D01*
X108238095Y-147907200D02*
X108190476Y-147859580D01*
X109380952Y-147383390D02*
X109285714Y-147335771D01*
X109285714Y-147335771D02*
X109238095Y-147288152D01*
X109238095Y-147288152D02*
X109190476Y-147192914D01*
X109190476Y-147192914D02*
X109190476Y-147145295D01*
X109190476Y-147145295D02*
X109238095Y-147050057D01*
X109238095Y-147050057D02*
X109285714Y-147002438D01*
X109285714Y-147002438D02*
X109380952Y-146954819D01*
X109380952Y-146954819D02*
X109571428Y-146954819D01*
X109571428Y-146954819D02*
X109666666Y-147002438D01*
X109666666Y-147002438D02*
X109714285Y-147050057D01*
X109714285Y-147050057D02*
X109761904Y-147145295D01*
X109761904Y-147145295D02*
X109761904Y-147192914D01*
X109761904Y-147192914D02*
X109714285Y-147288152D01*
X109714285Y-147288152D02*
X109666666Y-147335771D01*
X109666666Y-147335771D02*
X109571428Y-147383390D01*
X109571428Y-147383390D02*
X109380952Y-147383390D01*
X109380952Y-147383390D02*
X109285714Y-147431009D01*
X109285714Y-147431009D02*
X109238095Y-147478628D01*
X109238095Y-147478628D02*
X109190476Y-147573866D01*
X109190476Y-147573866D02*
X109190476Y-147764342D01*
X109190476Y-147764342D02*
X109238095Y-147859580D01*
X109238095Y-147859580D02*
X109285714Y-147907200D01*
X109285714Y-147907200D02*
X109380952Y-147954819D01*
X109380952Y-147954819D02*
X109571428Y-147954819D01*
X109571428Y-147954819D02*
X109666666Y-147907200D01*
X109666666Y-147907200D02*
X109714285Y-147859580D01*
X109714285Y-147859580D02*
X109761904Y-147764342D01*
X109761904Y-147764342D02*
X109761904Y-147573866D01*
X109761904Y-147573866D02*
X109714285Y-147478628D01*
X109714285Y-147478628D02*
X109666666Y-147431009D01*
X109666666Y-147431009D02*
X109571428Y-147383390D01*
X123333333Y-105859580D02*
X123285714Y-105907200D01*
X123285714Y-105907200D02*
X123142857Y-105954819D01*
X123142857Y-105954819D02*
X123047619Y-105954819D01*
X123047619Y-105954819D02*
X122904762Y-105907200D01*
X122904762Y-105907200D02*
X122809524Y-105811961D01*
X122809524Y-105811961D02*
X122761905Y-105716723D01*
X122761905Y-105716723D02*
X122714286Y-105526247D01*
X122714286Y-105526247D02*
X122714286Y-105383390D01*
X122714286Y-105383390D02*
X122761905Y-105192914D01*
X122761905Y-105192914D02*
X122809524Y-105097676D01*
X122809524Y-105097676D02*
X122904762Y-105002438D01*
X122904762Y-105002438D02*
X123047619Y-104954819D01*
X123047619Y-104954819D02*
X123142857Y-104954819D01*
X123142857Y-104954819D02*
X123285714Y-105002438D01*
X123285714Y-105002438D02*
X123333333Y-105050057D01*
X123666667Y-104954819D02*
X124285714Y-104954819D01*
X124285714Y-104954819D02*
X123952381Y-105335771D01*
X123952381Y-105335771D02*
X124095238Y-105335771D01*
X124095238Y-105335771D02*
X124190476Y-105383390D01*
X124190476Y-105383390D02*
X124238095Y-105431009D01*
X124238095Y-105431009D02*
X124285714Y-105526247D01*
X124285714Y-105526247D02*
X124285714Y-105764342D01*
X124285714Y-105764342D02*
X124238095Y-105859580D01*
X124238095Y-105859580D02*
X124190476Y-105907200D01*
X124190476Y-105907200D02*
X124095238Y-105954819D01*
X124095238Y-105954819D02*
X123809524Y-105954819D01*
X123809524Y-105954819D02*
X123714286Y-105907200D01*
X123714286Y-105907200D02*
X123666667Y-105859580D01*
X131974642Y-140723580D02*
X131927023Y-140771200D01*
X131927023Y-140771200D02*
X131784166Y-140818819D01*
X131784166Y-140818819D02*
X131688928Y-140818819D01*
X131688928Y-140818819D02*
X131546071Y-140771200D01*
X131546071Y-140771200D02*
X131450833Y-140675961D01*
X131450833Y-140675961D02*
X131403214Y-140580723D01*
X131403214Y-140580723D02*
X131355595Y-140390247D01*
X131355595Y-140390247D02*
X131355595Y-140247390D01*
X131355595Y-140247390D02*
X131403214Y-140056914D01*
X131403214Y-140056914D02*
X131450833Y-139961676D01*
X131450833Y-139961676D02*
X131546071Y-139866438D01*
X131546071Y-139866438D02*
X131688928Y-139818819D01*
X131688928Y-139818819D02*
X131784166Y-139818819D01*
X131784166Y-139818819D02*
X131927023Y-139866438D01*
X131927023Y-139866438D02*
X131974642Y-139914057D01*
X132307976Y-139818819D02*
X132927023Y-139818819D01*
X132927023Y-139818819D02*
X132593690Y-140199771D01*
X132593690Y-140199771D02*
X132736547Y-140199771D01*
X132736547Y-140199771D02*
X132831785Y-140247390D01*
X132831785Y-140247390D02*
X132879404Y-140295009D01*
X132879404Y-140295009D02*
X132927023Y-140390247D01*
X132927023Y-140390247D02*
X132927023Y-140628342D01*
X132927023Y-140628342D02*
X132879404Y-140723580D01*
X132879404Y-140723580D02*
X132831785Y-140771200D01*
X132831785Y-140771200D02*
X132736547Y-140818819D01*
X132736547Y-140818819D02*
X132450833Y-140818819D01*
X132450833Y-140818819D02*
X132355595Y-140771200D01*
X132355595Y-140771200D02*
X132307976Y-140723580D01*
X133879404Y-140818819D02*
X133307976Y-140818819D01*
X133593690Y-140818819D02*
X133593690Y-139818819D01*
X133593690Y-139818819D02*
X133498452Y-139961676D01*
X133498452Y-139961676D02*
X133403214Y-140056914D01*
X133403214Y-140056914D02*
X133307976Y-140104533D01*
X124837142Y-130468819D02*
X124503809Y-129992628D01*
X124265714Y-130468819D02*
X124265714Y-129468819D01*
X124265714Y-129468819D02*
X124646666Y-129468819D01*
X124646666Y-129468819D02*
X124741904Y-129516438D01*
X124741904Y-129516438D02*
X124789523Y-129564057D01*
X124789523Y-129564057D02*
X124837142Y-129659295D01*
X124837142Y-129659295D02*
X124837142Y-129802152D01*
X124837142Y-129802152D02*
X124789523Y-129897390D01*
X124789523Y-129897390D02*
X124741904Y-129945009D01*
X124741904Y-129945009D02*
X124646666Y-129992628D01*
X124646666Y-129992628D02*
X124265714Y-129992628D01*
X125218095Y-129564057D02*
X125265714Y-129516438D01*
X125265714Y-129516438D02*
X125360952Y-129468819D01*
X125360952Y-129468819D02*
X125599047Y-129468819D01*
X125599047Y-129468819D02*
X125694285Y-129516438D01*
X125694285Y-129516438D02*
X125741904Y-129564057D01*
X125741904Y-129564057D02*
X125789523Y-129659295D01*
X125789523Y-129659295D02*
X125789523Y-129754533D01*
X125789523Y-129754533D02*
X125741904Y-129897390D01*
X125741904Y-129897390D02*
X125170476Y-130468819D01*
X125170476Y-130468819D02*
X125789523Y-130468819D01*
X126122857Y-129468819D02*
X126741904Y-129468819D01*
X126741904Y-129468819D02*
X126408571Y-129849771D01*
X126408571Y-129849771D02*
X126551428Y-129849771D01*
X126551428Y-129849771D02*
X126646666Y-129897390D01*
X126646666Y-129897390D02*
X126694285Y-129945009D01*
X126694285Y-129945009D02*
X126741904Y-130040247D01*
X126741904Y-130040247D02*
X126741904Y-130278342D01*
X126741904Y-130278342D02*
X126694285Y-130373580D01*
X126694285Y-130373580D02*
X126646666Y-130421200D01*
X126646666Y-130421200D02*
X126551428Y-130468819D01*
X126551428Y-130468819D02*
X126265714Y-130468819D01*
X126265714Y-130468819D02*
X126170476Y-130421200D01*
X126170476Y-130421200D02*
X126122857Y-130373580D01*
X83407200Y-103833332D02*
X83454819Y-103690475D01*
X83454819Y-103690475D02*
X83454819Y-103452380D01*
X83454819Y-103452380D02*
X83407200Y-103357142D01*
X83407200Y-103357142D02*
X83359580Y-103309523D01*
X83359580Y-103309523D02*
X83264342Y-103261904D01*
X83264342Y-103261904D02*
X83169104Y-103261904D01*
X83169104Y-103261904D02*
X83073866Y-103309523D01*
X83073866Y-103309523D02*
X83026247Y-103357142D01*
X83026247Y-103357142D02*
X82978628Y-103452380D01*
X82978628Y-103452380D02*
X82931009Y-103642856D01*
X82931009Y-103642856D02*
X82883390Y-103738094D01*
X82883390Y-103738094D02*
X82835771Y-103785713D01*
X82835771Y-103785713D02*
X82740533Y-103833332D01*
X82740533Y-103833332D02*
X82645295Y-103833332D01*
X82645295Y-103833332D02*
X82550057Y-103785713D01*
X82550057Y-103785713D02*
X82502438Y-103738094D01*
X82502438Y-103738094D02*
X82454819Y-103642856D01*
X82454819Y-103642856D02*
X82454819Y-103404761D01*
X82454819Y-103404761D02*
X82502438Y-103261904D01*
X82454819Y-102928570D02*
X83454819Y-102690475D01*
X83454819Y-102690475D02*
X82740533Y-102499999D01*
X82740533Y-102499999D02*
X83454819Y-102309523D01*
X83454819Y-102309523D02*
X82454819Y-102071428D01*
X82550057Y-101738094D02*
X82502438Y-101690475D01*
X82502438Y-101690475D02*
X82454819Y-101595237D01*
X82454819Y-101595237D02*
X82454819Y-101357142D01*
X82454819Y-101357142D02*
X82502438Y-101261904D01*
X82502438Y-101261904D02*
X82550057Y-101214285D01*
X82550057Y-101214285D02*
X82645295Y-101166666D01*
X82645295Y-101166666D02*
X82740533Y-101166666D01*
X82740533Y-101166666D02*
X82883390Y-101214285D01*
X82883390Y-101214285D02*
X83454819Y-101785713D01*
X83454819Y-101785713D02*
X83454819Y-101166666D01*
X51329380Y-101311400D02*
X51420809Y-101341876D01*
X51420809Y-101341876D02*
X51573190Y-101341876D01*
X51573190Y-101341876D02*
X51634142Y-101311400D01*
X51634142Y-101311400D02*
X51664618Y-101280923D01*
X51664618Y-101280923D02*
X51695095Y-101219971D01*
X51695095Y-101219971D02*
X51695095Y-101159019D01*
X51695095Y-101159019D02*
X51664618Y-101098066D01*
X51664618Y-101098066D02*
X51634142Y-101067590D01*
X51634142Y-101067590D02*
X51573190Y-101037114D01*
X51573190Y-101037114D02*
X51451285Y-101006638D01*
X51451285Y-101006638D02*
X51390333Y-100976161D01*
X51390333Y-100976161D02*
X51359856Y-100945685D01*
X51359856Y-100945685D02*
X51329380Y-100884733D01*
X51329380Y-100884733D02*
X51329380Y-100823780D01*
X51329380Y-100823780D02*
X51359856Y-100762828D01*
X51359856Y-100762828D02*
X51390333Y-100732352D01*
X51390333Y-100732352D02*
X51451285Y-100701876D01*
X51451285Y-100701876D02*
X51603666Y-100701876D01*
X51603666Y-100701876D02*
X51695095Y-100732352D01*
X52304619Y-101341876D02*
X51938904Y-101341876D01*
X52121761Y-101341876D02*
X52121761Y-100701876D01*
X52121761Y-100701876D02*
X52060809Y-100793304D01*
X52060809Y-100793304D02*
X51999857Y-100854257D01*
X51999857Y-100854257D02*
X51938904Y-100884733D01*
X84444642Y-141024819D02*
X84111309Y-140548628D01*
X83873214Y-141024819D02*
X83873214Y-140024819D01*
X83873214Y-140024819D02*
X84254166Y-140024819D01*
X84254166Y-140024819D02*
X84349404Y-140072438D01*
X84349404Y-140072438D02*
X84397023Y-140120057D01*
X84397023Y-140120057D02*
X84444642Y-140215295D01*
X84444642Y-140215295D02*
X84444642Y-140358152D01*
X84444642Y-140358152D02*
X84397023Y-140453390D01*
X84397023Y-140453390D02*
X84349404Y-140501009D01*
X84349404Y-140501009D02*
X84254166Y-140548628D01*
X84254166Y-140548628D02*
X83873214Y-140548628D01*
X84825595Y-140120057D02*
X84873214Y-140072438D01*
X84873214Y-140072438D02*
X84968452Y-140024819D01*
X84968452Y-140024819D02*
X85206547Y-140024819D01*
X85206547Y-140024819D02*
X85301785Y-140072438D01*
X85301785Y-140072438D02*
X85349404Y-140120057D01*
X85349404Y-140120057D02*
X85397023Y-140215295D01*
X85397023Y-140215295D02*
X85397023Y-140310533D01*
X85397023Y-140310533D02*
X85349404Y-140453390D01*
X85349404Y-140453390D02*
X84777976Y-141024819D01*
X84777976Y-141024819D02*
X85397023Y-141024819D01*
X86016071Y-140024819D02*
X86111309Y-140024819D01*
X86111309Y-140024819D02*
X86206547Y-140072438D01*
X86206547Y-140072438D02*
X86254166Y-140120057D01*
X86254166Y-140120057D02*
X86301785Y-140215295D01*
X86301785Y-140215295D02*
X86349404Y-140405771D01*
X86349404Y-140405771D02*
X86349404Y-140643866D01*
X86349404Y-140643866D02*
X86301785Y-140834342D01*
X86301785Y-140834342D02*
X86254166Y-140929580D01*
X86254166Y-140929580D02*
X86206547Y-140977200D01*
X86206547Y-140977200D02*
X86111309Y-141024819D01*
X86111309Y-141024819D02*
X86016071Y-141024819D01*
X86016071Y-141024819D02*
X85920833Y-140977200D01*
X85920833Y-140977200D02*
X85873214Y-140929580D01*
X85873214Y-140929580D02*
X85825595Y-140834342D01*
X85825595Y-140834342D02*
X85777976Y-140643866D01*
X85777976Y-140643866D02*
X85777976Y-140405771D01*
X85777976Y-140405771D02*
X85825595Y-140215295D01*
X85825595Y-140215295D02*
X85873214Y-140120057D01*
X85873214Y-140120057D02*
X85920833Y-140072438D01*
X85920833Y-140072438D02*
X86016071Y-140024819D01*
X130897142Y-134074819D02*
X130563809Y-133598628D01*
X130325714Y-134074819D02*
X130325714Y-133074819D01*
X130325714Y-133074819D02*
X130706666Y-133074819D01*
X130706666Y-133074819D02*
X130801904Y-133122438D01*
X130801904Y-133122438D02*
X130849523Y-133170057D01*
X130849523Y-133170057D02*
X130897142Y-133265295D01*
X130897142Y-133265295D02*
X130897142Y-133408152D01*
X130897142Y-133408152D02*
X130849523Y-133503390D01*
X130849523Y-133503390D02*
X130801904Y-133551009D01*
X130801904Y-133551009D02*
X130706666Y-133598628D01*
X130706666Y-133598628D02*
X130325714Y-133598628D01*
X131278095Y-133170057D02*
X131325714Y-133122438D01*
X131325714Y-133122438D02*
X131420952Y-133074819D01*
X131420952Y-133074819D02*
X131659047Y-133074819D01*
X131659047Y-133074819D02*
X131754285Y-133122438D01*
X131754285Y-133122438D02*
X131801904Y-133170057D01*
X131801904Y-133170057D02*
X131849523Y-133265295D01*
X131849523Y-133265295D02*
X131849523Y-133360533D01*
X131849523Y-133360533D02*
X131801904Y-133503390D01*
X131801904Y-133503390D02*
X131230476Y-134074819D01*
X131230476Y-134074819D02*
X131849523Y-134074819D01*
X132325714Y-134074819D02*
X132516190Y-134074819D01*
X132516190Y-134074819D02*
X132611428Y-134027200D01*
X132611428Y-134027200D02*
X132659047Y-133979580D01*
X132659047Y-133979580D02*
X132754285Y-133836723D01*
X132754285Y-133836723D02*
X132801904Y-133646247D01*
X132801904Y-133646247D02*
X132801904Y-133265295D01*
X132801904Y-133265295D02*
X132754285Y-133170057D01*
X132754285Y-133170057D02*
X132706666Y-133122438D01*
X132706666Y-133122438D02*
X132611428Y-133074819D01*
X132611428Y-133074819D02*
X132420952Y-133074819D01*
X132420952Y-133074819D02*
X132325714Y-133122438D01*
X132325714Y-133122438D02*
X132278095Y-133170057D01*
X132278095Y-133170057D02*
X132230476Y-133265295D01*
X132230476Y-133265295D02*
X132230476Y-133503390D01*
X132230476Y-133503390D02*
X132278095Y-133598628D01*
X132278095Y-133598628D02*
X132325714Y-133646247D01*
X132325714Y-133646247D02*
X132420952Y-133693866D01*
X132420952Y-133693866D02*
X132611428Y-133693866D01*
X132611428Y-133693866D02*
X132706666Y-133646247D01*
X132706666Y-133646247D02*
X132754285Y-133598628D01*
X132754285Y-133598628D02*
X132801904Y-133503390D01*
X100407200Y-103833332D02*
X100454819Y-103690475D01*
X100454819Y-103690475D02*
X100454819Y-103452380D01*
X100454819Y-103452380D02*
X100407200Y-103357142D01*
X100407200Y-103357142D02*
X100359580Y-103309523D01*
X100359580Y-103309523D02*
X100264342Y-103261904D01*
X100264342Y-103261904D02*
X100169104Y-103261904D01*
X100169104Y-103261904D02*
X100073866Y-103309523D01*
X100073866Y-103309523D02*
X100026247Y-103357142D01*
X100026247Y-103357142D02*
X99978628Y-103452380D01*
X99978628Y-103452380D02*
X99931009Y-103642856D01*
X99931009Y-103642856D02*
X99883390Y-103738094D01*
X99883390Y-103738094D02*
X99835771Y-103785713D01*
X99835771Y-103785713D02*
X99740533Y-103833332D01*
X99740533Y-103833332D02*
X99645295Y-103833332D01*
X99645295Y-103833332D02*
X99550057Y-103785713D01*
X99550057Y-103785713D02*
X99502438Y-103738094D01*
X99502438Y-103738094D02*
X99454819Y-103642856D01*
X99454819Y-103642856D02*
X99454819Y-103404761D01*
X99454819Y-103404761D02*
X99502438Y-103261904D01*
X99454819Y-102928570D02*
X100454819Y-102690475D01*
X100454819Y-102690475D02*
X99740533Y-102499999D01*
X99740533Y-102499999D02*
X100454819Y-102309523D01*
X100454819Y-102309523D02*
X99454819Y-102071428D01*
X100454819Y-101166666D02*
X100454819Y-101738094D01*
X100454819Y-101452380D02*
X99454819Y-101452380D01*
X99454819Y-101452380D02*
X99597676Y-101547618D01*
X99597676Y-101547618D02*
X99692914Y-101642856D01*
X99692914Y-101642856D02*
X99740533Y-101738094D01*
X74954819Y-109642857D02*
X74478628Y-109976190D01*
X74954819Y-110214285D02*
X73954819Y-110214285D01*
X73954819Y-110214285D02*
X73954819Y-109833333D01*
X73954819Y-109833333D02*
X74002438Y-109738095D01*
X74002438Y-109738095D02*
X74050057Y-109690476D01*
X74050057Y-109690476D02*
X74145295Y-109642857D01*
X74145295Y-109642857D02*
X74288152Y-109642857D01*
X74288152Y-109642857D02*
X74383390Y-109690476D01*
X74383390Y-109690476D02*
X74431009Y-109738095D01*
X74431009Y-109738095D02*
X74478628Y-109833333D01*
X74478628Y-109833333D02*
X74478628Y-110214285D01*
X73954819Y-109309523D02*
X73954819Y-108690476D01*
X73954819Y-108690476D02*
X74335771Y-109023809D01*
X74335771Y-109023809D02*
X74335771Y-108880952D01*
X74335771Y-108880952D02*
X74383390Y-108785714D01*
X74383390Y-108785714D02*
X74431009Y-108738095D01*
X74431009Y-108738095D02*
X74526247Y-108690476D01*
X74526247Y-108690476D02*
X74764342Y-108690476D01*
X74764342Y-108690476D02*
X74859580Y-108738095D01*
X74859580Y-108738095D02*
X74907200Y-108785714D01*
X74907200Y-108785714D02*
X74954819Y-108880952D01*
X74954819Y-108880952D02*
X74954819Y-109166666D01*
X74954819Y-109166666D02*
X74907200Y-109261904D01*
X74907200Y-109261904D02*
X74859580Y-109309523D01*
X73954819Y-107785714D02*
X73954819Y-108261904D01*
X73954819Y-108261904D02*
X74431009Y-108309523D01*
X74431009Y-108309523D02*
X74383390Y-108261904D01*
X74383390Y-108261904D02*
X74335771Y-108166666D01*
X74335771Y-108166666D02*
X74335771Y-107928571D01*
X74335771Y-107928571D02*
X74383390Y-107833333D01*
X74383390Y-107833333D02*
X74431009Y-107785714D01*
X74431009Y-107785714D02*
X74526247Y-107738095D01*
X74526247Y-107738095D02*
X74764342Y-107738095D01*
X74764342Y-107738095D02*
X74859580Y-107785714D01*
X74859580Y-107785714D02*
X74907200Y-107833333D01*
X74907200Y-107833333D02*
X74954819Y-107928571D01*
X74954819Y-107928571D02*
X74954819Y-108166666D01*
X74954819Y-108166666D02*
X74907200Y-108261904D01*
X74907200Y-108261904D02*
X74859580Y-108309523D01*
X75024819Y-131642857D02*
X74548628Y-131976190D01*
X75024819Y-132214285D02*
X74024819Y-132214285D01*
X74024819Y-132214285D02*
X74024819Y-131833333D01*
X74024819Y-131833333D02*
X74072438Y-131738095D01*
X74072438Y-131738095D02*
X74120057Y-131690476D01*
X74120057Y-131690476D02*
X74215295Y-131642857D01*
X74215295Y-131642857D02*
X74358152Y-131642857D01*
X74358152Y-131642857D02*
X74453390Y-131690476D01*
X74453390Y-131690476D02*
X74501009Y-131738095D01*
X74501009Y-131738095D02*
X74548628Y-131833333D01*
X74548628Y-131833333D02*
X74548628Y-132214285D01*
X75024819Y-130690476D02*
X75024819Y-131261904D01*
X75024819Y-130976190D02*
X74024819Y-130976190D01*
X74024819Y-130976190D02*
X74167676Y-131071428D01*
X74167676Y-131071428D02*
X74262914Y-131166666D01*
X74262914Y-131166666D02*
X74310533Y-131261904D01*
X74453390Y-130119047D02*
X74405771Y-130214285D01*
X74405771Y-130214285D02*
X74358152Y-130261904D01*
X74358152Y-130261904D02*
X74262914Y-130309523D01*
X74262914Y-130309523D02*
X74215295Y-130309523D01*
X74215295Y-130309523D02*
X74120057Y-130261904D01*
X74120057Y-130261904D02*
X74072438Y-130214285D01*
X74072438Y-130214285D02*
X74024819Y-130119047D01*
X74024819Y-130119047D02*
X74024819Y-129928571D01*
X74024819Y-129928571D02*
X74072438Y-129833333D01*
X74072438Y-129833333D02*
X74120057Y-129785714D01*
X74120057Y-129785714D02*
X74215295Y-129738095D01*
X74215295Y-129738095D02*
X74262914Y-129738095D01*
X74262914Y-129738095D02*
X74358152Y-129785714D01*
X74358152Y-129785714D02*
X74405771Y-129833333D01*
X74405771Y-129833333D02*
X74453390Y-129928571D01*
X74453390Y-129928571D02*
X74453390Y-130119047D01*
X74453390Y-130119047D02*
X74501009Y-130214285D01*
X74501009Y-130214285D02*
X74548628Y-130261904D01*
X74548628Y-130261904D02*
X74643866Y-130309523D01*
X74643866Y-130309523D02*
X74834342Y-130309523D01*
X74834342Y-130309523D02*
X74929580Y-130261904D01*
X74929580Y-130261904D02*
X74977200Y-130214285D01*
X74977200Y-130214285D02*
X75024819Y-130119047D01*
X75024819Y-130119047D02*
X75024819Y-129928571D01*
X75024819Y-129928571D02*
X74977200Y-129833333D01*
X74977200Y-129833333D02*
X74929580Y-129785714D01*
X74929580Y-129785714D02*
X74834342Y-129738095D01*
X74834342Y-129738095D02*
X74643866Y-129738095D01*
X74643866Y-129738095D02*
X74548628Y-129785714D01*
X74548628Y-129785714D02*
X74501009Y-129833333D01*
X74501009Y-129833333D02*
X74453390Y-129928571D01*
X118859580Y-127142857D02*
X118907200Y-127190476D01*
X118907200Y-127190476D02*
X118954819Y-127333333D01*
X118954819Y-127333333D02*
X118954819Y-127428571D01*
X118954819Y-127428571D02*
X118907200Y-127571428D01*
X118907200Y-127571428D02*
X118811961Y-127666666D01*
X118811961Y-127666666D02*
X118716723Y-127714285D01*
X118716723Y-127714285D02*
X118526247Y-127761904D01*
X118526247Y-127761904D02*
X118383390Y-127761904D01*
X118383390Y-127761904D02*
X118192914Y-127714285D01*
X118192914Y-127714285D02*
X118097676Y-127666666D01*
X118097676Y-127666666D02*
X118002438Y-127571428D01*
X118002438Y-127571428D02*
X117954819Y-127428571D01*
X117954819Y-127428571D02*
X117954819Y-127333333D01*
X117954819Y-127333333D02*
X118002438Y-127190476D01*
X118002438Y-127190476D02*
X118050057Y-127142857D01*
X118050057Y-126761904D02*
X118002438Y-126714285D01*
X118002438Y-126714285D02*
X117954819Y-126619047D01*
X117954819Y-126619047D02*
X117954819Y-126380952D01*
X117954819Y-126380952D02*
X118002438Y-126285714D01*
X118002438Y-126285714D02*
X118050057Y-126238095D01*
X118050057Y-126238095D02*
X118145295Y-126190476D01*
X118145295Y-126190476D02*
X118240533Y-126190476D01*
X118240533Y-126190476D02*
X118383390Y-126238095D01*
X118383390Y-126238095D02*
X118954819Y-126809523D01*
X118954819Y-126809523D02*
X118954819Y-126190476D01*
X118954819Y-125714285D02*
X118954819Y-125523809D01*
X118954819Y-125523809D02*
X118907200Y-125428571D01*
X118907200Y-125428571D02*
X118859580Y-125380952D01*
X118859580Y-125380952D02*
X118716723Y-125285714D01*
X118716723Y-125285714D02*
X118526247Y-125238095D01*
X118526247Y-125238095D02*
X118145295Y-125238095D01*
X118145295Y-125238095D02*
X118050057Y-125285714D01*
X118050057Y-125285714D02*
X118002438Y-125333333D01*
X118002438Y-125333333D02*
X117954819Y-125428571D01*
X117954819Y-125428571D02*
X117954819Y-125619047D01*
X117954819Y-125619047D02*
X118002438Y-125714285D01*
X118002438Y-125714285D02*
X118050057Y-125761904D01*
X118050057Y-125761904D02*
X118145295Y-125809523D01*
X118145295Y-125809523D02*
X118383390Y-125809523D01*
X118383390Y-125809523D02*
X118478628Y-125761904D01*
X118478628Y-125761904D02*
X118526247Y-125714285D01*
X118526247Y-125714285D02*
X118573866Y-125619047D01*
X118573866Y-125619047D02*
X118573866Y-125428571D01*
X118573866Y-125428571D02*
X118526247Y-125333333D01*
X118526247Y-125333333D02*
X118478628Y-125285714D01*
X118478628Y-125285714D02*
X118383390Y-125238095D01*
X108804819Y-109642857D02*
X108328628Y-109976190D01*
X108804819Y-110214285D02*
X107804819Y-110214285D01*
X107804819Y-110214285D02*
X107804819Y-109833333D01*
X107804819Y-109833333D02*
X107852438Y-109738095D01*
X107852438Y-109738095D02*
X107900057Y-109690476D01*
X107900057Y-109690476D02*
X107995295Y-109642857D01*
X107995295Y-109642857D02*
X108138152Y-109642857D01*
X108138152Y-109642857D02*
X108233390Y-109690476D01*
X108233390Y-109690476D02*
X108281009Y-109738095D01*
X108281009Y-109738095D02*
X108328628Y-109833333D01*
X108328628Y-109833333D02*
X108328628Y-110214285D01*
X107804819Y-109309523D02*
X107804819Y-108690476D01*
X107804819Y-108690476D02*
X108185771Y-109023809D01*
X108185771Y-109023809D02*
X108185771Y-108880952D01*
X108185771Y-108880952D02*
X108233390Y-108785714D01*
X108233390Y-108785714D02*
X108281009Y-108738095D01*
X108281009Y-108738095D02*
X108376247Y-108690476D01*
X108376247Y-108690476D02*
X108614342Y-108690476D01*
X108614342Y-108690476D02*
X108709580Y-108738095D01*
X108709580Y-108738095D02*
X108757200Y-108785714D01*
X108757200Y-108785714D02*
X108804819Y-108880952D01*
X108804819Y-108880952D02*
X108804819Y-109166666D01*
X108804819Y-109166666D02*
X108757200Y-109261904D01*
X108757200Y-109261904D02*
X108709580Y-109309523D01*
X108804819Y-107738095D02*
X108804819Y-108309523D01*
X108804819Y-108023809D02*
X107804819Y-108023809D01*
X107804819Y-108023809D02*
X107947676Y-108119047D01*
X107947676Y-108119047D02*
X108042914Y-108214285D01*
X108042914Y-108214285D02*
X108090533Y-108309523D01*
X103804819Y-111142857D02*
X103328628Y-111476190D01*
X103804819Y-111714285D02*
X102804819Y-111714285D01*
X102804819Y-111714285D02*
X102804819Y-111333333D01*
X102804819Y-111333333D02*
X102852438Y-111238095D01*
X102852438Y-111238095D02*
X102900057Y-111190476D01*
X102900057Y-111190476D02*
X102995295Y-111142857D01*
X102995295Y-111142857D02*
X103138152Y-111142857D01*
X103138152Y-111142857D02*
X103233390Y-111190476D01*
X103233390Y-111190476D02*
X103281009Y-111238095D01*
X103281009Y-111238095D02*
X103328628Y-111333333D01*
X103328628Y-111333333D02*
X103328628Y-111714285D01*
X102804819Y-110809523D02*
X102804819Y-110190476D01*
X102804819Y-110190476D02*
X103185771Y-110523809D01*
X103185771Y-110523809D02*
X103185771Y-110380952D01*
X103185771Y-110380952D02*
X103233390Y-110285714D01*
X103233390Y-110285714D02*
X103281009Y-110238095D01*
X103281009Y-110238095D02*
X103376247Y-110190476D01*
X103376247Y-110190476D02*
X103614342Y-110190476D01*
X103614342Y-110190476D02*
X103709580Y-110238095D01*
X103709580Y-110238095D02*
X103757200Y-110285714D01*
X103757200Y-110285714D02*
X103804819Y-110380952D01*
X103804819Y-110380952D02*
X103804819Y-110666666D01*
X103804819Y-110666666D02*
X103757200Y-110761904D01*
X103757200Y-110761904D02*
X103709580Y-110809523D01*
X102804819Y-109571428D02*
X102804819Y-109476190D01*
X102804819Y-109476190D02*
X102852438Y-109380952D01*
X102852438Y-109380952D02*
X102900057Y-109333333D01*
X102900057Y-109333333D02*
X102995295Y-109285714D01*
X102995295Y-109285714D02*
X103185771Y-109238095D01*
X103185771Y-109238095D02*
X103423866Y-109238095D01*
X103423866Y-109238095D02*
X103614342Y-109285714D01*
X103614342Y-109285714D02*
X103709580Y-109333333D01*
X103709580Y-109333333D02*
X103757200Y-109380952D01*
X103757200Y-109380952D02*
X103804819Y-109476190D01*
X103804819Y-109476190D02*
X103804819Y-109571428D01*
X103804819Y-109571428D02*
X103757200Y-109666666D01*
X103757200Y-109666666D02*
X103709580Y-109714285D01*
X103709580Y-109714285D02*
X103614342Y-109761904D01*
X103614342Y-109761904D02*
X103423866Y-109809523D01*
X103423866Y-109809523D02*
X103185771Y-109809523D01*
X103185771Y-109809523D02*
X102995295Y-109761904D01*
X102995295Y-109761904D02*
X102900057Y-109714285D01*
X102900057Y-109714285D02*
X102852438Y-109666666D01*
X102852438Y-109666666D02*
X102804819Y-109571428D01*
X116269642Y-133024819D02*
X115936309Y-132548628D01*
X115698214Y-133024819D02*
X115698214Y-132024819D01*
X115698214Y-132024819D02*
X116079166Y-132024819D01*
X116079166Y-132024819D02*
X116174404Y-132072438D01*
X116174404Y-132072438D02*
X116222023Y-132120057D01*
X116222023Y-132120057D02*
X116269642Y-132215295D01*
X116269642Y-132215295D02*
X116269642Y-132358152D01*
X116269642Y-132358152D02*
X116222023Y-132453390D01*
X116222023Y-132453390D02*
X116174404Y-132501009D01*
X116174404Y-132501009D02*
X116079166Y-132548628D01*
X116079166Y-132548628D02*
X115698214Y-132548628D01*
X116650595Y-132120057D02*
X116698214Y-132072438D01*
X116698214Y-132072438D02*
X116793452Y-132024819D01*
X116793452Y-132024819D02*
X117031547Y-132024819D01*
X117031547Y-132024819D02*
X117126785Y-132072438D01*
X117126785Y-132072438D02*
X117174404Y-132120057D01*
X117174404Y-132120057D02*
X117222023Y-132215295D01*
X117222023Y-132215295D02*
X117222023Y-132310533D01*
X117222023Y-132310533D02*
X117174404Y-132453390D01*
X117174404Y-132453390D02*
X116602976Y-133024819D01*
X116602976Y-133024819D02*
X117222023Y-133024819D01*
X117555357Y-132024819D02*
X118222023Y-132024819D01*
X118222023Y-132024819D02*
X117793452Y-133024819D01*
X92071905Y-148574819D02*
X92071905Y-147574819D01*
X92071905Y-147574819D02*
X92310000Y-147574819D01*
X92310000Y-147574819D02*
X92452857Y-147622438D01*
X92452857Y-147622438D02*
X92548095Y-147717676D01*
X92548095Y-147717676D02*
X92595714Y-147812914D01*
X92595714Y-147812914D02*
X92643333Y-148003390D01*
X92643333Y-148003390D02*
X92643333Y-148146247D01*
X92643333Y-148146247D02*
X92595714Y-148336723D01*
X92595714Y-148336723D02*
X92548095Y-148431961D01*
X92548095Y-148431961D02*
X92452857Y-148527200D01*
X92452857Y-148527200D02*
X92310000Y-148574819D01*
X92310000Y-148574819D02*
X92071905Y-148574819D01*
X93500476Y-147908152D02*
X93500476Y-148574819D01*
X93262381Y-147527200D02*
X93024286Y-148241485D01*
X93024286Y-148241485D02*
X93643333Y-148241485D01*
X96358095Y-148254819D02*
X96358095Y-147254819D01*
X96929523Y-148254819D02*
X96500952Y-147683390D01*
X96929523Y-147254819D02*
X96358095Y-147826247D01*
X95954819Y-116142857D02*
X95478628Y-116476190D01*
X95954819Y-116714285D02*
X94954819Y-116714285D01*
X94954819Y-116714285D02*
X94954819Y-116333333D01*
X94954819Y-116333333D02*
X95002438Y-116238095D01*
X95002438Y-116238095D02*
X95050057Y-116190476D01*
X95050057Y-116190476D02*
X95145295Y-116142857D01*
X95145295Y-116142857D02*
X95288152Y-116142857D01*
X95288152Y-116142857D02*
X95383390Y-116190476D01*
X95383390Y-116190476D02*
X95431009Y-116238095D01*
X95431009Y-116238095D02*
X95478628Y-116333333D01*
X95478628Y-116333333D02*
X95478628Y-116714285D01*
X95050057Y-115761904D02*
X95002438Y-115714285D01*
X95002438Y-115714285D02*
X94954819Y-115619047D01*
X94954819Y-115619047D02*
X94954819Y-115380952D01*
X94954819Y-115380952D02*
X95002438Y-115285714D01*
X95002438Y-115285714D02*
X95050057Y-115238095D01*
X95050057Y-115238095D02*
X95145295Y-115190476D01*
X95145295Y-115190476D02*
X95240533Y-115190476D01*
X95240533Y-115190476D02*
X95383390Y-115238095D01*
X95383390Y-115238095D02*
X95954819Y-115809523D01*
X95954819Y-115809523D02*
X95954819Y-115190476D01*
X95288152Y-114333333D02*
X95954819Y-114333333D01*
X94907200Y-114571428D02*
X95621485Y-114809523D01*
X95621485Y-114809523D02*
X95621485Y-114190476D01*
X120857142Y-145454819D02*
X120523809Y-144978628D01*
X120285714Y-145454819D02*
X120285714Y-144454819D01*
X120285714Y-144454819D02*
X120666666Y-144454819D01*
X120666666Y-144454819D02*
X120761904Y-144502438D01*
X120761904Y-144502438D02*
X120809523Y-144550057D01*
X120809523Y-144550057D02*
X120857142Y-144645295D01*
X120857142Y-144645295D02*
X120857142Y-144788152D01*
X120857142Y-144788152D02*
X120809523Y-144883390D01*
X120809523Y-144883390D02*
X120761904Y-144931009D01*
X120761904Y-144931009D02*
X120666666Y-144978628D01*
X120666666Y-144978628D02*
X120285714Y-144978628D01*
X121238095Y-144550057D02*
X121285714Y-144502438D01*
X121285714Y-144502438D02*
X121380952Y-144454819D01*
X121380952Y-144454819D02*
X121619047Y-144454819D01*
X121619047Y-144454819D02*
X121714285Y-144502438D01*
X121714285Y-144502438D02*
X121761904Y-144550057D01*
X121761904Y-144550057D02*
X121809523Y-144645295D01*
X121809523Y-144645295D02*
X121809523Y-144740533D01*
X121809523Y-144740533D02*
X121761904Y-144883390D01*
X121761904Y-144883390D02*
X121190476Y-145454819D01*
X121190476Y-145454819D02*
X121809523Y-145454819D01*
X122380952Y-144883390D02*
X122285714Y-144835771D01*
X122285714Y-144835771D02*
X122238095Y-144788152D01*
X122238095Y-144788152D02*
X122190476Y-144692914D01*
X122190476Y-144692914D02*
X122190476Y-144645295D01*
X122190476Y-144645295D02*
X122238095Y-144550057D01*
X122238095Y-144550057D02*
X122285714Y-144502438D01*
X122285714Y-144502438D02*
X122380952Y-144454819D01*
X122380952Y-144454819D02*
X122571428Y-144454819D01*
X122571428Y-144454819D02*
X122666666Y-144502438D01*
X122666666Y-144502438D02*
X122714285Y-144550057D01*
X122714285Y-144550057D02*
X122761904Y-144645295D01*
X122761904Y-144645295D02*
X122761904Y-144692914D01*
X122761904Y-144692914D02*
X122714285Y-144788152D01*
X122714285Y-144788152D02*
X122666666Y-144835771D01*
X122666666Y-144835771D02*
X122571428Y-144883390D01*
X122571428Y-144883390D02*
X122380952Y-144883390D01*
X122380952Y-144883390D02*
X122285714Y-144931009D01*
X122285714Y-144931009D02*
X122238095Y-144978628D01*
X122238095Y-144978628D02*
X122190476Y-145073866D01*
X122190476Y-145073866D02*
X122190476Y-145264342D01*
X122190476Y-145264342D02*
X122238095Y-145359580D01*
X122238095Y-145359580D02*
X122285714Y-145407200D01*
X122285714Y-145407200D02*
X122380952Y-145454819D01*
X122380952Y-145454819D02*
X122571428Y-145454819D01*
X122571428Y-145454819D02*
X122666666Y-145407200D01*
X122666666Y-145407200D02*
X122714285Y-145359580D01*
X122714285Y-145359580D02*
X122761904Y-145264342D01*
X122761904Y-145264342D02*
X122761904Y-145073866D01*
X122761904Y-145073866D02*
X122714285Y-144978628D01*
X122714285Y-144978628D02*
X122666666Y-144931009D01*
X122666666Y-144931009D02*
X122571428Y-144883390D01*
X131504819Y-114166666D02*
X131028628Y-114499999D01*
X131504819Y-114738094D02*
X130504819Y-114738094D01*
X130504819Y-114738094D02*
X130504819Y-114357142D01*
X130504819Y-114357142D02*
X130552438Y-114261904D01*
X130552438Y-114261904D02*
X130600057Y-114214285D01*
X130600057Y-114214285D02*
X130695295Y-114166666D01*
X130695295Y-114166666D02*
X130838152Y-114166666D01*
X130838152Y-114166666D02*
X130933390Y-114214285D01*
X130933390Y-114214285D02*
X130981009Y-114261904D01*
X130981009Y-114261904D02*
X131028628Y-114357142D01*
X131028628Y-114357142D02*
X131028628Y-114738094D01*
X131504819Y-113214285D02*
X131504819Y-113785713D01*
X131504819Y-113499999D02*
X130504819Y-113499999D01*
X130504819Y-113499999D02*
X130647676Y-113595237D01*
X130647676Y-113595237D02*
X130742914Y-113690475D01*
X130742914Y-113690475D02*
X130790533Y-113785713D01*
X108857142Y-114859580D02*
X108809523Y-114907200D01*
X108809523Y-114907200D02*
X108666666Y-114954819D01*
X108666666Y-114954819D02*
X108571428Y-114954819D01*
X108571428Y-114954819D02*
X108428571Y-114907200D01*
X108428571Y-114907200D02*
X108333333Y-114811961D01*
X108333333Y-114811961D02*
X108285714Y-114716723D01*
X108285714Y-114716723D02*
X108238095Y-114526247D01*
X108238095Y-114526247D02*
X108238095Y-114383390D01*
X108238095Y-114383390D02*
X108285714Y-114192914D01*
X108285714Y-114192914D02*
X108333333Y-114097676D01*
X108333333Y-114097676D02*
X108428571Y-114002438D01*
X108428571Y-114002438D02*
X108571428Y-113954819D01*
X108571428Y-113954819D02*
X108666666Y-113954819D01*
X108666666Y-113954819D02*
X108809523Y-114002438D01*
X108809523Y-114002438D02*
X108857142Y-114050057D01*
X109238095Y-114050057D02*
X109285714Y-114002438D01*
X109285714Y-114002438D02*
X109380952Y-113954819D01*
X109380952Y-113954819D02*
X109619047Y-113954819D01*
X109619047Y-113954819D02*
X109714285Y-114002438D01*
X109714285Y-114002438D02*
X109761904Y-114050057D01*
X109761904Y-114050057D02*
X109809523Y-114145295D01*
X109809523Y-114145295D02*
X109809523Y-114240533D01*
X109809523Y-114240533D02*
X109761904Y-114383390D01*
X109761904Y-114383390D02*
X109190476Y-114954819D01*
X109190476Y-114954819D02*
X109809523Y-114954819D01*
X110714285Y-113954819D02*
X110238095Y-113954819D01*
X110238095Y-113954819D02*
X110190476Y-114431009D01*
X110190476Y-114431009D02*
X110238095Y-114383390D01*
X110238095Y-114383390D02*
X110333333Y-114335771D01*
X110333333Y-114335771D02*
X110571428Y-114335771D01*
X110571428Y-114335771D02*
X110666666Y-114383390D01*
X110666666Y-114383390D02*
X110714285Y-114431009D01*
X110714285Y-114431009D02*
X110761904Y-114526247D01*
X110761904Y-114526247D02*
X110761904Y-114764342D01*
X110761904Y-114764342D02*
X110714285Y-114859580D01*
X110714285Y-114859580D02*
X110666666Y-114907200D01*
X110666666Y-114907200D02*
X110571428Y-114954819D01*
X110571428Y-114954819D02*
X110333333Y-114954819D01*
X110333333Y-114954819D02*
X110238095Y-114907200D01*
X110238095Y-114907200D02*
X110190476Y-114859580D01*
X131454819Y-108666666D02*
X130978628Y-108999999D01*
X131454819Y-109238094D02*
X130454819Y-109238094D01*
X130454819Y-109238094D02*
X130454819Y-108857142D01*
X130454819Y-108857142D02*
X130502438Y-108761904D01*
X130502438Y-108761904D02*
X130550057Y-108714285D01*
X130550057Y-108714285D02*
X130645295Y-108666666D01*
X130645295Y-108666666D02*
X130788152Y-108666666D01*
X130788152Y-108666666D02*
X130883390Y-108714285D01*
X130883390Y-108714285D02*
X130931009Y-108761904D01*
X130931009Y-108761904D02*
X130978628Y-108857142D01*
X130978628Y-108857142D02*
X130978628Y-109238094D01*
X130550057Y-108285713D02*
X130502438Y-108238094D01*
X130502438Y-108238094D02*
X130454819Y-108142856D01*
X130454819Y-108142856D02*
X130454819Y-107904761D01*
X130454819Y-107904761D02*
X130502438Y-107809523D01*
X130502438Y-107809523D02*
X130550057Y-107761904D01*
X130550057Y-107761904D02*
X130645295Y-107714285D01*
X130645295Y-107714285D02*
X130740533Y-107714285D01*
X130740533Y-107714285D02*
X130883390Y-107761904D01*
X130883390Y-107761904D02*
X131454819Y-108333332D01*
X131454819Y-108333332D02*
X131454819Y-107714285D01*
X87929580Y-114605357D02*
X87977200Y-114652976D01*
X87977200Y-114652976D02*
X88024819Y-114795833D01*
X88024819Y-114795833D02*
X88024819Y-114891071D01*
X88024819Y-114891071D02*
X87977200Y-115033928D01*
X87977200Y-115033928D02*
X87881961Y-115129166D01*
X87881961Y-115129166D02*
X87786723Y-115176785D01*
X87786723Y-115176785D02*
X87596247Y-115224404D01*
X87596247Y-115224404D02*
X87453390Y-115224404D01*
X87453390Y-115224404D02*
X87262914Y-115176785D01*
X87262914Y-115176785D02*
X87167676Y-115129166D01*
X87167676Y-115129166D02*
X87072438Y-115033928D01*
X87072438Y-115033928D02*
X87024819Y-114891071D01*
X87024819Y-114891071D02*
X87024819Y-114795833D01*
X87024819Y-114795833D02*
X87072438Y-114652976D01*
X87072438Y-114652976D02*
X87120057Y-114605357D01*
X87120057Y-114224404D02*
X87072438Y-114176785D01*
X87072438Y-114176785D02*
X87024819Y-114081547D01*
X87024819Y-114081547D02*
X87024819Y-113843452D01*
X87024819Y-113843452D02*
X87072438Y-113748214D01*
X87072438Y-113748214D02*
X87120057Y-113700595D01*
X87120057Y-113700595D02*
X87215295Y-113652976D01*
X87215295Y-113652976D02*
X87310533Y-113652976D01*
X87310533Y-113652976D02*
X87453390Y-113700595D01*
X87453390Y-113700595D02*
X88024819Y-114272023D01*
X88024819Y-114272023D02*
X88024819Y-113652976D01*
X87024819Y-113319642D02*
X87024819Y-112652976D01*
X87024819Y-112652976D02*
X88024819Y-113081547D01*
X131504819Y-102666666D02*
X131028628Y-102999999D01*
X131504819Y-103238094D02*
X130504819Y-103238094D01*
X130504819Y-103238094D02*
X130504819Y-102857142D01*
X130504819Y-102857142D02*
X130552438Y-102761904D01*
X130552438Y-102761904D02*
X130600057Y-102714285D01*
X130600057Y-102714285D02*
X130695295Y-102666666D01*
X130695295Y-102666666D02*
X130838152Y-102666666D01*
X130838152Y-102666666D02*
X130933390Y-102714285D01*
X130933390Y-102714285D02*
X130981009Y-102761904D01*
X130981009Y-102761904D02*
X131028628Y-102857142D01*
X131028628Y-102857142D02*
X131028628Y-103238094D01*
X130504819Y-102333332D02*
X130504819Y-101714285D01*
X130504819Y-101714285D02*
X130885771Y-102047618D01*
X130885771Y-102047618D02*
X130885771Y-101904761D01*
X130885771Y-101904761D02*
X130933390Y-101809523D01*
X130933390Y-101809523D02*
X130981009Y-101761904D01*
X130981009Y-101761904D02*
X131076247Y-101714285D01*
X131076247Y-101714285D02*
X131314342Y-101714285D01*
X131314342Y-101714285D02*
X131409580Y-101761904D01*
X131409580Y-101761904D02*
X131457200Y-101809523D01*
X131457200Y-101809523D02*
X131504819Y-101904761D01*
X131504819Y-101904761D02*
X131504819Y-102190475D01*
X131504819Y-102190475D02*
X131457200Y-102285713D01*
X131457200Y-102285713D02*
X131409580Y-102333332D01*
X86954819Y-111642857D02*
X86478628Y-111976190D01*
X86954819Y-112214285D02*
X85954819Y-112214285D01*
X85954819Y-112214285D02*
X85954819Y-111833333D01*
X85954819Y-111833333D02*
X86002438Y-111738095D01*
X86002438Y-111738095D02*
X86050057Y-111690476D01*
X86050057Y-111690476D02*
X86145295Y-111642857D01*
X86145295Y-111642857D02*
X86288152Y-111642857D01*
X86288152Y-111642857D02*
X86383390Y-111690476D01*
X86383390Y-111690476D02*
X86431009Y-111738095D01*
X86431009Y-111738095D02*
X86478628Y-111833333D01*
X86478628Y-111833333D02*
X86478628Y-112214285D01*
X85954819Y-111309523D02*
X85954819Y-110690476D01*
X85954819Y-110690476D02*
X86335771Y-111023809D01*
X86335771Y-111023809D02*
X86335771Y-110880952D01*
X86335771Y-110880952D02*
X86383390Y-110785714D01*
X86383390Y-110785714D02*
X86431009Y-110738095D01*
X86431009Y-110738095D02*
X86526247Y-110690476D01*
X86526247Y-110690476D02*
X86764342Y-110690476D01*
X86764342Y-110690476D02*
X86859580Y-110738095D01*
X86859580Y-110738095D02*
X86907200Y-110785714D01*
X86907200Y-110785714D02*
X86954819Y-110880952D01*
X86954819Y-110880952D02*
X86954819Y-111166666D01*
X86954819Y-111166666D02*
X86907200Y-111261904D01*
X86907200Y-111261904D02*
X86859580Y-111309523D01*
X86050057Y-110309523D02*
X86002438Y-110261904D01*
X86002438Y-110261904D02*
X85954819Y-110166666D01*
X85954819Y-110166666D02*
X85954819Y-109928571D01*
X85954819Y-109928571D02*
X86002438Y-109833333D01*
X86002438Y-109833333D02*
X86050057Y-109785714D01*
X86050057Y-109785714D02*
X86145295Y-109738095D01*
X86145295Y-109738095D02*
X86240533Y-109738095D01*
X86240533Y-109738095D02*
X86383390Y-109785714D01*
X86383390Y-109785714D02*
X86954819Y-110357142D01*
X86954819Y-110357142D02*
X86954819Y-109738095D01*
X91804819Y-109642857D02*
X91328628Y-109976190D01*
X91804819Y-110214285D02*
X90804819Y-110214285D01*
X90804819Y-110214285D02*
X90804819Y-109833333D01*
X90804819Y-109833333D02*
X90852438Y-109738095D01*
X90852438Y-109738095D02*
X90900057Y-109690476D01*
X90900057Y-109690476D02*
X90995295Y-109642857D01*
X90995295Y-109642857D02*
X91138152Y-109642857D01*
X91138152Y-109642857D02*
X91233390Y-109690476D01*
X91233390Y-109690476D02*
X91281009Y-109738095D01*
X91281009Y-109738095D02*
X91328628Y-109833333D01*
X91328628Y-109833333D02*
X91328628Y-110214285D01*
X90804819Y-109309523D02*
X90804819Y-108690476D01*
X90804819Y-108690476D02*
X91185771Y-109023809D01*
X91185771Y-109023809D02*
X91185771Y-108880952D01*
X91185771Y-108880952D02*
X91233390Y-108785714D01*
X91233390Y-108785714D02*
X91281009Y-108738095D01*
X91281009Y-108738095D02*
X91376247Y-108690476D01*
X91376247Y-108690476D02*
X91614342Y-108690476D01*
X91614342Y-108690476D02*
X91709580Y-108738095D01*
X91709580Y-108738095D02*
X91757200Y-108785714D01*
X91757200Y-108785714D02*
X91804819Y-108880952D01*
X91804819Y-108880952D02*
X91804819Y-109166666D01*
X91804819Y-109166666D02*
X91757200Y-109261904D01*
X91757200Y-109261904D02*
X91709580Y-109309523D01*
X90804819Y-108357142D02*
X90804819Y-107738095D01*
X90804819Y-107738095D02*
X91185771Y-108071428D01*
X91185771Y-108071428D02*
X91185771Y-107928571D01*
X91185771Y-107928571D02*
X91233390Y-107833333D01*
X91233390Y-107833333D02*
X91281009Y-107785714D01*
X91281009Y-107785714D02*
X91376247Y-107738095D01*
X91376247Y-107738095D02*
X91614342Y-107738095D01*
X91614342Y-107738095D02*
X91709580Y-107785714D01*
X91709580Y-107785714D02*
X91757200Y-107833333D01*
X91757200Y-107833333D02*
X91804819Y-107928571D01*
X91804819Y-107928571D02*
X91804819Y-108214285D01*
X91804819Y-108214285D02*
X91757200Y-108309523D01*
X91757200Y-108309523D02*
X91709580Y-108357142D01*
X99219642Y-135929580D02*
X99172023Y-135977200D01*
X99172023Y-135977200D02*
X99029166Y-136024819D01*
X99029166Y-136024819D02*
X98933928Y-136024819D01*
X98933928Y-136024819D02*
X98791071Y-135977200D01*
X98791071Y-135977200D02*
X98695833Y-135881961D01*
X98695833Y-135881961D02*
X98648214Y-135786723D01*
X98648214Y-135786723D02*
X98600595Y-135596247D01*
X98600595Y-135596247D02*
X98600595Y-135453390D01*
X98600595Y-135453390D02*
X98648214Y-135262914D01*
X98648214Y-135262914D02*
X98695833Y-135167676D01*
X98695833Y-135167676D02*
X98791071Y-135072438D01*
X98791071Y-135072438D02*
X98933928Y-135024819D01*
X98933928Y-135024819D02*
X99029166Y-135024819D01*
X99029166Y-135024819D02*
X99172023Y-135072438D01*
X99172023Y-135072438D02*
X99219642Y-135120057D01*
X99600595Y-135120057D02*
X99648214Y-135072438D01*
X99648214Y-135072438D02*
X99743452Y-135024819D01*
X99743452Y-135024819D02*
X99981547Y-135024819D01*
X99981547Y-135024819D02*
X100076785Y-135072438D01*
X100076785Y-135072438D02*
X100124404Y-135120057D01*
X100124404Y-135120057D02*
X100172023Y-135215295D01*
X100172023Y-135215295D02*
X100172023Y-135310533D01*
X100172023Y-135310533D02*
X100124404Y-135453390D01*
X100124404Y-135453390D02*
X99552976Y-136024819D01*
X99552976Y-136024819D02*
X100172023Y-136024819D01*
X100505357Y-135024819D02*
X101124404Y-135024819D01*
X101124404Y-135024819D02*
X100791071Y-135405771D01*
X100791071Y-135405771D02*
X100933928Y-135405771D01*
X100933928Y-135405771D02*
X101029166Y-135453390D01*
X101029166Y-135453390D02*
X101076785Y-135501009D01*
X101076785Y-135501009D02*
X101124404Y-135596247D01*
X101124404Y-135596247D02*
X101124404Y-135834342D01*
X101124404Y-135834342D02*
X101076785Y-135929580D01*
X101076785Y-135929580D02*
X101029166Y-135977200D01*
X101029166Y-135977200D02*
X100933928Y-136024819D01*
X100933928Y-136024819D02*
X100648214Y-136024819D01*
X100648214Y-136024819D02*
X100552976Y-135977200D01*
X100552976Y-135977200D02*
X100505357Y-135929580D01*
X106859580Y-135102857D02*
X106907200Y-135150476D01*
X106907200Y-135150476D02*
X106954819Y-135293333D01*
X106954819Y-135293333D02*
X106954819Y-135388571D01*
X106954819Y-135388571D02*
X106907200Y-135531428D01*
X106907200Y-135531428D02*
X106811961Y-135626666D01*
X106811961Y-135626666D02*
X106716723Y-135674285D01*
X106716723Y-135674285D02*
X106526247Y-135721904D01*
X106526247Y-135721904D02*
X106383390Y-135721904D01*
X106383390Y-135721904D02*
X106192914Y-135674285D01*
X106192914Y-135674285D02*
X106097676Y-135626666D01*
X106097676Y-135626666D02*
X106002438Y-135531428D01*
X106002438Y-135531428D02*
X105954819Y-135388571D01*
X105954819Y-135388571D02*
X105954819Y-135293333D01*
X105954819Y-135293333D02*
X106002438Y-135150476D01*
X106002438Y-135150476D02*
X106050057Y-135102857D01*
X106050057Y-134721904D02*
X106002438Y-134674285D01*
X106002438Y-134674285D02*
X105954819Y-134579047D01*
X105954819Y-134579047D02*
X105954819Y-134340952D01*
X105954819Y-134340952D02*
X106002438Y-134245714D01*
X106002438Y-134245714D02*
X106050057Y-134198095D01*
X106050057Y-134198095D02*
X106145295Y-134150476D01*
X106145295Y-134150476D02*
X106240533Y-134150476D01*
X106240533Y-134150476D02*
X106383390Y-134198095D01*
X106383390Y-134198095D02*
X106954819Y-134769523D01*
X106954819Y-134769523D02*
X106954819Y-134150476D01*
X106288152Y-133293333D02*
X106954819Y-133293333D01*
X105907200Y-133531428D02*
X106621485Y-133769523D01*
X106621485Y-133769523D02*
X106621485Y-133150476D01*
X90140419Y-124357142D02*
X90092800Y-124309523D01*
X90092800Y-124309523D02*
X90045180Y-124166666D01*
X90045180Y-124166666D02*
X90045180Y-124071428D01*
X90045180Y-124071428D02*
X90092800Y-123928571D01*
X90092800Y-123928571D02*
X90188038Y-123833333D01*
X90188038Y-123833333D02*
X90283276Y-123785714D01*
X90283276Y-123785714D02*
X90473752Y-123738095D01*
X90473752Y-123738095D02*
X90616609Y-123738095D01*
X90616609Y-123738095D02*
X90807085Y-123785714D01*
X90807085Y-123785714D02*
X90902323Y-123833333D01*
X90902323Y-123833333D02*
X90997561Y-123928571D01*
X90997561Y-123928571D02*
X91045180Y-124071428D01*
X91045180Y-124071428D02*
X91045180Y-124166666D01*
X91045180Y-124166666D02*
X90997561Y-124309523D01*
X90997561Y-124309523D02*
X90949942Y-124357142D01*
X91045180Y-124690476D02*
X91045180Y-125309523D01*
X91045180Y-125309523D02*
X90664228Y-124976190D01*
X90664228Y-124976190D02*
X90664228Y-125119047D01*
X90664228Y-125119047D02*
X90616609Y-125214285D01*
X90616609Y-125214285D02*
X90568990Y-125261904D01*
X90568990Y-125261904D02*
X90473752Y-125309523D01*
X90473752Y-125309523D02*
X90235657Y-125309523D01*
X90235657Y-125309523D02*
X90140419Y-125261904D01*
X90140419Y-125261904D02*
X90092800Y-125214285D01*
X90092800Y-125214285D02*
X90045180Y-125119047D01*
X90045180Y-125119047D02*
X90045180Y-124833333D01*
X90045180Y-124833333D02*
X90092800Y-124738095D01*
X90092800Y-124738095D02*
X90140419Y-124690476D01*
X91045180Y-126214285D02*
X91045180Y-125738095D01*
X91045180Y-125738095D02*
X90568990Y-125690476D01*
X90568990Y-125690476D02*
X90616609Y-125738095D01*
X90616609Y-125738095D02*
X90664228Y-125833333D01*
X90664228Y-125833333D02*
X90664228Y-126071428D01*
X90664228Y-126071428D02*
X90616609Y-126166666D01*
X90616609Y-126166666D02*
X90568990Y-126214285D01*
X90568990Y-126214285D02*
X90473752Y-126261904D01*
X90473752Y-126261904D02*
X90235657Y-126261904D01*
X90235657Y-126261904D02*
X90140419Y-126214285D01*
X90140419Y-126214285D02*
X90092800Y-126166666D01*
X90092800Y-126166666D02*
X90045180Y-126071428D01*
X90045180Y-126071428D02*
X90045180Y-125833333D01*
X90045180Y-125833333D02*
X90092800Y-125738095D01*
X90092800Y-125738095D02*
X90140419Y-125690476D01*
X71992142Y-138359580D02*
X71944523Y-138407200D01*
X71944523Y-138407200D02*
X71801666Y-138454819D01*
X71801666Y-138454819D02*
X71706428Y-138454819D01*
X71706428Y-138454819D02*
X71563571Y-138407200D01*
X71563571Y-138407200D02*
X71468333Y-138311961D01*
X71468333Y-138311961D02*
X71420714Y-138216723D01*
X71420714Y-138216723D02*
X71373095Y-138026247D01*
X71373095Y-138026247D02*
X71373095Y-137883390D01*
X71373095Y-137883390D02*
X71420714Y-137692914D01*
X71420714Y-137692914D02*
X71468333Y-137597676D01*
X71468333Y-137597676D02*
X71563571Y-137502438D01*
X71563571Y-137502438D02*
X71706428Y-137454819D01*
X71706428Y-137454819D02*
X71801666Y-137454819D01*
X71801666Y-137454819D02*
X71944523Y-137502438D01*
X71944523Y-137502438D02*
X71992142Y-137550057D01*
X72373095Y-137550057D02*
X72420714Y-137502438D01*
X72420714Y-137502438D02*
X72515952Y-137454819D01*
X72515952Y-137454819D02*
X72754047Y-137454819D01*
X72754047Y-137454819D02*
X72849285Y-137502438D01*
X72849285Y-137502438D02*
X72896904Y-137550057D01*
X72896904Y-137550057D02*
X72944523Y-137645295D01*
X72944523Y-137645295D02*
X72944523Y-137740533D01*
X72944523Y-137740533D02*
X72896904Y-137883390D01*
X72896904Y-137883390D02*
X72325476Y-138454819D01*
X72325476Y-138454819D02*
X72944523Y-138454819D01*
X73563571Y-137454819D02*
X73658809Y-137454819D01*
X73658809Y-137454819D02*
X73754047Y-137502438D01*
X73754047Y-137502438D02*
X73801666Y-137550057D01*
X73801666Y-137550057D02*
X73849285Y-137645295D01*
X73849285Y-137645295D02*
X73896904Y-137835771D01*
X73896904Y-137835771D02*
X73896904Y-138073866D01*
X73896904Y-138073866D02*
X73849285Y-138264342D01*
X73849285Y-138264342D02*
X73801666Y-138359580D01*
X73801666Y-138359580D02*
X73754047Y-138407200D01*
X73754047Y-138407200D02*
X73658809Y-138454819D01*
X73658809Y-138454819D02*
X73563571Y-138454819D01*
X73563571Y-138454819D02*
X73468333Y-138407200D01*
X73468333Y-138407200D02*
X73420714Y-138359580D01*
X73420714Y-138359580D02*
X73373095Y-138264342D01*
X73373095Y-138264342D02*
X73325476Y-138073866D01*
X73325476Y-138073866D02*
X73325476Y-137835771D01*
X73325476Y-137835771D02*
X73373095Y-137645295D01*
X73373095Y-137645295D02*
X73420714Y-137550057D01*
X73420714Y-137550057D02*
X73468333Y-137502438D01*
X73468333Y-137502438D02*
X73563571Y-137454819D01*
X130789580Y-143505357D02*
X130837200Y-143552976D01*
X130837200Y-143552976D02*
X130884819Y-143695833D01*
X130884819Y-143695833D02*
X130884819Y-143791071D01*
X130884819Y-143791071D02*
X130837200Y-143933928D01*
X130837200Y-143933928D02*
X130741961Y-144029166D01*
X130741961Y-144029166D02*
X130646723Y-144076785D01*
X130646723Y-144076785D02*
X130456247Y-144124404D01*
X130456247Y-144124404D02*
X130313390Y-144124404D01*
X130313390Y-144124404D02*
X130122914Y-144076785D01*
X130122914Y-144076785D02*
X130027676Y-144029166D01*
X130027676Y-144029166D02*
X129932438Y-143933928D01*
X129932438Y-143933928D02*
X129884819Y-143791071D01*
X129884819Y-143791071D02*
X129884819Y-143695833D01*
X129884819Y-143695833D02*
X129932438Y-143552976D01*
X129932438Y-143552976D02*
X129980057Y-143505357D01*
X129884819Y-143172023D02*
X129884819Y-142552976D01*
X129884819Y-142552976D02*
X130265771Y-142886309D01*
X130265771Y-142886309D02*
X130265771Y-142743452D01*
X130265771Y-142743452D02*
X130313390Y-142648214D01*
X130313390Y-142648214D02*
X130361009Y-142600595D01*
X130361009Y-142600595D02*
X130456247Y-142552976D01*
X130456247Y-142552976D02*
X130694342Y-142552976D01*
X130694342Y-142552976D02*
X130789580Y-142600595D01*
X130789580Y-142600595D02*
X130837200Y-142648214D01*
X130837200Y-142648214D02*
X130884819Y-142743452D01*
X130884819Y-142743452D02*
X130884819Y-143029166D01*
X130884819Y-143029166D02*
X130837200Y-143124404D01*
X130837200Y-143124404D02*
X130789580Y-143172023D01*
X129884819Y-141933928D02*
X129884819Y-141838690D01*
X129884819Y-141838690D02*
X129932438Y-141743452D01*
X129932438Y-141743452D02*
X129980057Y-141695833D01*
X129980057Y-141695833D02*
X130075295Y-141648214D01*
X130075295Y-141648214D02*
X130265771Y-141600595D01*
X130265771Y-141600595D02*
X130503866Y-141600595D01*
X130503866Y-141600595D02*
X130694342Y-141648214D01*
X130694342Y-141648214D02*
X130789580Y-141695833D01*
X130789580Y-141695833D02*
X130837200Y-141743452D01*
X130837200Y-141743452D02*
X130884819Y-141838690D01*
X130884819Y-141838690D02*
X130884819Y-141933928D01*
X130884819Y-141933928D02*
X130837200Y-142029166D01*
X130837200Y-142029166D02*
X130789580Y-142076785D01*
X130789580Y-142076785D02*
X130694342Y-142124404D01*
X130694342Y-142124404D02*
X130503866Y-142172023D01*
X130503866Y-142172023D02*
X130265771Y-142172023D01*
X130265771Y-142172023D02*
X130075295Y-142124404D01*
X130075295Y-142124404D02*
X129980057Y-142076785D01*
X129980057Y-142076785D02*
X129932438Y-142029166D01*
X129932438Y-142029166D02*
X129884819Y-141933928D01*
X100140419Y-124357142D02*
X100092800Y-124309523D01*
X100092800Y-124309523D02*
X100045180Y-124166666D01*
X100045180Y-124166666D02*
X100045180Y-124071428D01*
X100045180Y-124071428D02*
X100092800Y-123928571D01*
X100092800Y-123928571D02*
X100188038Y-123833333D01*
X100188038Y-123833333D02*
X100283276Y-123785714D01*
X100283276Y-123785714D02*
X100473752Y-123738095D01*
X100473752Y-123738095D02*
X100616609Y-123738095D01*
X100616609Y-123738095D02*
X100807085Y-123785714D01*
X100807085Y-123785714D02*
X100902323Y-123833333D01*
X100902323Y-123833333D02*
X100997561Y-123928571D01*
X100997561Y-123928571D02*
X101045180Y-124071428D01*
X101045180Y-124071428D02*
X101045180Y-124166666D01*
X101045180Y-124166666D02*
X100997561Y-124309523D01*
X100997561Y-124309523D02*
X100949942Y-124357142D01*
X101045180Y-124690476D02*
X101045180Y-125309523D01*
X101045180Y-125309523D02*
X100664228Y-124976190D01*
X100664228Y-124976190D02*
X100664228Y-125119047D01*
X100664228Y-125119047D02*
X100616609Y-125214285D01*
X100616609Y-125214285D02*
X100568990Y-125261904D01*
X100568990Y-125261904D02*
X100473752Y-125309523D01*
X100473752Y-125309523D02*
X100235657Y-125309523D01*
X100235657Y-125309523D02*
X100140419Y-125261904D01*
X100140419Y-125261904D02*
X100092800Y-125214285D01*
X100092800Y-125214285D02*
X100045180Y-125119047D01*
X100045180Y-125119047D02*
X100045180Y-124833333D01*
X100045180Y-124833333D02*
X100092800Y-124738095D01*
X100092800Y-124738095D02*
X100140419Y-124690476D01*
X101045180Y-125642857D02*
X101045180Y-126309523D01*
X101045180Y-126309523D02*
X100045180Y-125880952D01*
X129454819Y-118333333D02*
X130169104Y-118333333D01*
X130169104Y-118333333D02*
X130311961Y-118380952D01*
X130311961Y-118380952D02*
X130407200Y-118476190D01*
X130407200Y-118476190D02*
X130454819Y-118619047D01*
X130454819Y-118619047D02*
X130454819Y-118714285D01*
X129550057Y-117904761D02*
X129502438Y-117857142D01*
X129502438Y-117857142D02*
X129454819Y-117761904D01*
X129454819Y-117761904D02*
X129454819Y-117523809D01*
X129454819Y-117523809D02*
X129502438Y-117428571D01*
X129502438Y-117428571D02*
X129550057Y-117380952D01*
X129550057Y-117380952D02*
X129645295Y-117333333D01*
X129645295Y-117333333D02*
X129740533Y-117333333D01*
X129740533Y-117333333D02*
X129883390Y-117380952D01*
X129883390Y-117380952D02*
X130454819Y-117952380D01*
X130454819Y-117952380D02*
X130454819Y-117333333D01*
X52329380Y-91311400D02*
X52420809Y-91341876D01*
X52420809Y-91341876D02*
X52573190Y-91341876D01*
X52573190Y-91341876D02*
X52634142Y-91311400D01*
X52634142Y-91311400D02*
X52664618Y-91280923D01*
X52664618Y-91280923D02*
X52695095Y-91219971D01*
X52695095Y-91219971D02*
X52695095Y-91159019D01*
X52695095Y-91159019D02*
X52664618Y-91098066D01*
X52664618Y-91098066D02*
X52634142Y-91067590D01*
X52634142Y-91067590D02*
X52573190Y-91037114D01*
X52573190Y-91037114D02*
X52451285Y-91006638D01*
X52451285Y-91006638D02*
X52390333Y-90976161D01*
X52390333Y-90976161D02*
X52359856Y-90945685D01*
X52359856Y-90945685D02*
X52329380Y-90884733D01*
X52329380Y-90884733D02*
X52329380Y-90823780D01*
X52329380Y-90823780D02*
X52359856Y-90762828D01*
X52359856Y-90762828D02*
X52390333Y-90732352D01*
X52390333Y-90732352D02*
X52451285Y-90701876D01*
X52451285Y-90701876D02*
X52603666Y-90701876D01*
X52603666Y-90701876D02*
X52695095Y-90732352D01*
X52938904Y-90762828D02*
X52969380Y-90732352D01*
X52969380Y-90732352D02*
X53030333Y-90701876D01*
X53030333Y-90701876D02*
X53182714Y-90701876D01*
X53182714Y-90701876D02*
X53243666Y-90732352D01*
X53243666Y-90732352D02*
X53274142Y-90762828D01*
X53274142Y-90762828D02*
X53304619Y-90823780D01*
X53304619Y-90823780D02*
X53304619Y-90884733D01*
X53304619Y-90884733D02*
X53274142Y-90976161D01*
X53274142Y-90976161D02*
X52908428Y-91341876D01*
X52908428Y-91341876D02*
X53304619Y-91341876D01*
X123333333Y-109859580D02*
X123285714Y-109907200D01*
X123285714Y-109907200D02*
X123142857Y-109954819D01*
X123142857Y-109954819D02*
X123047619Y-109954819D01*
X123047619Y-109954819D02*
X122904762Y-109907200D01*
X122904762Y-109907200D02*
X122809524Y-109811961D01*
X122809524Y-109811961D02*
X122761905Y-109716723D01*
X122761905Y-109716723D02*
X122714286Y-109526247D01*
X122714286Y-109526247D02*
X122714286Y-109383390D01*
X122714286Y-109383390D02*
X122761905Y-109192914D01*
X122761905Y-109192914D02*
X122809524Y-109097676D01*
X122809524Y-109097676D02*
X122904762Y-109002438D01*
X122904762Y-109002438D02*
X123047619Y-108954819D01*
X123047619Y-108954819D02*
X123142857Y-108954819D01*
X123142857Y-108954819D02*
X123285714Y-109002438D01*
X123285714Y-109002438D02*
X123333333Y-109050057D01*
X123714286Y-109050057D02*
X123761905Y-109002438D01*
X123761905Y-109002438D02*
X123857143Y-108954819D01*
X123857143Y-108954819D02*
X124095238Y-108954819D01*
X124095238Y-108954819D02*
X124190476Y-109002438D01*
X124190476Y-109002438D02*
X124238095Y-109050057D01*
X124238095Y-109050057D02*
X124285714Y-109145295D01*
X124285714Y-109145295D02*
X124285714Y-109240533D01*
X124285714Y-109240533D02*
X124238095Y-109383390D01*
X124238095Y-109383390D02*
X123666667Y-109954819D01*
X123666667Y-109954819D02*
X124285714Y-109954819D01*
X84444642Y-117024819D02*
X84111309Y-116548628D01*
X83873214Y-117024819D02*
X83873214Y-116024819D01*
X83873214Y-116024819D02*
X84254166Y-116024819D01*
X84254166Y-116024819D02*
X84349404Y-116072438D01*
X84349404Y-116072438D02*
X84397023Y-116120057D01*
X84397023Y-116120057D02*
X84444642Y-116215295D01*
X84444642Y-116215295D02*
X84444642Y-116358152D01*
X84444642Y-116358152D02*
X84397023Y-116453390D01*
X84397023Y-116453390D02*
X84349404Y-116501009D01*
X84349404Y-116501009D02*
X84254166Y-116548628D01*
X84254166Y-116548628D02*
X83873214Y-116548628D01*
X85397023Y-117024819D02*
X84825595Y-117024819D01*
X85111309Y-117024819D02*
X85111309Y-116024819D01*
X85111309Y-116024819D02*
X85016071Y-116167676D01*
X85016071Y-116167676D02*
X84920833Y-116262914D01*
X84920833Y-116262914D02*
X84825595Y-116310533D01*
X85873214Y-117024819D02*
X86063690Y-117024819D01*
X86063690Y-117024819D02*
X86158928Y-116977200D01*
X86158928Y-116977200D02*
X86206547Y-116929580D01*
X86206547Y-116929580D02*
X86301785Y-116786723D01*
X86301785Y-116786723D02*
X86349404Y-116596247D01*
X86349404Y-116596247D02*
X86349404Y-116215295D01*
X86349404Y-116215295D02*
X86301785Y-116120057D01*
X86301785Y-116120057D02*
X86254166Y-116072438D01*
X86254166Y-116072438D02*
X86158928Y-116024819D01*
X86158928Y-116024819D02*
X85968452Y-116024819D01*
X85968452Y-116024819D02*
X85873214Y-116072438D01*
X85873214Y-116072438D02*
X85825595Y-116120057D01*
X85825595Y-116120057D02*
X85777976Y-116215295D01*
X85777976Y-116215295D02*
X85777976Y-116453390D01*
X85777976Y-116453390D02*
X85825595Y-116548628D01*
X85825595Y-116548628D02*
X85873214Y-116596247D01*
X85873214Y-116596247D02*
X85968452Y-116643866D01*
X85968452Y-116643866D02*
X86158928Y-116643866D01*
X86158928Y-116643866D02*
X86254166Y-116596247D01*
X86254166Y-116596247D02*
X86301785Y-116548628D01*
X86301785Y-116548628D02*
X86349404Y-116453390D01*
X101857142Y-145859580D02*
X101809523Y-145907200D01*
X101809523Y-145907200D02*
X101666666Y-145954819D01*
X101666666Y-145954819D02*
X101571428Y-145954819D01*
X101571428Y-145954819D02*
X101428571Y-145907200D01*
X101428571Y-145907200D02*
X101333333Y-145811961D01*
X101333333Y-145811961D02*
X101285714Y-145716723D01*
X101285714Y-145716723D02*
X101238095Y-145526247D01*
X101238095Y-145526247D02*
X101238095Y-145383390D01*
X101238095Y-145383390D02*
X101285714Y-145192914D01*
X101285714Y-145192914D02*
X101333333Y-145097676D01*
X101333333Y-145097676D02*
X101428571Y-145002438D01*
X101428571Y-145002438D02*
X101571428Y-144954819D01*
X101571428Y-144954819D02*
X101666666Y-144954819D01*
X101666666Y-144954819D02*
X101809523Y-145002438D01*
X101809523Y-145002438D02*
X101857142Y-145050057D01*
X102190476Y-144954819D02*
X102809523Y-144954819D01*
X102809523Y-144954819D02*
X102476190Y-145335771D01*
X102476190Y-145335771D02*
X102619047Y-145335771D01*
X102619047Y-145335771D02*
X102714285Y-145383390D01*
X102714285Y-145383390D02*
X102761904Y-145431009D01*
X102761904Y-145431009D02*
X102809523Y-145526247D01*
X102809523Y-145526247D02*
X102809523Y-145764342D01*
X102809523Y-145764342D02*
X102761904Y-145859580D01*
X102761904Y-145859580D02*
X102714285Y-145907200D01*
X102714285Y-145907200D02*
X102619047Y-145954819D01*
X102619047Y-145954819D02*
X102333333Y-145954819D01*
X102333333Y-145954819D02*
X102238095Y-145907200D01*
X102238095Y-145907200D02*
X102190476Y-145859580D01*
X103666666Y-145288152D02*
X103666666Y-145954819D01*
X103428571Y-144907200D02*
X103190476Y-145621485D01*
X103190476Y-145621485D02*
X103809523Y-145621485D01*
X120357142Y-139859580D02*
X120309523Y-139907200D01*
X120309523Y-139907200D02*
X120166666Y-139954819D01*
X120166666Y-139954819D02*
X120071428Y-139954819D01*
X120071428Y-139954819D02*
X119928571Y-139907200D01*
X119928571Y-139907200D02*
X119833333Y-139811961D01*
X119833333Y-139811961D02*
X119785714Y-139716723D01*
X119785714Y-139716723D02*
X119738095Y-139526247D01*
X119738095Y-139526247D02*
X119738095Y-139383390D01*
X119738095Y-139383390D02*
X119785714Y-139192914D01*
X119785714Y-139192914D02*
X119833333Y-139097676D01*
X119833333Y-139097676D02*
X119928571Y-139002438D01*
X119928571Y-139002438D02*
X120071428Y-138954819D01*
X120071428Y-138954819D02*
X120166666Y-138954819D01*
X120166666Y-138954819D02*
X120309523Y-139002438D01*
X120309523Y-139002438D02*
X120357142Y-139050057D01*
X120738095Y-139050057D02*
X120785714Y-139002438D01*
X120785714Y-139002438D02*
X120880952Y-138954819D01*
X120880952Y-138954819D02*
X121119047Y-138954819D01*
X121119047Y-138954819D02*
X121214285Y-139002438D01*
X121214285Y-139002438D02*
X121261904Y-139050057D01*
X121261904Y-139050057D02*
X121309523Y-139145295D01*
X121309523Y-139145295D02*
X121309523Y-139240533D01*
X121309523Y-139240533D02*
X121261904Y-139383390D01*
X121261904Y-139383390D02*
X120690476Y-139954819D01*
X120690476Y-139954819D02*
X121309523Y-139954819D01*
X122261904Y-139954819D02*
X121690476Y-139954819D01*
X121976190Y-139954819D02*
X121976190Y-138954819D01*
X121976190Y-138954819D02*
X121880952Y-139097676D01*
X121880952Y-139097676D02*
X121785714Y-139192914D01*
X121785714Y-139192914D02*
X121690476Y-139240533D01*
X80334819Y-127548094D02*
X79334819Y-127548094D01*
X79334819Y-127548094D02*
X79334819Y-127309999D01*
X79334819Y-127309999D02*
X79382438Y-127167142D01*
X79382438Y-127167142D02*
X79477676Y-127071904D01*
X79477676Y-127071904D02*
X79572914Y-127024285D01*
X79572914Y-127024285D02*
X79763390Y-126976666D01*
X79763390Y-126976666D02*
X79906247Y-126976666D01*
X79906247Y-126976666D02*
X80096723Y-127024285D01*
X80096723Y-127024285D02*
X80191961Y-127071904D01*
X80191961Y-127071904D02*
X80287200Y-127167142D01*
X80287200Y-127167142D02*
X80334819Y-127309999D01*
X80334819Y-127309999D02*
X80334819Y-127548094D01*
X79334819Y-126643332D02*
X79334819Y-126024285D01*
X79334819Y-126024285D02*
X79715771Y-126357618D01*
X79715771Y-126357618D02*
X79715771Y-126214761D01*
X79715771Y-126214761D02*
X79763390Y-126119523D01*
X79763390Y-126119523D02*
X79811009Y-126071904D01*
X79811009Y-126071904D02*
X79906247Y-126024285D01*
X79906247Y-126024285D02*
X80144342Y-126024285D01*
X80144342Y-126024285D02*
X80239580Y-126071904D01*
X80239580Y-126071904D02*
X80287200Y-126119523D01*
X80287200Y-126119523D02*
X80334819Y-126214761D01*
X80334819Y-126214761D02*
X80334819Y-126500475D01*
X80334819Y-126500475D02*
X80287200Y-126595713D01*
X80287200Y-126595713D02*
X80239580Y-126643332D01*
X80654819Y-130881904D02*
X79654819Y-130881904D01*
X80654819Y-130310476D02*
X80083390Y-130739047D01*
X79654819Y-130310476D02*
X80226247Y-130881904D01*
X87334819Y-134928094D02*
X86334819Y-134928094D01*
X86334819Y-134928094D02*
X86334819Y-134689999D01*
X86334819Y-134689999D02*
X86382438Y-134547142D01*
X86382438Y-134547142D02*
X86477676Y-134451904D01*
X86477676Y-134451904D02*
X86572914Y-134404285D01*
X86572914Y-134404285D02*
X86763390Y-134356666D01*
X86763390Y-134356666D02*
X86906247Y-134356666D01*
X86906247Y-134356666D02*
X87096723Y-134404285D01*
X87096723Y-134404285D02*
X87191961Y-134451904D01*
X87191961Y-134451904D02*
X87287200Y-134547142D01*
X87287200Y-134547142D02*
X87334819Y-134689999D01*
X87334819Y-134689999D02*
X87334819Y-134928094D01*
X86334819Y-133499523D02*
X86334819Y-133689999D01*
X86334819Y-133689999D02*
X86382438Y-133785237D01*
X86382438Y-133785237D02*
X86430057Y-133832856D01*
X86430057Y-133832856D02*
X86572914Y-133928094D01*
X86572914Y-133928094D02*
X86763390Y-133975713D01*
X86763390Y-133975713D02*
X87144342Y-133975713D01*
X87144342Y-133975713D02*
X87239580Y-133928094D01*
X87239580Y-133928094D02*
X87287200Y-133880475D01*
X87287200Y-133880475D02*
X87334819Y-133785237D01*
X87334819Y-133785237D02*
X87334819Y-133594761D01*
X87334819Y-133594761D02*
X87287200Y-133499523D01*
X87287200Y-133499523D02*
X87239580Y-133451904D01*
X87239580Y-133451904D02*
X87144342Y-133404285D01*
X87144342Y-133404285D02*
X86906247Y-133404285D01*
X86906247Y-133404285D02*
X86811009Y-133451904D01*
X86811009Y-133451904D02*
X86763390Y-133499523D01*
X86763390Y-133499523D02*
X86715771Y-133594761D01*
X86715771Y-133594761D02*
X86715771Y-133785237D01*
X86715771Y-133785237D02*
X86763390Y-133880475D01*
X86763390Y-133880475D02*
X86811009Y-133928094D01*
X86811009Y-133928094D02*
X86906247Y-133975713D01*
X87654819Y-138261904D02*
X86654819Y-138261904D01*
X87654819Y-137690476D02*
X87083390Y-138119047D01*
X86654819Y-137690476D02*
X87226247Y-138261904D01*
X127789580Y-135505357D02*
X127837200Y-135552976D01*
X127837200Y-135552976D02*
X127884819Y-135695833D01*
X127884819Y-135695833D02*
X127884819Y-135791071D01*
X127884819Y-135791071D02*
X127837200Y-135933928D01*
X127837200Y-135933928D02*
X127741961Y-136029166D01*
X127741961Y-136029166D02*
X127646723Y-136076785D01*
X127646723Y-136076785D02*
X127456247Y-136124404D01*
X127456247Y-136124404D02*
X127313390Y-136124404D01*
X127313390Y-136124404D02*
X127122914Y-136076785D01*
X127122914Y-136076785D02*
X127027676Y-136029166D01*
X127027676Y-136029166D02*
X126932438Y-135933928D01*
X126932438Y-135933928D02*
X126884819Y-135791071D01*
X126884819Y-135791071D02*
X126884819Y-135695833D01*
X126884819Y-135695833D02*
X126932438Y-135552976D01*
X126932438Y-135552976D02*
X126980057Y-135505357D01*
X126980057Y-135124404D02*
X126932438Y-135076785D01*
X126932438Y-135076785D02*
X126884819Y-134981547D01*
X126884819Y-134981547D02*
X126884819Y-134743452D01*
X126884819Y-134743452D02*
X126932438Y-134648214D01*
X126932438Y-134648214D02*
X126980057Y-134600595D01*
X126980057Y-134600595D02*
X127075295Y-134552976D01*
X127075295Y-134552976D02*
X127170533Y-134552976D01*
X127170533Y-134552976D02*
X127313390Y-134600595D01*
X127313390Y-134600595D02*
X127884819Y-135172023D01*
X127884819Y-135172023D02*
X127884819Y-134552976D01*
X126884819Y-133695833D02*
X126884819Y-133886309D01*
X126884819Y-133886309D02*
X126932438Y-133981547D01*
X126932438Y-133981547D02*
X126980057Y-134029166D01*
X126980057Y-134029166D02*
X127122914Y-134124404D01*
X127122914Y-134124404D02*
X127313390Y-134172023D01*
X127313390Y-134172023D02*
X127694342Y-134172023D01*
X127694342Y-134172023D02*
X127789580Y-134124404D01*
X127789580Y-134124404D02*
X127837200Y-134076785D01*
X127837200Y-134076785D02*
X127884819Y-133981547D01*
X127884819Y-133981547D02*
X127884819Y-133791071D01*
X127884819Y-133791071D02*
X127837200Y-133695833D01*
X127837200Y-133695833D02*
X127789580Y-133648214D01*
X127789580Y-133648214D02*
X127694342Y-133600595D01*
X127694342Y-133600595D02*
X127456247Y-133600595D01*
X127456247Y-133600595D02*
X127361009Y-133648214D01*
X127361009Y-133648214D02*
X127313390Y-133695833D01*
X127313390Y-133695833D02*
X127265771Y-133791071D01*
X127265771Y-133791071D02*
X127265771Y-133981547D01*
X127265771Y-133981547D02*
X127313390Y-134076785D01*
X127313390Y-134076785D02*
X127361009Y-134124404D01*
X127361009Y-134124404D02*
X127456247Y-134172023D01*
X126587142Y-125859580D02*
X126539523Y-125907200D01*
X126539523Y-125907200D02*
X126396666Y-125954819D01*
X126396666Y-125954819D02*
X126301428Y-125954819D01*
X126301428Y-125954819D02*
X126158571Y-125907200D01*
X126158571Y-125907200D02*
X126063333Y-125811961D01*
X126063333Y-125811961D02*
X126015714Y-125716723D01*
X126015714Y-125716723D02*
X125968095Y-125526247D01*
X125968095Y-125526247D02*
X125968095Y-125383390D01*
X125968095Y-125383390D02*
X126015714Y-125192914D01*
X126015714Y-125192914D02*
X126063333Y-125097676D01*
X126063333Y-125097676D02*
X126158571Y-125002438D01*
X126158571Y-125002438D02*
X126301428Y-124954819D01*
X126301428Y-124954819D02*
X126396666Y-124954819D01*
X126396666Y-124954819D02*
X126539523Y-125002438D01*
X126539523Y-125002438D02*
X126587142Y-125050057D01*
X127539523Y-125954819D02*
X126968095Y-125954819D01*
X127253809Y-125954819D02*
X127253809Y-124954819D01*
X127253809Y-124954819D02*
X127158571Y-125097676D01*
X127158571Y-125097676D02*
X127063333Y-125192914D01*
X127063333Y-125192914D02*
X126968095Y-125240533D01*
X128015714Y-125954819D02*
X128206190Y-125954819D01*
X128206190Y-125954819D02*
X128301428Y-125907200D01*
X128301428Y-125907200D02*
X128349047Y-125859580D01*
X128349047Y-125859580D02*
X128444285Y-125716723D01*
X128444285Y-125716723D02*
X128491904Y-125526247D01*
X128491904Y-125526247D02*
X128491904Y-125145295D01*
X128491904Y-125145295D02*
X128444285Y-125050057D01*
X128444285Y-125050057D02*
X128396666Y-125002438D01*
X128396666Y-125002438D02*
X128301428Y-124954819D01*
X128301428Y-124954819D02*
X128110952Y-124954819D01*
X128110952Y-124954819D02*
X128015714Y-125002438D01*
X128015714Y-125002438D02*
X127968095Y-125050057D01*
X127968095Y-125050057D02*
X127920476Y-125145295D01*
X127920476Y-125145295D02*
X127920476Y-125383390D01*
X127920476Y-125383390D02*
X127968095Y-125478628D01*
X127968095Y-125478628D02*
X128015714Y-125526247D01*
X128015714Y-125526247D02*
X128110952Y-125573866D01*
X128110952Y-125573866D02*
X128301428Y-125573866D01*
X128301428Y-125573866D02*
X128396666Y-125526247D01*
X128396666Y-125526247D02*
X128444285Y-125478628D01*
X128444285Y-125478628D02*
X128491904Y-125383390D01*
X79897142Y-147359580D02*
X79849523Y-147407200D01*
X79849523Y-147407200D02*
X79706666Y-147454819D01*
X79706666Y-147454819D02*
X79611428Y-147454819D01*
X79611428Y-147454819D02*
X79468571Y-147407200D01*
X79468571Y-147407200D02*
X79373333Y-147311961D01*
X79373333Y-147311961D02*
X79325714Y-147216723D01*
X79325714Y-147216723D02*
X79278095Y-147026247D01*
X79278095Y-147026247D02*
X79278095Y-146883390D01*
X79278095Y-146883390D02*
X79325714Y-146692914D01*
X79325714Y-146692914D02*
X79373333Y-146597676D01*
X79373333Y-146597676D02*
X79468571Y-146502438D01*
X79468571Y-146502438D02*
X79611428Y-146454819D01*
X79611428Y-146454819D02*
X79706666Y-146454819D01*
X79706666Y-146454819D02*
X79849523Y-146502438D01*
X79849523Y-146502438D02*
X79897142Y-146550057D01*
X80278095Y-146550057D02*
X80325714Y-146502438D01*
X80325714Y-146502438D02*
X80420952Y-146454819D01*
X80420952Y-146454819D02*
X80659047Y-146454819D01*
X80659047Y-146454819D02*
X80754285Y-146502438D01*
X80754285Y-146502438D02*
X80801904Y-146550057D01*
X80801904Y-146550057D02*
X80849523Y-146645295D01*
X80849523Y-146645295D02*
X80849523Y-146740533D01*
X80849523Y-146740533D02*
X80801904Y-146883390D01*
X80801904Y-146883390D02*
X80230476Y-147454819D01*
X80230476Y-147454819D02*
X80849523Y-147454819D01*
X81230476Y-146550057D02*
X81278095Y-146502438D01*
X81278095Y-146502438D02*
X81373333Y-146454819D01*
X81373333Y-146454819D02*
X81611428Y-146454819D01*
X81611428Y-146454819D02*
X81706666Y-146502438D01*
X81706666Y-146502438D02*
X81754285Y-146550057D01*
X81754285Y-146550057D02*
X81801904Y-146645295D01*
X81801904Y-146645295D02*
X81801904Y-146740533D01*
X81801904Y-146740533D02*
X81754285Y-146883390D01*
X81754285Y-146883390D02*
X81182857Y-147454819D01*
X81182857Y-147454819D02*
X81801904Y-147454819D01*
X50666666Y-111954819D02*
X50666666Y-112669104D01*
X50666666Y-112669104D02*
X50619047Y-112811961D01*
X50619047Y-112811961D02*
X50523809Y-112907200D01*
X50523809Y-112907200D02*
X50380952Y-112954819D01*
X50380952Y-112954819D02*
X50285714Y-112954819D01*
X51047619Y-111954819D02*
X51666666Y-111954819D01*
X51666666Y-111954819D02*
X51333333Y-112335771D01*
X51333333Y-112335771D02*
X51476190Y-112335771D01*
X51476190Y-112335771D02*
X51571428Y-112383390D01*
X51571428Y-112383390D02*
X51619047Y-112431009D01*
X51619047Y-112431009D02*
X51666666Y-112526247D01*
X51666666Y-112526247D02*
X51666666Y-112764342D01*
X51666666Y-112764342D02*
X51619047Y-112859580D01*
X51619047Y-112859580D02*
X51571428Y-112907200D01*
X51571428Y-112907200D02*
X51476190Y-112954819D01*
X51476190Y-112954819D02*
X51190476Y-112954819D01*
X51190476Y-112954819D02*
X51095238Y-112907200D01*
X51095238Y-112907200D02*
X51047619Y-112859580D01*
X157370888Y-150183211D02*
X157370888Y-150897496D01*
X157370888Y-150897496D02*
X157323269Y-151040353D01*
X157323269Y-151040353D02*
X157228031Y-151135592D01*
X157228031Y-151135592D02*
X157085174Y-151183211D01*
X157085174Y-151183211D02*
X156989936Y-151183211D01*
X157751841Y-150183211D02*
X158418507Y-150183211D01*
X158418507Y-150183211D02*
X157989936Y-151183211D01*
X111857142Y-122454819D02*
X111523809Y-121978628D01*
X111285714Y-122454819D02*
X111285714Y-121454819D01*
X111285714Y-121454819D02*
X111666666Y-121454819D01*
X111666666Y-121454819D02*
X111761904Y-121502438D01*
X111761904Y-121502438D02*
X111809523Y-121550057D01*
X111809523Y-121550057D02*
X111857142Y-121645295D01*
X111857142Y-121645295D02*
X111857142Y-121788152D01*
X111857142Y-121788152D02*
X111809523Y-121883390D01*
X111809523Y-121883390D02*
X111761904Y-121931009D01*
X111761904Y-121931009D02*
X111666666Y-121978628D01*
X111666666Y-121978628D02*
X111285714Y-121978628D01*
X112238095Y-121550057D02*
X112285714Y-121502438D01*
X112285714Y-121502438D02*
X112380952Y-121454819D01*
X112380952Y-121454819D02*
X112619047Y-121454819D01*
X112619047Y-121454819D02*
X112714285Y-121502438D01*
X112714285Y-121502438D02*
X112761904Y-121550057D01*
X112761904Y-121550057D02*
X112809523Y-121645295D01*
X112809523Y-121645295D02*
X112809523Y-121740533D01*
X112809523Y-121740533D02*
X112761904Y-121883390D01*
X112761904Y-121883390D02*
X112190476Y-122454819D01*
X112190476Y-122454819D02*
X112809523Y-122454819D01*
X113714285Y-121454819D02*
X113238095Y-121454819D01*
X113238095Y-121454819D02*
X113190476Y-121931009D01*
X113190476Y-121931009D02*
X113238095Y-121883390D01*
X113238095Y-121883390D02*
X113333333Y-121835771D01*
X113333333Y-121835771D02*
X113571428Y-121835771D01*
X113571428Y-121835771D02*
X113666666Y-121883390D01*
X113666666Y-121883390D02*
X113714285Y-121931009D01*
X113714285Y-121931009D02*
X113761904Y-122026247D01*
X113761904Y-122026247D02*
X113761904Y-122264342D01*
X113761904Y-122264342D02*
X113714285Y-122359580D01*
X113714285Y-122359580D02*
X113666666Y-122407200D01*
X113666666Y-122407200D02*
X113571428Y-122454819D01*
X113571428Y-122454819D02*
X113333333Y-122454819D01*
X113333333Y-122454819D02*
X113238095Y-122407200D01*
X113238095Y-122407200D02*
X113190476Y-122359580D01*
X125357142Y-147859580D02*
X125309523Y-147907200D01*
X125309523Y-147907200D02*
X125166666Y-147954819D01*
X125166666Y-147954819D02*
X125071428Y-147954819D01*
X125071428Y-147954819D02*
X124928571Y-147907200D01*
X124928571Y-147907200D02*
X124833333Y-147811961D01*
X124833333Y-147811961D02*
X124785714Y-147716723D01*
X124785714Y-147716723D02*
X124738095Y-147526247D01*
X124738095Y-147526247D02*
X124738095Y-147383390D01*
X124738095Y-147383390D02*
X124785714Y-147192914D01*
X124785714Y-147192914D02*
X124833333Y-147097676D01*
X124833333Y-147097676D02*
X124928571Y-147002438D01*
X124928571Y-147002438D02*
X125071428Y-146954819D01*
X125071428Y-146954819D02*
X125166666Y-146954819D01*
X125166666Y-146954819D02*
X125309523Y-147002438D01*
X125309523Y-147002438D02*
X125357142Y-147050057D01*
X125690476Y-146954819D02*
X126309523Y-146954819D01*
X126309523Y-146954819D02*
X125976190Y-147335771D01*
X125976190Y-147335771D02*
X126119047Y-147335771D01*
X126119047Y-147335771D02*
X126214285Y-147383390D01*
X126214285Y-147383390D02*
X126261904Y-147431009D01*
X126261904Y-147431009D02*
X126309523Y-147526247D01*
X126309523Y-147526247D02*
X126309523Y-147764342D01*
X126309523Y-147764342D02*
X126261904Y-147859580D01*
X126261904Y-147859580D02*
X126214285Y-147907200D01*
X126214285Y-147907200D02*
X126119047Y-147954819D01*
X126119047Y-147954819D02*
X125833333Y-147954819D01*
X125833333Y-147954819D02*
X125738095Y-147907200D01*
X125738095Y-147907200D02*
X125690476Y-147859580D01*
X127166666Y-146954819D02*
X126976190Y-146954819D01*
X126976190Y-146954819D02*
X126880952Y-147002438D01*
X126880952Y-147002438D02*
X126833333Y-147050057D01*
X126833333Y-147050057D02*
X126738095Y-147192914D01*
X126738095Y-147192914D02*
X126690476Y-147383390D01*
X126690476Y-147383390D02*
X126690476Y-147764342D01*
X126690476Y-147764342D02*
X126738095Y-147859580D01*
X126738095Y-147859580D02*
X126785714Y-147907200D01*
X126785714Y-147907200D02*
X126880952Y-147954819D01*
X126880952Y-147954819D02*
X127071428Y-147954819D01*
X127071428Y-147954819D02*
X127166666Y-147907200D01*
X127166666Y-147907200D02*
X127214285Y-147859580D01*
X127214285Y-147859580D02*
X127261904Y-147764342D01*
X127261904Y-147764342D02*
X127261904Y-147526247D01*
X127261904Y-147526247D02*
X127214285Y-147431009D01*
X127214285Y-147431009D02*
X127166666Y-147383390D01*
X127166666Y-147383390D02*
X127071428Y-147335771D01*
X127071428Y-147335771D02*
X126880952Y-147335771D01*
X126880952Y-147335771D02*
X126785714Y-147383390D01*
X126785714Y-147383390D02*
X126738095Y-147431009D01*
X126738095Y-147431009D02*
X126690476Y-147526247D01*
X93269642Y-141024819D02*
X92936309Y-140548628D01*
X92698214Y-141024819D02*
X92698214Y-140024819D01*
X92698214Y-140024819D02*
X93079166Y-140024819D01*
X93079166Y-140024819D02*
X93174404Y-140072438D01*
X93174404Y-140072438D02*
X93222023Y-140120057D01*
X93222023Y-140120057D02*
X93269642Y-140215295D01*
X93269642Y-140215295D02*
X93269642Y-140358152D01*
X93269642Y-140358152D02*
X93222023Y-140453390D01*
X93222023Y-140453390D02*
X93174404Y-140501009D01*
X93174404Y-140501009D02*
X93079166Y-140548628D01*
X93079166Y-140548628D02*
X92698214Y-140548628D01*
X93650595Y-140120057D02*
X93698214Y-140072438D01*
X93698214Y-140072438D02*
X93793452Y-140024819D01*
X93793452Y-140024819D02*
X94031547Y-140024819D01*
X94031547Y-140024819D02*
X94126785Y-140072438D01*
X94126785Y-140072438D02*
X94174404Y-140120057D01*
X94174404Y-140120057D02*
X94222023Y-140215295D01*
X94222023Y-140215295D02*
X94222023Y-140310533D01*
X94222023Y-140310533D02*
X94174404Y-140453390D01*
X94174404Y-140453390D02*
X93602976Y-141024819D01*
X93602976Y-141024819D02*
X94222023Y-141024819D01*
X95174404Y-141024819D02*
X94602976Y-141024819D01*
X94888690Y-141024819D02*
X94888690Y-140024819D01*
X94888690Y-140024819D02*
X94793452Y-140167676D01*
X94793452Y-140167676D02*
X94698214Y-140262914D01*
X94698214Y-140262914D02*
X94602976Y-140310533D01*
X69804819Y-111642857D02*
X69328628Y-111976190D01*
X69804819Y-112214285D02*
X68804819Y-112214285D01*
X68804819Y-112214285D02*
X68804819Y-111833333D01*
X68804819Y-111833333D02*
X68852438Y-111738095D01*
X68852438Y-111738095D02*
X68900057Y-111690476D01*
X68900057Y-111690476D02*
X68995295Y-111642857D01*
X68995295Y-111642857D02*
X69138152Y-111642857D01*
X69138152Y-111642857D02*
X69233390Y-111690476D01*
X69233390Y-111690476D02*
X69281009Y-111738095D01*
X69281009Y-111738095D02*
X69328628Y-111833333D01*
X69328628Y-111833333D02*
X69328628Y-112214285D01*
X68804819Y-111309523D02*
X68804819Y-110690476D01*
X68804819Y-110690476D02*
X69185771Y-111023809D01*
X69185771Y-111023809D02*
X69185771Y-110880952D01*
X69185771Y-110880952D02*
X69233390Y-110785714D01*
X69233390Y-110785714D02*
X69281009Y-110738095D01*
X69281009Y-110738095D02*
X69376247Y-110690476D01*
X69376247Y-110690476D02*
X69614342Y-110690476D01*
X69614342Y-110690476D02*
X69709580Y-110738095D01*
X69709580Y-110738095D02*
X69757200Y-110785714D01*
X69757200Y-110785714D02*
X69804819Y-110880952D01*
X69804819Y-110880952D02*
X69804819Y-111166666D01*
X69804819Y-111166666D02*
X69757200Y-111261904D01*
X69757200Y-111261904D02*
X69709580Y-111309523D01*
X69138152Y-109833333D02*
X69804819Y-109833333D01*
X68757200Y-110071428D02*
X69471485Y-110309523D01*
X69471485Y-110309523D02*
X69471485Y-109690476D01*
X66407200Y-103833332D02*
X66454819Y-103690475D01*
X66454819Y-103690475D02*
X66454819Y-103452380D01*
X66454819Y-103452380D02*
X66407200Y-103357142D01*
X66407200Y-103357142D02*
X66359580Y-103309523D01*
X66359580Y-103309523D02*
X66264342Y-103261904D01*
X66264342Y-103261904D02*
X66169104Y-103261904D01*
X66169104Y-103261904D02*
X66073866Y-103309523D01*
X66073866Y-103309523D02*
X66026247Y-103357142D01*
X66026247Y-103357142D02*
X65978628Y-103452380D01*
X65978628Y-103452380D02*
X65931009Y-103642856D01*
X65931009Y-103642856D02*
X65883390Y-103738094D01*
X65883390Y-103738094D02*
X65835771Y-103785713D01*
X65835771Y-103785713D02*
X65740533Y-103833332D01*
X65740533Y-103833332D02*
X65645295Y-103833332D01*
X65645295Y-103833332D02*
X65550057Y-103785713D01*
X65550057Y-103785713D02*
X65502438Y-103738094D01*
X65502438Y-103738094D02*
X65454819Y-103642856D01*
X65454819Y-103642856D02*
X65454819Y-103404761D01*
X65454819Y-103404761D02*
X65502438Y-103261904D01*
X65454819Y-102928570D02*
X66454819Y-102690475D01*
X66454819Y-102690475D02*
X65740533Y-102499999D01*
X65740533Y-102499999D02*
X66454819Y-102309523D01*
X66454819Y-102309523D02*
X65454819Y-102071428D01*
X65454819Y-101785713D02*
X65454819Y-101166666D01*
X65454819Y-101166666D02*
X65835771Y-101499999D01*
X65835771Y-101499999D02*
X65835771Y-101357142D01*
X65835771Y-101357142D02*
X65883390Y-101261904D01*
X65883390Y-101261904D02*
X65931009Y-101214285D01*
X65931009Y-101214285D02*
X66026247Y-101166666D01*
X66026247Y-101166666D02*
X66264342Y-101166666D01*
X66264342Y-101166666D02*
X66359580Y-101214285D01*
X66359580Y-101214285D02*
X66407200Y-101261904D01*
X66407200Y-101261904D02*
X66454819Y-101357142D01*
X66454819Y-101357142D02*
X66454819Y-101642856D01*
X66454819Y-101642856D02*
X66407200Y-101738094D01*
X66407200Y-101738094D02*
X66359580Y-101785713D01*
X73574819Y-127548094D02*
X72574819Y-127548094D01*
X72574819Y-127548094D02*
X72574819Y-127309999D01*
X72574819Y-127309999D02*
X72622438Y-127167142D01*
X72622438Y-127167142D02*
X72717676Y-127071904D01*
X72717676Y-127071904D02*
X72812914Y-127024285D01*
X72812914Y-127024285D02*
X73003390Y-126976666D01*
X73003390Y-126976666D02*
X73146247Y-126976666D01*
X73146247Y-126976666D02*
X73336723Y-127024285D01*
X73336723Y-127024285D02*
X73431961Y-127071904D01*
X73431961Y-127071904D02*
X73527200Y-127167142D01*
X73527200Y-127167142D02*
X73574819Y-127309999D01*
X73574819Y-127309999D02*
X73574819Y-127548094D01*
X72574819Y-126071904D02*
X72574819Y-126548094D01*
X72574819Y-126548094D02*
X73051009Y-126595713D01*
X73051009Y-126595713D02*
X73003390Y-126548094D01*
X73003390Y-126548094D02*
X72955771Y-126452856D01*
X72955771Y-126452856D02*
X72955771Y-126214761D01*
X72955771Y-126214761D02*
X73003390Y-126119523D01*
X73003390Y-126119523D02*
X73051009Y-126071904D01*
X73051009Y-126071904D02*
X73146247Y-126024285D01*
X73146247Y-126024285D02*
X73384342Y-126024285D01*
X73384342Y-126024285D02*
X73479580Y-126071904D01*
X73479580Y-126071904D02*
X73527200Y-126119523D01*
X73527200Y-126119523D02*
X73574819Y-126214761D01*
X73574819Y-126214761D02*
X73574819Y-126452856D01*
X73574819Y-126452856D02*
X73527200Y-126548094D01*
X73527200Y-126548094D02*
X73479580Y-126595713D01*
X73254819Y-122261904D02*
X72254819Y-122261904D01*
X73254819Y-121690476D02*
X72683390Y-122119047D01*
X72254819Y-121690476D02*
X72826247Y-122261904D01*
X116640419Y-117897142D02*
X116592800Y-117849523D01*
X116592800Y-117849523D02*
X116545180Y-117706666D01*
X116545180Y-117706666D02*
X116545180Y-117611428D01*
X116545180Y-117611428D02*
X116592800Y-117468571D01*
X116592800Y-117468571D02*
X116688038Y-117373333D01*
X116688038Y-117373333D02*
X116783276Y-117325714D01*
X116783276Y-117325714D02*
X116973752Y-117278095D01*
X116973752Y-117278095D02*
X117116609Y-117278095D01*
X117116609Y-117278095D02*
X117307085Y-117325714D01*
X117307085Y-117325714D02*
X117402323Y-117373333D01*
X117402323Y-117373333D02*
X117497561Y-117468571D01*
X117497561Y-117468571D02*
X117545180Y-117611428D01*
X117545180Y-117611428D02*
X117545180Y-117706666D01*
X117545180Y-117706666D02*
X117497561Y-117849523D01*
X117497561Y-117849523D02*
X117449942Y-117897142D01*
X117449942Y-118278095D02*
X117497561Y-118325714D01*
X117497561Y-118325714D02*
X117545180Y-118420952D01*
X117545180Y-118420952D02*
X117545180Y-118659047D01*
X117545180Y-118659047D02*
X117497561Y-118754285D01*
X117497561Y-118754285D02*
X117449942Y-118801904D01*
X117449942Y-118801904D02*
X117354704Y-118849523D01*
X117354704Y-118849523D02*
X117259466Y-118849523D01*
X117259466Y-118849523D02*
X117116609Y-118801904D01*
X117116609Y-118801904D02*
X116545180Y-118230476D01*
X116545180Y-118230476D02*
X116545180Y-118849523D01*
X117116609Y-119420952D02*
X117164228Y-119325714D01*
X117164228Y-119325714D02*
X117211847Y-119278095D01*
X117211847Y-119278095D02*
X117307085Y-119230476D01*
X117307085Y-119230476D02*
X117354704Y-119230476D01*
X117354704Y-119230476D02*
X117449942Y-119278095D01*
X117449942Y-119278095D02*
X117497561Y-119325714D01*
X117497561Y-119325714D02*
X117545180Y-119420952D01*
X117545180Y-119420952D02*
X117545180Y-119611428D01*
X117545180Y-119611428D02*
X117497561Y-119706666D01*
X117497561Y-119706666D02*
X117449942Y-119754285D01*
X117449942Y-119754285D02*
X117354704Y-119801904D01*
X117354704Y-119801904D02*
X117307085Y-119801904D01*
X117307085Y-119801904D02*
X117211847Y-119754285D01*
X117211847Y-119754285D02*
X117164228Y-119706666D01*
X117164228Y-119706666D02*
X117116609Y-119611428D01*
X117116609Y-119611428D02*
X117116609Y-119420952D01*
X117116609Y-119420952D02*
X117068990Y-119325714D01*
X117068990Y-119325714D02*
X117021371Y-119278095D01*
X117021371Y-119278095D02*
X116926133Y-119230476D01*
X116926133Y-119230476D02*
X116735657Y-119230476D01*
X116735657Y-119230476D02*
X116640419Y-119278095D01*
X116640419Y-119278095D02*
X116592800Y-119325714D01*
X116592800Y-119325714D02*
X116545180Y-119420952D01*
X116545180Y-119420952D02*
X116545180Y-119611428D01*
X116545180Y-119611428D02*
X116592800Y-119706666D01*
X116592800Y-119706666D02*
X116640419Y-119754285D01*
X116640419Y-119754285D02*
X116735657Y-119801904D01*
X116735657Y-119801904D02*
X116926133Y-119801904D01*
X116926133Y-119801904D02*
X117021371Y-119754285D01*
X117021371Y-119754285D02*
X117068990Y-119706666D01*
X117068990Y-119706666D02*
X117116609Y-119611428D01*
%TO.C,U2*%
D11*
X115768600Y-140133100D02*
G75*
G02*
X115159000Y-140133100I-304800J0D01*
G01*
X116837453Y-140133100D02*
X114090147Y-140133100D01*
X114090147Y-145136900D02*
X116837453Y-145136900D01*
%TO.C,R26*%
D12*
X111522500Y-124832776D02*
X111522500Y-125342224D01*
X110477500Y-124832776D02*
X110477500Y-125342224D01*
%TO.C,C39*%
D11*
X96335500Y-129112000D02*
X96335500Y-123778000D01*
X98050000Y-122381000D02*
X98050000Y-123651000D01*
X98685000Y-123016000D02*
X97415000Y-123016000D01*
X99764500Y-123778000D02*
X96335500Y-123778000D01*
X99764500Y-129112000D02*
X96335500Y-129112000D01*
X99764500Y-129112000D02*
X99764500Y-123778000D01*
%TO.C,R22*%
D12*
X99657776Y-141477500D02*
X100167224Y-141477500D01*
X99657776Y-142522500D02*
X100167224Y-142522500D01*
%TO.C,J1*%
X136670000Y-146590000D02*
X136670000Y-98270000D01*
X136670000Y-149190000D02*
X136670000Y-147860000D01*
X138000000Y-149190000D02*
X136670000Y-149190000D01*
X139330000Y-98270000D02*
X136670000Y-98270000D01*
X139330000Y-146590000D02*
X136670000Y-146590000D01*
X139330000Y-146590000D02*
X139330000Y-98270000D01*
%TO.C,U1*%
D11*
X99212547Y-121406150D02*
X101959853Y-121406150D01*
X101959853Y-116402350D02*
X99212547Y-116402350D01*
X100891000Y-116402350D02*
G75*
G02*
X100281400Y-116402350I-304800J0D01*
G01*
%TO.C,C38*%
X110206000Y-148000000D02*
X111476000Y-148000000D01*
X110841000Y-147365000D02*
X110841000Y-148635000D01*
X111603000Y-146285500D02*
X111603000Y-149714500D01*
X116937000Y-146285500D02*
X111603000Y-146285500D01*
X116937000Y-146285500D02*
X116937000Y-149714500D01*
X116937000Y-149714500D02*
X111603000Y-149714500D01*
%TO.C,C3*%
D12*
X130100000Y-103934000D02*
G75*
G02*
X124860000Y-103934000I-2620000J0D01*
G01*
X124860000Y-103934000D02*
G75*
G02*
X130100000Y-103934000I2620000J0D01*
G01*
%TO.C,C31*%
X132763767Y-138424000D02*
X132471233Y-138424000D01*
X132763767Y-139444000D02*
X132471233Y-139444000D01*
%TO.C,R23*%
X123560000Y-131014000D02*
X127400000Y-131014000D01*
X123560000Y-132854000D02*
X127400000Y-132854000D01*
%TO.C,SW2*%
X84600000Y-92900000D02*
X87000000Y-92900000D01*
X84600000Y-97000000D02*
X84600000Y-92900000D01*
X84600000Y-101000000D02*
X84600000Y-105100000D01*
X84600000Y-105100000D02*
X96400000Y-105100000D01*
X86400000Y-106200000D02*
X86700000Y-106500000D01*
X86400000Y-106800000D02*
X86400000Y-106200000D01*
X86700000Y-106500000D02*
X86400000Y-106800000D01*
X89200000Y-92900000D02*
X91800000Y-92900000D01*
X90000000Y-99000000D02*
X91000000Y-99000000D01*
X90500000Y-99500000D02*
X90500000Y-98500000D01*
X94000000Y-92900000D02*
X96400000Y-92900000D01*
X96400000Y-92900000D02*
X96400000Y-97000000D01*
X96400000Y-101000000D02*
X96400000Y-105100000D01*
X93500000Y-99000000D02*
G75*
G02*
X87500000Y-99000000I-3000000J0D01*
G01*
X87500000Y-99000000D02*
G75*
G02*
X93500000Y-99000000I3000000J0D01*
G01*
%TO.C,S1*%
D13*
X50700000Y-102000000D02*
X50700000Y-106000000D01*
X50700000Y-106000000D02*
X62300000Y-106000000D01*
X62300000Y-102000000D02*
X50700000Y-102000000D01*
X62300000Y-106000000D02*
X62300000Y-102000000D01*
D14*
X50100000Y-104000000D02*
G75*
G02*
X49900000Y-104000000I-100000J0D01*
G01*
X49900000Y-104000000D02*
G75*
G02*
X50100000Y-104000000I100000J0D01*
G01*
%TO.C,R20*%
D12*
X84832776Y-141477500D02*
X85342224Y-141477500D01*
X84832776Y-142522500D02*
X85342224Y-142522500D01*
%TO.C,R29*%
X129620000Y-134620000D02*
X133460000Y-134620000D01*
X129620000Y-136460000D02*
X133460000Y-136460000D01*
%TO.C,SW1*%
X101600000Y-92900000D02*
X104000000Y-92900000D01*
X101600000Y-97000000D02*
X101600000Y-92900000D01*
X101600000Y-101000000D02*
X101600000Y-105100000D01*
X101600000Y-105100000D02*
X113400000Y-105100000D01*
X103400000Y-106200000D02*
X103700000Y-106500000D01*
X103400000Y-106800000D02*
X103400000Y-106200000D01*
X103700000Y-106500000D02*
X103400000Y-106800000D01*
X106200000Y-92900000D02*
X108800000Y-92900000D01*
X107000000Y-99000000D02*
X108000000Y-99000000D01*
X107500000Y-99500000D02*
X107500000Y-98500000D01*
X111000000Y-92900000D02*
X113400000Y-92900000D01*
X113400000Y-92900000D02*
X113400000Y-97000000D01*
X113400000Y-101000000D02*
X113400000Y-105100000D01*
X110500000Y-99000000D02*
G75*
G02*
X104500000Y-99000000I-3000000J0D01*
G01*
X104500000Y-99000000D02*
G75*
G02*
X110500000Y-99000000I3000000J0D01*
G01*
%TO.C,R35*%
X75265000Y-110227064D02*
X75265000Y-109772936D01*
X76735000Y-110227064D02*
X76735000Y-109772936D01*
%TO.C,R18*%
X75477500Y-131254724D02*
X75477500Y-130745276D01*
X76522500Y-131254724D02*
X76522500Y-130745276D01*
%TO.C,C29*%
X116490000Y-124891233D02*
X116490000Y-125183767D01*
X117510000Y-124891233D02*
X117510000Y-125183767D01*
%TO.C,R31*%
X109265000Y-110227064D02*
X109265000Y-109772936D01*
X110735000Y-110227064D02*
X110735000Y-109772936D01*
%TO.C,R30*%
X104265000Y-110227064D02*
X104265000Y-109772936D01*
X105735000Y-110227064D02*
X105735000Y-109772936D01*
%TO.C,R27*%
X116657776Y-133477500D02*
X117167224Y-133477500D01*
X116657776Y-134522500D02*
X117167224Y-134522500D01*
%TO.C,D4*%
X90040000Y-146000000D02*
X90690000Y-146000000D01*
X94090000Y-147120000D02*
X94090000Y-144880000D01*
X94210000Y-147120000D02*
X94210000Y-144880000D01*
X94330000Y-147120000D02*
X94330000Y-144880000D01*
X95580000Y-146000000D02*
X94930000Y-146000000D01*
X90690000Y-144880000D02*
X94930000Y-144880000D01*
X94930000Y-147120000D01*
X90690000Y-147120000D01*
X90690000Y-144880000D01*
%TO.C,R24*%
X93477500Y-114167224D02*
X93477500Y-113657776D01*
X94522500Y-114167224D02*
X94522500Y-113657776D01*
%TO.C,R28*%
X121477500Y-142657776D02*
X121477500Y-143167224D01*
X122522500Y-142657776D02*
X122522500Y-143167224D01*
%TO.C,R1*%
X131957500Y-115276224D02*
X131957500Y-114766776D01*
X133002500Y-115276224D02*
X133002500Y-114766776D01*
%TO.C,C25*%
D11*
X104206000Y-117000000D02*
X105476000Y-117000000D01*
X104841000Y-116365000D02*
X104841000Y-117635000D01*
X105603000Y-115285500D02*
X105603000Y-118714500D01*
X110937000Y-115285500D02*
X105603000Y-115285500D01*
X110937000Y-115285500D02*
X110937000Y-118714500D01*
X110937000Y-118714500D02*
X105603000Y-118714500D01*
%TO.C,R2*%
D12*
X131957500Y-109276224D02*
X131957500Y-108766776D01*
X133002500Y-109276224D02*
X133002500Y-108766776D01*
%TO.C,C27*%
X88490000Y-114108767D02*
X88490000Y-113816233D01*
X89510000Y-114108767D02*
X89510000Y-113816233D01*
%TO.C,R3*%
X131957500Y-103276224D02*
X131957500Y-102766776D01*
X133002500Y-103276224D02*
X133002500Y-102766776D01*
%TO.C,R32*%
X87265000Y-110227064D02*
X87265000Y-109772936D01*
X88735000Y-110227064D02*
X88735000Y-109772936D01*
%TO.C,R33*%
X92265000Y-110227064D02*
X92265000Y-109772936D01*
X93735000Y-110227064D02*
X93735000Y-109772936D01*
%TO.C,C23*%
X99716233Y-136490000D02*
X100008767Y-136490000D01*
X99716233Y-137510000D02*
X100008767Y-137510000D01*
%TO.C,C24*%
D11*
X105333000Y-135857000D02*
X105333000Y-133063000D01*
X107365000Y-139159000D02*
X108635000Y-139159000D01*
X108000000Y-139794000D02*
X108000000Y-138524000D01*
X110667000Y-135857000D02*
X110667000Y-133063000D01*
X105333000Y-133190000D02*
G75*
G02*
X108000000Y-130523000I2667000J0D01*
G01*
X108000000Y-130523000D02*
G75*
G02*
X110667000Y-133190000I0J-2667000D01*
G01*
X110667000Y-135730000D02*
G75*
G02*
X105333000Y-135730000I-2667000J0D01*
G01*
%TO.C,C35*%
X91335500Y-129112000D02*
X91335500Y-123778000D01*
X93050000Y-122381000D02*
X93050000Y-123651000D01*
X93685000Y-123016000D02*
X92415000Y-123016000D01*
X94764500Y-123778000D02*
X91335500Y-123778000D01*
X94764500Y-129112000D02*
X91335500Y-129112000D01*
X94764500Y-129112000D02*
X94764500Y-123778000D01*
%TO.C,C20*%
X67301000Y-138000000D02*
X68571000Y-138000000D01*
X67936000Y-137365000D02*
X67936000Y-138635000D01*
X71238000Y-135333000D02*
X74032000Y-135333000D01*
X71238000Y-140667000D02*
X74032000Y-140667000D01*
X71365000Y-140667000D02*
G75*
G02*
X71365000Y-135333000I0J2667000D01*
G01*
X73905000Y-135333000D02*
G75*
G02*
X76572000Y-138000000I0J-2667000D01*
G01*
X76572000Y-138000000D02*
G75*
G02*
X73905000Y-140667000I-2667000J0D01*
G01*
%TO.C,C30*%
D12*
X128490000Y-142716233D02*
X128490000Y-143008767D01*
X129510000Y-142716233D02*
X129510000Y-143008767D01*
%TO.C,C37*%
D11*
X101335500Y-129112000D02*
X101335500Y-123778000D01*
X103050000Y-122381000D02*
X103050000Y-123651000D01*
X103685000Y-123016000D02*
X102415000Y-123016000D01*
X104764500Y-123778000D02*
X101335500Y-123778000D01*
X104764500Y-129112000D02*
X101335500Y-129112000D01*
X104764500Y-129112000D02*
X104764500Y-123778000D01*
%TO.C,J2*%
D12*
X125420000Y-114874000D02*
X125420000Y-116994000D01*
X127480000Y-114874000D02*
X125420000Y-114874000D01*
X127480000Y-114874000D02*
X127480000Y-116994000D01*
X127480000Y-116994000D02*
X125420000Y-116994000D01*
X129540000Y-115934000D02*
X129540000Y-116994000D01*
X129540000Y-116994000D02*
X128480000Y-116994000D01*
%TO.C,S2*%
D13*
X50700000Y-92000000D02*
X50700000Y-96000000D01*
X50700000Y-96000000D02*
X62300000Y-96000000D01*
X62300000Y-92000000D02*
X50700000Y-92000000D01*
X62300000Y-96000000D02*
X62300000Y-92000000D01*
D14*
X50100000Y-94000000D02*
G75*
G02*
X49900000Y-94000000I-100000J0D01*
G01*
X49900000Y-94000000D02*
G75*
G02*
X50100000Y-94000000I100000J0D01*
G01*
%TO.C,C2*%
D12*
X130100000Y-109934000D02*
G75*
G02*
X124860000Y-109934000I-2620000J0D01*
G01*
X124860000Y-109934000D02*
G75*
G02*
X130100000Y-109934000I2620000J0D01*
G01*
%TO.C,R19*%
X84832776Y-117477500D02*
X85342224Y-117477500D01*
X84832776Y-118522500D02*
X85342224Y-118522500D01*
%TO.C,C34*%
D11*
X104063000Y-143285500D02*
X109397000Y-143285500D01*
X104063000Y-146714500D02*
X104063000Y-143285500D01*
X104063000Y-146714500D02*
X109397000Y-146714500D01*
X109397000Y-146714500D02*
X109397000Y-143285500D01*
X110159000Y-145635000D02*
X110159000Y-144365000D01*
X110794000Y-145000000D02*
X109524000Y-145000000D01*
%TO.C,C21*%
X115206000Y-137000000D02*
X116476000Y-137000000D01*
X115841000Y-136365000D02*
X115841000Y-137635000D01*
X116603000Y-135285500D02*
X116603000Y-138714500D01*
X121937000Y-135285500D02*
X116603000Y-135285500D01*
X121937000Y-135285500D02*
X121937000Y-138714500D01*
X121937000Y-138714500D02*
X116603000Y-138714500D01*
%TO.C,D3*%
D12*
X80880000Y-128090000D02*
X83120000Y-128090000D01*
X80880000Y-128210000D02*
X83120000Y-128210000D01*
X80880000Y-128330000D02*
X83120000Y-128330000D01*
X82000000Y-124040000D02*
X82000000Y-124690000D01*
X82000000Y-129580000D02*
X82000000Y-128930000D01*
X80880000Y-124690000D02*
X83120000Y-124690000D01*
X83120000Y-128930000D01*
X80880000Y-128930000D01*
X80880000Y-124690000D01*
%TO.C,D6*%
X87880000Y-135470000D02*
X90120000Y-135470000D01*
X87880000Y-135590000D02*
X90120000Y-135590000D01*
X87880000Y-135710000D02*
X90120000Y-135710000D01*
X89000000Y-131420000D02*
X89000000Y-132070000D01*
X89000000Y-136960000D02*
X89000000Y-136310000D01*
X87880000Y-132070000D02*
X90120000Y-132070000D01*
X90120000Y-136310000D01*
X87880000Y-136310000D01*
X87880000Y-132070000D01*
%TO.C,C26*%
X125490000Y-134716233D02*
X125490000Y-135008767D01*
X126510000Y-134716233D02*
X126510000Y-135008767D01*
%TO.C,C19*%
X124630000Y-122217000D02*
X124630000Y-121651000D01*
X124670000Y-122451000D02*
X124670000Y-121417000D01*
X124710000Y-122611000D02*
X124710000Y-121257000D01*
X124750000Y-122739000D02*
X124750000Y-121129000D01*
X124790000Y-122848000D02*
X124790000Y-121020000D01*
X124830000Y-122945000D02*
X124830000Y-120923000D01*
X124870000Y-123032000D02*
X124870000Y-120836000D01*
X124910000Y-123111000D02*
X124910000Y-120757000D01*
X124950000Y-120894000D02*
X124950000Y-120683000D01*
X124950000Y-123185000D02*
X124950000Y-122974000D01*
X124990000Y-120894000D02*
X124990000Y-120615000D01*
X124990000Y-123253000D02*
X124990000Y-122974000D01*
X125030000Y-120894000D02*
X125030000Y-120551000D01*
X125030000Y-123317000D02*
X125030000Y-122974000D01*
X125070000Y-120894000D02*
X125070000Y-120491000D01*
X125070000Y-123377000D02*
X125070000Y-122974000D01*
X125110000Y-120894000D02*
X125110000Y-120435000D01*
X125110000Y-123433000D02*
X125110000Y-122974000D01*
X125150000Y-120894000D02*
X125150000Y-120381000D01*
X125150000Y-123487000D02*
X125150000Y-122974000D01*
X125190000Y-120894000D02*
X125190000Y-120330000D01*
X125190000Y-123538000D02*
X125190000Y-122974000D01*
X125230000Y-120894000D02*
X125230000Y-120282000D01*
X125230000Y-123586000D02*
X125230000Y-122974000D01*
X125270000Y-120894000D02*
X125270000Y-120235000D01*
X125270000Y-123633000D02*
X125270000Y-122974000D01*
X125310000Y-120894000D02*
X125310000Y-120191000D01*
X125310000Y-123677000D02*
X125310000Y-122974000D01*
X125350000Y-120894000D02*
X125350000Y-120149000D01*
X125350000Y-123719000D02*
X125350000Y-122974000D01*
X125390000Y-120894000D02*
X125390000Y-120109000D01*
X125390000Y-123759000D02*
X125390000Y-122974000D01*
X125430000Y-120894000D02*
X125430000Y-120070000D01*
X125430000Y-123798000D02*
X125430000Y-122974000D01*
X125470000Y-120894000D02*
X125470000Y-120033000D01*
X125470000Y-123835000D02*
X125470000Y-122974000D01*
X125510000Y-120894000D02*
X125510000Y-119998000D01*
X125510000Y-123870000D02*
X125510000Y-122974000D01*
X125550000Y-120894000D02*
X125550000Y-119964000D01*
X125550000Y-123904000D02*
X125550000Y-122974000D01*
X125590000Y-120894000D02*
X125590000Y-119931000D01*
X125590000Y-123937000D02*
X125590000Y-122974000D01*
X125630000Y-120894000D02*
X125630000Y-119899000D01*
X125630000Y-123969000D02*
X125630000Y-122974000D01*
X125670000Y-120894000D02*
X125670000Y-119869000D01*
X125670000Y-123999000D02*
X125670000Y-122974000D01*
X125710000Y-120894000D02*
X125710000Y-119840000D01*
X125710000Y-124028000D02*
X125710000Y-122974000D01*
X125750000Y-120894000D02*
X125750000Y-119812000D01*
X125750000Y-124056000D02*
X125750000Y-122974000D01*
X125790000Y-120894000D02*
X125790000Y-119785000D01*
X125790000Y-124083000D02*
X125790000Y-122974000D01*
X125830000Y-120894000D02*
X125830000Y-119759000D01*
X125830000Y-124109000D02*
X125830000Y-122974000D01*
X125870000Y-120894000D02*
X125870000Y-119735000D01*
X125870000Y-124133000D02*
X125870000Y-122974000D01*
X125910000Y-120894000D02*
X125910000Y-119711000D01*
X125910000Y-124157000D02*
X125910000Y-122974000D01*
X125950000Y-120894000D02*
X125950000Y-119688000D01*
X125950000Y-124180000D02*
X125950000Y-122974000D01*
X125990000Y-120894000D02*
X125990000Y-119666000D01*
X125990000Y-124202000D02*
X125990000Y-122974000D01*
X126030000Y-120894000D02*
X126030000Y-119645000D01*
X126030000Y-124223000D02*
X126030000Y-122974000D01*
X126070000Y-120894000D02*
X126070000Y-119625000D01*
X126070000Y-124243000D02*
X126070000Y-122974000D01*
X126110000Y-120894000D02*
X126110000Y-119605000D01*
X126110000Y-124263000D02*
X126110000Y-122974000D01*
X126150000Y-120894000D02*
X126150000Y-119587000D01*
X126150000Y-124281000D02*
X126150000Y-122974000D01*
X126190000Y-120894000D02*
X126190000Y-119569000D01*
X126190000Y-124299000D02*
X126190000Y-122974000D01*
X126230000Y-120894000D02*
X126230000Y-119552000D01*
X126230000Y-124316000D02*
X126230000Y-122974000D01*
X126270000Y-120894000D02*
X126270000Y-119536000D01*
X126270000Y-124332000D02*
X126270000Y-122974000D01*
X126310000Y-120894000D02*
X126310000Y-119521000D01*
X126310000Y-124347000D02*
X126310000Y-122974000D01*
X126350000Y-120894000D02*
X126350000Y-119506000D01*
X126350000Y-124362000D02*
X126350000Y-122974000D01*
X126390000Y-120894000D02*
X126390000Y-119492000D01*
X126390000Y-124376000D02*
X126390000Y-122974000D01*
X126430000Y-120894000D02*
X126430000Y-119479000D01*
X126430000Y-124389000D02*
X126430000Y-122974000D01*
X126470000Y-120894000D02*
X126470000Y-119467000D01*
X126470000Y-124401000D02*
X126470000Y-122974000D01*
X126510000Y-120894000D02*
X126510000Y-119455000D01*
X126510000Y-124413000D02*
X126510000Y-122974000D01*
X126550000Y-120894000D02*
X126550000Y-119444000D01*
X126550000Y-124424000D02*
X126550000Y-122974000D01*
X126590000Y-120894000D02*
X126590000Y-119433000D01*
X126590000Y-124435000D02*
X126590000Y-122974000D01*
X126630000Y-120894000D02*
X126630000Y-119424000D01*
X126630000Y-124444000D02*
X126630000Y-122974000D01*
X126670000Y-120894000D02*
X126670000Y-119415000D01*
X126670000Y-124453000D02*
X126670000Y-122974000D01*
X126710000Y-120894000D02*
X126710000Y-119406000D01*
X126710000Y-124462000D02*
X126710000Y-122974000D01*
X126750000Y-120894000D02*
X126750000Y-119398000D01*
X126750000Y-124470000D02*
X126750000Y-122974000D01*
X126790000Y-120894000D02*
X126790000Y-119391000D01*
X126790000Y-124477000D02*
X126790000Y-122974000D01*
X126830000Y-120894000D02*
X126830000Y-119385000D01*
X126830000Y-124483000D02*
X126830000Y-122974000D01*
X126870000Y-120894000D02*
X126870000Y-119379000D01*
X126870000Y-124489000D02*
X126870000Y-122974000D01*
X126910000Y-120894000D02*
X126910000Y-119374000D01*
X126910000Y-124494000D02*
X126910000Y-122974000D01*
X126950000Y-120894000D02*
X126950000Y-119369000D01*
X126950000Y-124499000D02*
X126950000Y-122974000D01*
X126990000Y-120894000D02*
X126990000Y-119365000D01*
X126990000Y-124503000D02*
X126990000Y-122974000D01*
X127030000Y-124506000D02*
X127030000Y-119362000D01*
X127070000Y-124509000D02*
X127070000Y-119359000D01*
X127110000Y-124511000D02*
X127110000Y-119357000D01*
X127150000Y-124513000D02*
X127150000Y-119355000D01*
X127190000Y-124514000D02*
X127190000Y-119354000D01*
X127230000Y-124514000D02*
X127230000Y-119354000D01*
X129784775Y-123659000D02*
X129784775Y-123159000D01*
X130034775Y-123409000D02*
X129534775Y-123409000D01*
X129850000Y-121934000D02*
G75*
G02*
X124610000Y-121934000I-2620000J0D01*
G01*
X124610000Y-121934000D02*
G75*
G02*
X129850000Y-121934000I2620000J0D01*
G01*
%TO.C,C22*%
D11*
X75206000Y-147000000D02*
X76476000Y-147000000D01*
X75841000Y-146365000D02*
X75841000Y-147635000D01*
X79143000Y-144333000D02*
X81937000Y-144333000D01*
X79143000Y-149667000D02*
X81937000Y-149667000D01*
X79270000Y-149667000D02*
G75*
G02*
X79270000Y-144333000I0J2667000D01*
G01*
X81810000Y-144333000D02*
G75*
G02*
X84477000Y-147000000I0J-2667000D01*
G01*
X84477000Y-147000000D02*
G75*
G02*
X81810000Y-149667000I-2667000J0D01*
G01*
%TO.C,J3*%
X48672100Y-113124750D02*
X52436610Y-113124750D01*
X48672100Y-128872750D02*
X48672100Y-113124750D01*
X49459500Y-128872750D02*
X48672100Y-128872750D01*
X49459500Y-149573750D02*
X49459500Y-128872750D01*
X54483390Y-113124750D02*
X54976610Y-113124750D01*
X57023390Y-113124750D02*
X57516610Y-113124750D01*
X59563390Y-113124750D02*
X63327900Y-113124750D01*
X62540500Y-128872750D02*
X62540500Y-149573750D01*
X62540500Y-149573750D02*
X49459500Y-149573750D01*
X63327900Y-113124750D02*
X63327900Y-128872750D01*
X63327900Y-128872750D02*
X62540500Y-128872750D01*
%TO.C,J7*%
D12*
X156374222Y-146688392D02*
X156374222Y-98368392D01*
X156374222Y-149288392D02*
X156374222Y-147958392D01*
X157704222Y-149288392D02*
X156374222Y-149288392D01*
X159034222Y-98368392D02*
X156374222Y-98368392D01*
X159034222Y-146688392D02*
X156374222Y-146688392D01*
X159034222Y-146688392D02*
X159034222Y-98368392D01*
%TO.C,R25*%
X112254724Y-119477500D02*
X111745276Y-119477500D01*
X112254724Y-120522500D02*
X111745276Y-120522500D01*
%TO.C,C36*%
D11*
X117666000Y-148000000D02*
X118936000Y-148000000D01*
X118301000Y-147365000D02*
X118301000Y-148635000D01*
X119063000Y-146285500D02*
X119063000Y-149714500D01*
X124397000Y-146285500D02*
X119063000Y-146285500D01*
X124397000Y-146285500D02*
X124397000Y-149714500D01*
X124397000Y-149714500D02*
X119063000Y-149714500D01*
%TO.C,R21*%
D12*
X93657776Y-141477500D02*
X94167224Y-141477500D01*
X93657776Y-142522500D02*
X94167224Y-142522500D01*
%TO.C,R34*%
X70265000Y-110227064D02*
X70265000Y-109772936D01*
X71735000Y-110227064D02*
X71735000Y-109772936D01*
%TO.C,SW3*%
X67600000Y-92900000D02*
X70000000Y-92900000D01*
X67600000Y-97000000D02*
X67600000Y-92900000D01*
X67600000Y-101000000D02*
X67600000Y-105100000D01*
X67600000Y-105100000D02*
X79400000Y-105100000D01*
X69400000Y-106200000D02*
X69700000Y-106500000D01*
X69400000Y-106800000D02*
X69400000Y-106200000D01*
X69700000Y-106500000D02*
X69400000Y-106800000D01*
X72200000Y-92900000D02*
X74800000Y-92900000D01*
X73000000Y-99000000D02*
X74000000Y-99000000D01*
X73500000Y-99500000D02*
X73500000Y-98500000D01*
X77000000Y-92900000D02*
X79400000Y-92900000D01*
X79400000Y-92900000D02*
X79400000Y-97000000D01*
X79400000Y-101000000D02*
X79400000Y-105100000D01*
X76500000Y-99000000D02*
G75*
G02*
X70500000Y-99000000I-3000000J0D01*
G01*
X70500000Y-99000000D02*
G75*
G02*
X76500000Y-99000000I3000000J0D01*
G01*
%TO.C,D5*%
X71000000Y-124040000D02*
X71000000Y-124690000D01*
X71000000Y-129580000D02*
X71000000Y-128930000D01*
X72120000Y-125290000D02*
X69880000Y-125290000D01*
X72120000Y-125410000D02*
X69880000Y-125410000D01*
X72120000Y-125530000D02*
X69880000Y-125530000D01*
X69880000Y-124690000D02*
X72120000Y-124690000D01*
X72120000Y-128930000D01*
X69880000Y-128930000D01*
X69880000Y-124690000D01*
%TO.C,C28*%
D11*
X114333000Y-117143000D02*
X114333000Y-119937000D01*
X117000000Y-113206000D02*
X117000000Y-114476000D01*
X117635000Y-113841000D02*
X116365000Y-113841000D01*
X119667000Y-117143000D02*
X119667000Y-119937000D01*
X114333000Y-117270000D02*
G75*
G02*
X119667000Y-117270000I2667000J0D01*
G01*
X117000000Y-122477000D02*
G75*
G02*
X114333000Y-119810000I0J2667000D01*
G01*
X119667000Y-119810000D02*
G75*
G02*
X117000000Y-122477000I-2667000J0D01*
G01*
%TD*%
M02*
