%TF.GenerationSoftware,KiCad,Pcbnew,10.0.0*%
%TF.CreationDate,2026-05-07T12:36:50-07:00*%
%TF.ProjectId,input_conditioning_r2,696e7075-745f-4636-9f6e-646974696f6e,1*%
%TF.SameCoordinates,Original*%
%TF.FileFunction,Soldermask,Top*%
%TF.FilePolarity,Negative*%
%FSLAX46Y46*%
G04 Gerber Fmt 4.6, Leading zero omitted, Abs format (unit mm)*
G04 Created by KiCad (PCBNEW 10.0.0) date 2026-05-07 12:36:50*
%MOMM*%
%LPD*%
G01*
G04 APERTURE LIST*
G04 Aperture macros list*
%AMRoundRect*
0 Rectangle with rounded corners*
0 $1 Rounding radius*
0 $2 $3 $4 $5 $6 $7 $8 $9 X,Y pos of 4 corners*
0 Add a 4 corners polygon primitive as box body*
4,1,4,$2,$3,$4,$5,$6,$7,$8,$9,$2,$3,0*
0 Add four circle primitives for the rounded corners*
1,1,$1+$1,$2,$3*
1,1,$1+$1,$4,$5*
1,1,$1+$1,$6,$7*
1,1,$1+$1,$8,$9*
0 Add four rect primitives between the rounded corners*
20,1,$1+$1,$2,$3,$4,$5,0*
20,1,$1+$1,$4,$5,$6,$7,0*
20,1,$1+$1,$6,$7,$8,$9,0*
20,1,$1+$1,$8,$9,$2,$3,0*%
G04 Aperture macros list end*
%ADD10RoundRect,0.050800X-0.990600X-0.279400X0.990600X-0.279400X0.990600X0.279400X-0.990600X0.279400X0*%
%ADD11RoundRect,0.262900X-0.262900X0.275400X-0.262900X-0.275400X0.262900X-0.275400X0.262900X0.275400X0*%
%ADD12RoundRect,0.050800X-0.635000X0.635000X-0.635000X-0.635000X0.635000X-0.635000X0.635000X0.635000X0*%
%ADD13C,1.371600*%
%ADD14RoundRect,0.262900X-0.275400X-0.262900X0.275400X-0.262900X0.275400X0.262900X-0.275400X0.262900X0*%
%ADD15RoundRect,0.050800X0.850000X0.850000X-0.850000X0.850000X-0.850000X-0.850000X0.850000X-0.850000X0*%
%ADD16C,1.801600*%
%ADD17RoundRect,0.050800X-0.635000X-0.635000X0.635000X-0.635000X0.635000X0.635000X-0.635000X0.635000X0*%
%ADD18C,1.701600*%
%ADD19RoundRect,0.262900X0.325400X0.262900X-0.325400X0.262900X-0.325400X-0.262900X0.325400X-0.262900X0*%
%ADD20C,1.501600*%
%ADD21RoundRect,0.050800X1.000000X-1.000000X1.000000X1.000000X-1.000000X1.000000X-1.000000X-1.000000X0*%
%ADD22C,2.101600*%
%ADD23RoundRect,0.050800X1.000000X-1.600000X1.000000X1.600000X-1.000000X1.600000X-1.000000X-1.600000X0*%
%ADD24RoundRect,0.102000X-0.704000X-0.704000X0.704000X-0.704000X0.704000X0.704000X-0.704000X0.704000X0*%
%ADD25C,1.612000*%
%ADD26RoundRect,0.271166X0.479634X-0.379634X0.479634X0.379634X-0.479634X0.379634X-0.479634X-0.379634X0*%
%ADD27RoundRect,0.262900X0.262900X-0.275400X0.262900X0.275400X-0.262900X0.275400X-0.262900X-0.275400X0*%
%ADD28RoundRect,0.262900X-0.262900X0.325400X-0.262900X-0.325400X0.262900X-0.325400X0.262900X0.325400X0*%
%ADD29RoundRect,0.265875X0.584925X0.584925X-0.584925X0.584925X-0.584925X-0.584925X0.584925X-0.584925X0*%
%ADD30RoundRect,0.262900X0.262900X-0.325400X0.262900X0.325400X-0.262900X0.325400X-0.262900X-0.325400X0*%
%ADD31RoundRect,0.262900X-0.325400X-0.262900X0.325400X-0.262900X0.325400X0.262900X-0.325400X0.262900X0*%
%ADD32RoundRect,0.050800X0.635000X-0.635000X0.635000X0.635000X-0.635000X0.635000X-0.635000X-0.635000X0*%
%ADD33RoundRect,0.050800X-0.675000X0.675000X-0.675000X-0.675000X0.675000X-0.675000X0.675000X0.675000X0*%
%ADD34C,1.451600*%
%ADD35RoundRect,0.050800X0.635000X0.635000X-0.635000X0.635000X-0.635000X-0.635000X0.635000X-0.635000X0*%
%ADD36RoundRect,0.265875X0.584925X-0.584925X0.584925X0.584925X-0.584925X0.584925X-0.584925X-0.584925X0*%
%ADD37C,1.498600*%
%ADD38C,2.616200*%
%ADD39RoundRect,0.262900X0.275400X0.262900X-0.275400X0.262900X-0.275400X-0.262900X0.275400X-0.262900X0*%
%ADD40RoundRect,0.265875X-0.584925X0.584925X-0.584925X-0.584925X0.584925X-0.584925X0.584925X0.584925X0*%
G04 APERTURE END LIST*
D10*
%TO.C,U2*%
X117927600Y-140730000D03*
X117927600Y-142000000D03*
X117927600Y-143270000D03*
X117927600Y-144540000D03*
X113000000Y-144540000D03*
X113000000Y-143270000D03*
X113000000Y-142000000D03*
X113000000Y-140730000D03*
%TD*%
D11*
%TO.C,R26*%
X111000000Y-126000000D03*
X111000000Y-124175000D03*
%TD*%
D12*
%TO.C,C39*%
X98050000Y-125175000D03*
D13*
X98050000Y-127715000D03*
%TD*%
D14*
%TO.C,R22*%
X99000000Y-142000000D03*
X100825000Y-142000000D03*
%TD*%
D15*
%TO.C,J1*%
X138000000Y-147860000D03*
D16*
X138000000Y-145320000D03*
X138000000Y-142780000D03*
X138000000Y-140240000D03*
X138000000Y-137700000D03*
X138000000Y-135160000D03*
X138000000Y-132620000D03*
X138000000Y-130080000D03*
X138000000Y-127540000D03*
X138000000Y-125000000D03*
X138000000Y-122460000D03*
X138000000Y-119920000D03*
X138000000Y-117380000D03*
X138000000Y-114840000D03*
X138000000Y-112300000D03*
X138000000Y-109760000D03*
X138000000Y-107220000D03*
X138000000Y-104680000D03*
X138000000Y-102140000D03*
X138000000Y-99600000D03*
%TD*%
D10*
%TO.C,U1*%
X98122400Y-116999250D03*
X98122400Y-118269250D03*
X98122400Y-119539250D03*
X98122400Y-120809250D03*
X103050000Y-120809250D03*
X103050000Y-119539250D03*
X103050000Y-118269250D03*
X103050000Y-116999250D03*
%TD*%
D17*
%TO.C,C38*%
X113000000Y-148000000D03*
D13*
X115540000Y-148000000D03*
%TD*%
D18*
%TO.C,C3*%
X128480000Y-103934000D03*
X126480000Y-103934000D03*
%TD*%
D19*
%TO.C,C31*%
X133480000Y-138934000D03*
X131755000Y-138934000D03*
%TD*%
D20*
%TO.C,R23*%
X122940000Y-131934000D03*
X128020000Y-131934000D03*
%TD*%
D21*
%TO.C,SW2*%
X88000000Y-106500000D03*
D22*
X93000000Y-106500000D03*
X90500000Y-106500000D03*
D23*
X84900000Y-99000000D03*
X96100000Y-99000000D03*
D22*
X93000000Y-92000000D03*
X88000000Y-92000000D03*
%TD*%
D24*
%TO.C,S1*%
X54000000Y-104000000D03*
D25*
X56500000Y-104000000D03*
X59000000Y-104000000D03*
%TD*%
D14*
%TO.C,R20*%
X84175000Y-142000000D03*
X86000000Y-142000000D03*
%TD*%
D20*
%TO.C,R29*%
X129000000Y-135540000D03*
X134080000Y-135540000D03*
%TD*%
D21*
%TO.C,SW1*%
X105000000Y-106500000D03*
D22*
X110000000Y-106500000D03*
X107500000Y-106500000D03*
D23*
X101900000Y-99000000D03*
X113100000Y-99000000D03*
D22*
X110000000Y-92000000D03*
X105000000Y-92000000D03*
%TD*%
D26*
%TO.C,R35*%
X76000000Y-111000000D03*
X76000000Y-109000000D03*
%TD*%
D27*
%TO.C,R18*%
X76000000Y-131912500D03*
X76000000Y-130087500D03*
%TD*%
D28*
%TO.C,C29*%
X117000000Y-124175000D03*
X117000000Y-125900000D03*
%TD*%
D26*
%TO.C,R31*%
X110000000Y-111000000D03*
X110000000Y-109000000D03*
%TD*%
%TO.C,R30*%
X105000000Y-111000000D03*
X105000000Y-109000000D03*
%TD*%
D14*
%TO.C,R27*%
X116000000Y-134000000D03*
X117825000Y-134000000D03*
%TD*%
D29*
%TO.C,D4*%
X96620000Y-146000000D03*
D18*
X89000000Y-146000000D03*
%TD*%
D27*
%TO.C,R24*%
X94000000Y-114825000D03*
X94000000Y-113000000D03*
%TD*%
D11*
%TO.C,R28*%
X122000000Y-142000000D03*
X122000000Y-143825000D03*
%TD*%
D27*
%TO.C,R1*%
X132480000Y-115934000D03*
X132480000Y-114109000D03*
%TD*%
D17*
%TO.C,C25*%
X107000000Y-117000000D03*
D13*
X109540000Y-117000000D03*
%TD*%
D27*
%TO.C,R2*%
X132480000Y-109934000D03*
X132480000Y-108109000D03*
%TD*%
D30*
%TO.C,C27*%
X89000000Y-114825000D03*
X89000000Y-113100000D03*
%TD*%
D27*
%TO.C,R3*%
X132480000Y-103934000D03*
X132480000Y-102109000D03*
%TD*%
D26*
%TO.C,R32*%
X88000000Y-111000000D03*
X88000000Y-109000000D03*
%TD*%
%TO.C,R33*%
X93000000Y-111000000D03*
X93000000Y-109000000D03*
%TD*%
D31*
%TO.C,C23*%
X99000000Y-137000000D03*
X100725000Y-137000000D03*
%TD*%
D32*
%TO.C,C24*%
X108000000Y-137000000D03*
D13*
X108000000Y-131920000D03*
%TD*%
D12*
%TO.C,C35*%
X93050000Y-125175000D03*
D13*
X93050000Y-127715000D03*
%TD*%
D17*
%TO.C,C20*%
X70095000Y-138000000D03*
D13*
X75175000Y-138000000D03*
%TD*%
D28*
%TO.C,C30*%
X129000000Y-142000000D03*
X129000000Y-143725000D03*
%TD*%
D12*
%TO.C,C37*%
X103050000Y-125175000D03*
D13*
X103050000Y-127715000D03*
%TD*%
D33*
%TO.C,J2*%
X128480000Y-115934000D03*
D34*
X126480000Y-115934000D03*
%TD*%
D24*
%TO.C,S2*%
X54000000Y-94000000D03*
D25*
X56500000Y-94000000D03*
X59000000Y-94000000D03*
%TD*%
D18*
%TO.C,C2*%
X128480000Y-109934000D03*
X126480000Y-109934000D03*
%TD*%
D14*
%TO.C,R19*%
X84175000Y-118000000D03*
X86000000Y-118000000D03*
%TD*%
D35*
%TO.C,C34*%
X108000000Y-145000000D03*
D13*
X105460000Y-145000000D03*
%TD*%
D17*
%TO.C,C21*%
X118000000Y-137000000D03*
D13*
X120540000Y-137000000D03*
%TD*%
D36*
%TO.C,D3*%
X82000000Y-130620000D03*
D18*
X82000000Y-123000000D03*
%TD*%
D36*
%TO.C,D6*%
X89000000Y-138000000D03*
D18*
X89000000Y-130380000D03*
%TD*%
D28*
%TO.C,C26*%
X126000000Y-134000000D03*
X126000000Y-135725000D03*
%TD*%
D29*
%TO.C,C19*%
X128480000Y-121934000D03*
D18*
X125980000Y-121934000D03*
%TD*%
D17*
%TO.C,C22*%
X78000000Y-147000000D03*
D13*
X83080000Y-147000000D03*
%TD*%
D37*
%TO.C,J3*%
X53460000Y-113251750D03*
X56000000Y-113251750D03*
X58540000Y-113251750D03*
X56000000Y-115791750D03*
D38*
X50920000Y-122141750D03*
X61080000Y-122141750D03*
%TD*%
D15*
%TO.C,J7*%
X157704222Y-147958392D03*
D16*
X157704222Y-145418392D03*
X157704222Y-142878392D03*
X157704222Y-140338392D03*
X157704222Y-137798392D03*
X157704222Y-135258392D03*
X157704222Y-132718392D03*
X157704222Y-130178392D03*
X157704222Y-127638392D03*
X157704222Y-125098392D03*
X157704222Y-122558392D03*
X157704222Y-120018392D03*
X157704222Y-117478392D03*
X157704222Y-114938392D03*
X157704222Y-112398392D03*
X157704222Y-109858392D03*
X157704222Y-107318392D03*
X157704222Y-104778392D03*
X157704222Y-102238392D03*
X157704222Y-99698392D03*
%TD*%
D39*
%TO.C,R25*%
X112912500Y-120000000D03*
X111087500Y-120000000D03*
%TD*%
D17*
%TO.C,C36*%
X120460000Y-148000000D03*
D13*
X123000000Y-148000000D03*
%TD*%
D14*
%TO.C,R21*%
X93000000Y-142000000D03*
X94825000Y-142000000D03*
%TD*%
D26*
%TO.C,R34*%
X71000000Y-111000000D03*
X71000000Y-109000000D03*
%TD*%
D21*
%TO.C,SW3*%
X71000000Y-106500000D03*
D22*
X76000000Y-106500000D03*
X73500000Y-106500000D03*
D23*
X67900000Y-99000000D03*
X79100000Y-99000000D03*
D22*
X76000000Y-92000000D03*
X71000000Y-92000000D03*
%TD*%
D40*
%TO.C,D5*%
X71000000Y-123000000D03*
D18*
X71000000Y-130620000D03*
%TD*%
D12*
%TO.C,C28*%
X117000000Y-116000000D03*
D13*
X117000000Y-121080000D03*
%TD*%
M02*
